  0
SECTION
  2
HEADER
  9
$ACADVER
  1
AC1009
  9
$FILLMODE
 70
0
  9
$EXTMIN
 10
6.1722
 20
-2.7328
 30
0.0000
  9
$EXTMAX
 10
69.8500
 20
82.0928
 30
0.0000
  0
ENDSEC
  0
SECTION
  2
TABLES
  0
TABLE
  2
LTYPE
 70
1
  0
LTYPE
  2
CONTINUOUS
 70
64
  3
Solid line
 72
65
 73
0
 40
0
  0
ENDTAB
  0
TABLE
  2
LAYER
 70
255
  0
LAYER
  2
16
 70
64
 62
175
  6
CONTINUOUS
  0
LAYER
  2
17
 70
64
 62
82
  6
CONTINUOUS
  0
LAYER
  2
20
 70
64
 62
30
  6
CONTINUOUS
  0
LAYER
  2
44
 70
64
 62
253
  6
CONTINUOUS
  0
ENDTAB
  0
ENDSEC
  0
SECTION
  2
BLOCKS
  0
BLOCK
  8
0
  2
RECT
 70
64
 10
0.0000
 20
0.0000
 30
0.0000
  3
RECT
  0
SOLID
  8
0
 10
-0.5000
 20
-0.5000
 30
0.0000
 11
0.5000
 21
-0.5000
 31
0.0000
 12
-0.5000
 22
0.5000
 32
0.0000
 13
0.5000
 23
0.5000
 33
0.0000
  0
ENDBLK
  8
0
  0
BLOCK
  8
0
  2
PIE
 70
64
 10
0.0000
 20
0.0000
 30
0.0000
  3
PIE
  0
CIRCLE
  8
0
 10
0.0000
 20
0.0000
 30
0.0000
 40
0.5000
  0
ENDBLK
  8
0
  0
BLOCK
  8
0
  2
OCTAGONP
 70
64
 10
0.0000
 20
0.0000
 30
0.0000
  3
OCTAGONP
  0
POLYLINE
  8
0
 66
1
 10
0.0000
 20
0.0000
 30
0.0000
 40
0.0000
 41
0.0000
 70
1
  0
VERTEX
  8
0
 10
-0.5000
 20
-0.2071
 30
0.0000
  0
VERTEX
  8
0
 10
-0.5000
 20
0.2071
 30
0.0000
  0
VERTEX
  8
0
 10
-0.2071
 20
0.5000
 30
0.0000
  0
VERTEX
  8
0
 10
0.2071
 20
0.5000
 30
0.0000
  0
VERTEX
  8
0
 10
0.5000
 20
0.2071
 30
0.0000
  0
VERTEX
  8
0
 10
0.5000
 20
-0.2071
 30
0.0000
  0
VERTEX
  8
0
 10
0.2071
 20
-0.5000
 30
0.0000
  0
VERTEX
  8
0
 10
-0.2071
 20
-0.5000
 30
0.0000
  0
SEQEND
  8
0
  0
ENDBLK
  8
0
  0
BLOCK
  8
0
  2
SQUAREP
 70
64
 10
0.0000
 20
0.0000
 30
0.0000
  3
SQUAREP
  0
SOLID
  8
0
 10
-0.5000
 20
-0.5000
 30
0.0000
 11
0.5000
 21
-0.5000
 31
0.0000
 12
-0.5000
 22
0.5000
 32
0.0000
 13
0.5000
 23
0.5000
 33
0.0000
  0
ENDBLK
  8
0
  0
BLOCK
  8
0
  2
ROUNDP
 70
64
 10
0.0000
 20
0.0000
 30
0.0000
  3
ROUNDP
  0
CIRCLE
  8
0
 10
0.0000
 20
0.0000
 30
0.0000
 40
0.5000
  0
ENDBLK
  8
0
  0
BLOCK
  8
0
  2
ANNULUSP
 70
64
 10
0.0000
 20
0.0000
 30
0.0000
  3
ANNULUSP
  0
CIRCLE
  8
0
 10
0.0000
 20
0.0000
 30
0.0000
 40
0.5000
  0
ENDBLK
  8
0
  0
BLOCK
  8
0
  2
THERMALP
 70
64
 10
0.0000
 20
0.0000
 30
0.0000
  3
THERMALP
  0
POLYLINE
  8
0
 66
1
 10
0.0000
 20
0.0000
 30
0.0000
 40
0.0000
 41
0.0000
 70
1
  0
VERTEX
  8
0
 10
-0.2379
 20
0.4000
 30
0.0000
  0
VERTEX
  8
0
 10
0.2379
 20
0.4000
 30
0.0000
 42
1.0000
  0
VERTEX
  8
0
 10
0.2379
 20
0.5000
 30
0.0000
  0
VERTEX
  8
0
 10
-0.2379
 20
0.5000
 30
0.0000
 42
1.0000
  0
SEQEND
  8
0
  0
POLYLINE
  8
0
 66
1
 10
0.0000
 20
0.0000
 30
0.0000
 40
0.0000
 41
0.0000
 70
1
  0
VERTEX
  8
0
 10
0.4000
 20
0.2379
 30
0.0000
  0
VERTEX
  8
0
 10
0.4000
 20
-0.2379
 30
0.0000
 42
1.0000
  0
VERTEX
  8
0
 10
0.5000
 20
-0.2379
 30
0.0000
  0
VERTEX
  8
0
 10
0.5000
 20
0.2379
 30
0.0000
 42
1.0000
  0
SEQEND
  8
0
  0
POLYLINE
  8
0
 66
1
 10
0.0000
 20
0.0000
 30
0.0000
 40
0.0000
 41
0.0000
 70
1
  0
VERTEX
  8
0
 10
0.2379
 20
-0.4000
 30
0.0000
  0
VERTEX
  8
0
 10
-0.2379
 20
-0.4000
 30
0.0000
 42
1.0000
  0
VERTEX
  8
0
 10
-0.2379
 20
-0.5000
 30
0.0000
  0
VERTEX
  8
0
 10
0.2379
 20
-0.5000
 30
0.0000
 42
1.0000
  0
SEQEND
  8
0
  0
POLYLINE
  8
0
 66
1
 10
0.0000
 20
0.0000
 30
0.0000
 40
0.0000
 41
0.0000
 70
1
  0
VERTEX
  8
0
 10
-0.4000
 20
-0.2379
 30
0.0000
  0
VERTEX
  8
0
 10
-0.4000
 20
0.2379
 30
0.0000
 42
1.0000
  0
VERTEX
  8
0
 10
-0.5000
 20
0.2379
 30
0.0000
  0
VERTEX
  8
0
 10
-0.5000
 20
-0.2379
 30
0.0000
 42
1.0000
  0
SEQEND
  8
0
  0
ENDBLK
  8
0
  0
BLOCK
  8
0
  2
OCTAGONV
 70
64
 10
0.0000
 20
0.0000
 30
0.0000
  3
OCTAGONV
  0
POLYLINE
  8
0
 66
1
 10
0.0000
 20
0.0000
 30
0.0000
 40
0.0000
 41
0.0000
 70
1
  0
VERTEX
  8
0
 10
-0.5000
 20
-0.2071
 30
0.0000
  0
VERTEX
  8
0
 10
-0.5000
 20
0.2071
 30
0.0000
  0
VERTEX
  8
0
 10
-0.2071
 20
0.5000
 30
0.0000
  0
VERTEX
  8
0
 10
0.2071
 20
0.5000
 30
0.0000
  0
VERTEX
  8
0
 10
0.5000
 20
0.2071
 30
0.0000
  0
VERTEX
  8
0
 10
0.5000
 20
-0.2071
 30
0.0000
  0
VERTEX
  8
0
 10
0.2071
 20
-0.5000
 30
0.0000
  0
VERTEX
  8
0
 10
-0.2071
 20
-0.5000
 30
0.0000
  0
SEQEND
  8
0
  0
ENDBLK
  8
0
  0
BLOCK
  8
0
  2
SQUAREV
 70
64
 10
0.0000
 20
0.0000
 30
0.0000
  3
SQUAREV
  0
SOLID
  8
0
 10
-0.5000
 20
-0.5000
 30
0.0000
 11
0.5000
 21
-0.5000
 31
0.0000
 12
-0.5000
 22
0.5000
 32
0.0000
 13
0.5000
 23
0.5000
 33
0.0000
  0
ENDBLK
  8
0
  0
BLOCK
  8
0
  2
ROUNDV
 70
64
 10
0.0000
 20
0.0000
 30
0.0000
  3
ROUNDV
  0
CIRCLE
  8
0
 10
0.0000
 20
0.0000
 30
0.0000
 40
0.5000
  0
ENDBLK
  8
0
  0
BLOCK
  8
0
  2
ANNULUSV
 70
64
 10
0.0000
 20
0.0000
 30
0.0000
  3
ANNULUSV
  0
CIRCLE
  8
0
 10
0.0000
 20
0.0000
 30
0.0000
 40
0.5000
  0
ENDBLK
  8
0
  0
BLOCK
  8
0
  2
THERMALV
 70
64
 10
0.0000
 20
0.0000
 30
0.0000
  3
THERMALV
  0
POLYLINE
  8
0
 66
1
 10
0.0000
 20
0.0000
 30
0.0000
 40
0.0000
 41
0.0000
 70
1
  0
VERTEX
  8
0
 10
-0.2379
 20
0.4000
 30
0.0000
  0
VERTEX
  8
0
 10
0.2379
 20
0.4000
 30
0.0000
 42
1.0000
  0
VERTEX
  8
0
 10
0.2379
 20
0.5000
 30
0.0000
  0
VERTEX
  8
0
 10
-0.2379
 20
0.5000
 30
0.0000
 42
1.0000
  0
SEQEND
  8
0
  0
POLYLINE
  8
0
 66
1
 10
0.0000
 20
0.0000
 30
0.0000
 40
0.0000
 41
0.0000
 70
1
  0
VERTEX
  8
0
 10
0.4000
 20
0.2379
 30
0.0000
  0
VERTEX
  8
0
 10
0.4000
 20
-0.2379
 30
0.0000
 42
1.0000
  0
VERTEX
  8
0
 10
0.5000
 20
-0.2379
 30
0.0000
  0
VERTEX
  8
0
 10
0.5000
 20
0.2379
 30
0.0000
 42
1.0000
  0
SEQEND
  8
0
  0
POLYLINE
  8
0
 66
1
 10
0.0000
 20
0.0000
 30
0.0000
 40
0.0000
 41
0.0000
 70
1
  0
VERTEX
  8
0
 10
0.2379
 20
-0.4000
 30
0.0000
  0
VERTEX
  8
0
 10
-0.2379
 20
-0.4000
 30
0.0000
 42
1.0000
  0
VERTEX
  8
0
 10
-0.2379
 20
-0.5000
 30
0.0000
  0
VERTEX
  8
0
 10
0.2379
 20
-0.5000
 30
0.0000
 42
1.0000
  0
SEQEND
  8
0
  0
POLYLINE
  8
0
 66
1
 10
0.0000
 20
0.0000
 30
0.0000
 40
0.0000
 41
0.0000
 70
1
  0
VERTEX
  8
0
 10
-0.4000
 20
-0.2379
 30
0.0000
  0
VERTEX
  8
0
 10
-0.4000
 20
0.2379
 30
0.0000
 42
1.0000
  0
VERTEX
  8
0
 10
-0.5000
 20
0.2379
 30
0.0000
  0
VERTEX
  8
0
 10
-0.5000
 20
-0.2379
 30
0.0000
 42
1.0000
  0
SEQEND
  8
0
  0
ENDBLK
  8
0
  0
ENDSEC
  0
SECTION
  2
ENTITIES
  0
LINE
  8
20
 10
11.4300
 20
2.5400
 30
0.0000
 11
66.9800
 21
2.5400
 31
0.0000
  0
LINE
  8
20
 10
66.9800
 20
2.5400
 30
0.0000
 11
66.9800
 21
76.1900
 31
0.0000
  0
LINE
  8
20
 10
66.9800
 20
76.1900
 30
0.0000
 11
11.4300
 21
76.1900
 31
0.0000
  0
LINE
  8
20
 10
11.4300
 20
76.1900
 30
0.0000
 11
11.4300
 21
2.5400
 31
0.0000
  0
CIRCLE
  8
20
 10
45.7200
 20
25.4000
 30
0.0000
 40
0.8890
  0
CIRCLE
  8
20
 10
30.4800
 20
25.4000
 30
0.0000
 40
0.8890
  0
CIRCLE
  8
20
 10
30.4800
 20
66.0400
 30
0.0000
 40
0.8890
  0
CIRCLE
  8
20
 10
45.7200
 20
66.0400
 30
0.0000
 40
0.8890
  0
INSERT
  8
17
  2
SQUAREP
 10
45.7200
 20
27.9400
 30
0.0000
 41
1.3080
 42
1.3080
 43
1.0000
 50
90.0000
  0
CIRCLE
  8
44
 10
45.7200
 20
27.9400
 30
0.0000
 40
0.4000
  0
INSERT
  8
17
  2
ROUNDP
 10
45.7200
 20
30.4800
 30
0.0000
 41
1.3080
 42
1.3080
 43
1.0000
 50
90.0000
  0
CIRCLE
  8
44
 10
45.7200
 20
30.4800
 30
0.0000
 40
0.4000
  0
INSERT
  8
17
  2
ROUNDP
 10
45.7200
 20
33.0200
 30
0.0000
 41
1.3080
 42
1.3080
 43
1.0000
 50
90.0000
  0
CIRCLE
  8
44
 10
45.7200
 20
33.0200
 30
0.0000
 40
0.4000
  0
INSERT
  8
17
  2
ROUNDP
 10
45.7200
 20
35.5600
 30
0.0000
 41
1.3080
 42
1.3080
 43
1.0000
 50
90.0000
  0
CIRCLE
  8
44
 10
45.7200
 20
35.5600
 30
0.0000
 40
0.4000
  0
INSERT
  8
17
  2
ROUNDP
 10
45.7200
 20
38.1000
 30
0.0000
 41
1.3080
 42
1.3080
 43
1.0000
 50
90.0000
  0
CIRCLE
  8
44
 10
45.7200
 20
38.1000
 30
0.0000
 40
0.4000
  0
INSERT
  8
17
  2
ROUNDP
 10
45.7200
 20
40.6400
 30
0.0000
 41
1.3080
 42
1.3080
 43
1.0000
 50
90.0000
  0
CIRCLE
  8
44
 10
45.7200
 20
40.6400
 30
0.0000
 40
0.4000
  0
INSERT
  8
17
  2
ROUNDP
 10
45.7200
 20
43.1800
 30
0.0000
 41
1.3080
 42
1.3080
 43
1.0000
 50
90.0000
  0
CIRCLE
  8
44
 10
45.7200
 20
43.1800
 30
0.0000
 40
0.4000
  0
INSERT
  8
17
  2
ROUNDP
 10
45.7200
 20
45.7200
 30
0.0000
 41
1.3080
 42
1.3080
 43
1.0000
 50
90.0000
  0
CIRCLE
  8
44
 10
45.7200
 20
45.7200
 30
0.0000
 40
0.4000
  0
INSERT
  8
17
  2
ROUNDP
 10
45.7200
 20
48.2600
 30
0.0000
 41
1.3080
 42
1.3080
 43
1.0000
 50
90.0000
  0
CIRCLE
  8
44
 10
45.7200
 20
48.2600
 30
0.0000
 40
0.4000
  0
INSERT
  8
17
  2
ROUNDP
 10
45.7200
 20
50.8000
 30
0.0000
 41
1.3080
 42
1.3080
 43
1.0000
 50
90.0000
  0
CIRCLE
  8
44
 10
45.7200
 20
50.8000
 30
0.0000
 40
0.4000
  0
INSERT
  8
17
  2
ROUNDP
 10
45.7200
 20
53.3400
 30
0.0000
 41
1.3080
 42
1.3080
 43
1.0000
 50
90.0000
  0
CIRCLE
  8
44
 10
45.7200
 20
53.3400
 30
0.0000
 40
0.4000
  0
INSERT
  8
17
  2
ROUNDP
 10
45.7200
 20
55.8800
 30
0.0000
 41
1.3080
 42
1.3080
 43
1.0000
 50
90.0000
  0
CIRCLE
  8
44
 10
45.7200
 20
55.8800
 30
0.0000
 40
0.4000
  0
INSERT
  8
17
  2
ROUNDP
 10
45.7200
 20
58.4200
 30
0.0000
 41
1.3080
 42
1.3080
 43
1.0000
 50
90.0000
  0
CIRCLE
  8
44
 10
45.7200
 20
58.4200
 30
0.0000
 40
0.4000
  0
INSERT
  8
17
  2
ROUNDP
 10
45.7200
 20
60.9600
 30
0.0000
 41
1.3080
 42
1.3080
 43
1.0000
 50
90.0000
  0
CIRCLE
  8
44
 10
45.7200
 20
60.9600
 30
0.0000
 40
0.4000
  0
INSERT
  8
17
  2
ROUNDP
 10
45.7200
 20
63.5000
 30
0.0000
 41
1.3080
 42
1.3080
 43
1.0000
 50
90.0000
  0
CIRCLE
  8
44
 10
45.7200
 20
63.5000
 30
0.0000
 40
0.4000
  0
INSERT
  8
17
  2
ROUNDP
 10
30.4800
 20
63.5000
 30
0.0000
 41
1.3080
 42
1.3080
 43
1.0000
 50
90.0000
  0
CIRCLE
  8
44
 10
30.4800
 20
63.5000
 30
0.0000
 40
0.4000
  0
INSERT
  8
17
  2
ROUNDP
 10
30.4800
 20
60.9600
 30
0.0000
 41
1.3080
 42
1.3080
 43
1.0000
 50
90.0000
  0
CIRCLE
  8
44
 10
30.4800
 20
60.9600
 30
0.0000
 40
0.4000
  0
INSERT
  8
17
  2
ROUNDP
 10
30.4800
 20
58.4200
 30
0.0000
 41
1.3080
 42
1.3080
 43
1.0000
 50
90.0000
  0
CIRCLE
  8
44
 10
30.4800
 20
58.4200
 30
0.0000
 40
0.4000
  0
INSERT
  8
17
  2
ROUNDP
 10
30.4800
 20
55.8800
 30
0.0000
 41
1.3080
 42
1.3080
 43
1.0000
 50
90.0000
  0
CIRCLE
  8
44
 10
30.4800
 20
55.8800
 30
0.0000
 40
0.4000
  0
INSERT
  8
17
  2
ROUNDP
 10
30.4800
 20
53.3400
 30
0.0000
 41
1.3080
 42
1.3080
 43
1.0000
 50
90.0000
  0
CIRCLE
  8
44
 10
30.4800
 20
53.3400
 30
0.0000
 40
0.4000
  0
INSERT
  8
17
  2
ROUNDP
 10
30.4800
 20
50.8000
 30
0.0000
 41
1.3080
 42
1.3080
 43
1.0000
 50
90.0000
  0
CIRCLE
  8
44
 10
30.4800
 20
50.8000
 30
0.0000
 40
0.4000
  0
INSERT
  8
17
  2
ROUNDP
 10
30.4800
 20
48.2600
 30
0.0000
 41
1.3080
 42
1.3080
 43
1.0000
 50
90.0000
  0
CIRCLE
  8
44
 10
30.4800
 20
48.2600
 30
0.0000
 40
0.4000
  0
INSERT
  8
17
  2
ROUNDP
 10
30.4800
 20
45.7200
 30
0.0000
 41
1.3080
 42
1.3080
 43
1.0000
 50
90.0000
  0
CIRCLE
  8
44
 10
30.4800
 20
45.7200
 30
0.0000
 40
0.4000
  0
INSERT
  8
17
  2
ROUNDP
 10
30.4800
 20
43.1800
 30
0.0000
 41
1.3080
 42
1.3080
 43
1.0000
 50
90.0000
  0
CIRCLE
  8
44
 10
30.4800
 20
43.1800
 30
0.0000
 40
0.4000
  0
INSERT
  8
17
  2
ROUNDP
 10
30.4800
 20
40.6400
 30
0.0000
 41
1.3080
 42
1.3080
 43
1.0000
 50
90.0000
  0
CIRCLE
  8
44
 10
30.4800
 20
40.6400
 30
0.0000
 40
0.4000
  0
INSERT
  8
17
  2
ROUNDP
 10
30.4800
 20
38.1000
 30
0.0000
 41
1.3080
 42
1.3080
 43
1.0000
 50
90.0000
  0
CIRCLE
  8
44
 10
30.4800
 20
38.1000
 30
0.0000
 40
0.4000
  0
INSERT
  8
17
  2
ROUNDP
 10
30.4800
 20
35.5600
 30
0.0000
 41
1.3080
 42
1.3080
 43
1.0000
 50
90.0000
  0
CIRCLE
  8
44
 10
30.4800
 20
35.5600
 30
0.0000
 40
0.4000
  0
INSERT
  8
17
  2
ROUNDP
 10
30.4800
 20
33.0200
 30
0.0000
 41
1.3080
 42
1.3080
 43
1.0000
 50
90.0000
  0
CIRCLE
  8
44
 10
30.4800
 20
33.0200
 30
0.0000
 40
0.4000
  0
INSERT
  8
17
  2
ROUNDP
 10
30.4800
 20
30.4800
 30
0.0000
 41
1.3080
 42
1.3080
 43
1.0000
 50
90.0000
  0
CIRCLE
  8
44
 10
30.4800
 20
30.4800
 30
0.0000
 40
0.4000
  0
INSERT
  8
17
  2
ROUNDP
 10
30.4800
 20
27.9400
 30
0.0000
 41
1.3080
 42
1.3080
 43
1.0000
 50
90.0000
  0
CIRCLE
  8
44
 10
30.4800
 20
27.9400
 30
0.0000
 40
0.4000
  0
INSERT
  8
17
  2
SQUAREP
 10
16.3322
 20
69.8500
 30
0.0000
 41
2.0320
 42
2.0320
 43
1.0000
 50
0.0000
  0
CIRCLE
  8
44
 10
16.3322
 20
69.8500
 30
0.0000
 40
0.6000
  0
INSERT
  8
17
  2
ROUNDP
 10
20.1878
 20
69.8500
 30
0.0000
 41
2.0320
 42
2.0320
 43
1.0000
 50
0.0000
  0
CIRCLE
  8
44
 10
20.1878
 20
69.8500
 30
0.0000
 40
0.6000
  0
INSERT
  8
17
  2
SQUAREP
 10
17.7800
 20
7.6200
 30
0.0000
 41
2.0320
 42
2.0320
 43
1.0000
 50
90.0000
  0
CIRCLE
  8
44
 10
17.7800
 20
7.6200
 30
0.0000
 40
0.6000
  0
INSERT
  8
17
  2
ROUNDP
 10
17.7800
 20
11.1200
 30
0.0000
 41
2.0320
 42
2.0320
 43
1.0000
 50
90.0000
  0
CIRCLE
  8
44
 10
17.7800
 20
11.1200
 30
0.0000
 40
0.6000
  0
INSERT
  8
17
  2
ROUNDP
 10
17.7800
 20
14.6200
 30
0.0000
 41
2.0320
 42
2.0320
 43
1.0000
 50
90.0000
  0
CIRCLE
  8
44
 10
17.7800
 20
14.6200
 30
0.0000
 40
0.6000
  0
INSERT
  8
17
  2
ROUNDP
 10
17.7800
 20
18.1200
 30
0.0000
 41
2.0320
 42
2.0320
 43
1.0000
 50
90.0000
  0
CIRCLE
  8
44
 10
17.7800
 20
18.1200
 30
0.0000
 40
0.6000
  0
INSERT
  8
17
  2
SQUAREP
 10
17.7800
 20
22.8600
 30
0.0000
 41
2.0320
 42
2.0320
 43
1.0000
 50
90.0000
  0
CIRCLE
  8
44
 10
17.7800
 20
22.8600
 30
0.0000
 40
0.6000
  0
INSERT
  8
17
  2
ROUNDP
 10
17.7800
 20
26.3600
 30
0.0000
 41
2.0320
 42
2.0320
 43
1.0000
 50
90.0000
  0
CIRCLE
  8
44
 10
17.7800
 20
26.3600
 30
0.0000
 40
0.6000
  0
INSERT
  8
17
  2
ROUNDP
 10
17.7800
 20
29.8600
 30
0.0000
 41
2.0320
 42
2.0320
 43
1.0000
 50
90.0000
  0
CIRCLE
  8
44
 10
17.7800
 20
29.8600
 30
0.0000
 40
0.6000
  0
INSERT
  8
17
  2
ROUNDP
 10
17.7800
 20
33.3600
 30
0.0000
 41
2.0320
 42
2.0320
 43
1.0000
 50
90.0000
  0
CIRCLE
  8
44
 10
17.7800
 20
33.3600
 30
0.0000
 40
0.6000
  0
INSERT
  8
17
  2
SQUAREP
 10
17.7800
 20
38.1000
 30
0.0000
 41
2.0320
 42
2.0320
 43
1.0000
 50
90.0000
  0
CIRCLE
  8
44
 10
17.7800
 20
38.1000
 30
0.0000
 40
0.6000
  0
INSERT
  8
17
  2
ROUNDP
 10
17.7800
 20
41.6000
 30
0.0000
 41
2.0320
 42
2.0320
 43
1.0000
 50
90.0000
  0
CIRCLE
  8
44
 10
17.7800
 20
41.6000
 30
0.0000
 40
0.6000
  0
INSERT
  8
17
  2
ROUNDP
 10
17.7800
 20
45.1000
 30
0.0000
 41
2.0320
 42
2.0320
 43
1.0000
 50
90.0000
  0
CIRCLE
  8
44
 10
17.7800
 20
45.1000
 30
0.0000
 40
0.6000
  0
INSERT
  8
17
  2
ROUNDP
 10
17.7800
 20
48.6000
 30
0.0000
 41
2.0320
 42
2.0320
 43
1.0000
 50
90.0000
  0
CIRCLE
  8
44
 10
17.7800
 20
48.6000
 30
0.0000
 40
0.6000
  0
INSERT
  8
17
  2
SQUAREP
 10
17.7800
 20
53.3400
 30
0.0000
 41
2.0320
 42
2.0320
 43
1.0000
 50
90.0000
  0
CIRCLE
  8
44
 10
17.7800
 20
53.3400
 30
0.0000
 40
0.6000
  0
INSERT
  8
17
  2
ROUNDP
 10
17.7800
 20
56.8400
 30
0.0000
 41
2.0320
 42
2.0320
 43
1.0000
 50
90.0000
  0
CIRCLE
  8
44
 10
17.7800
 20
56.8400
 30
0.0000
 40
0.6000
  0
INSERT
  8
17
  2
ROUNDP
 10
17.7800
 20
60.3400
 30
0.0000
 41
2.0320
 42
2.0320
 43
1.0000
 50
90.0000
  0
CIRCLE
  8
44
 10
17.7800
 20
60.3400
 30
0.0000
 40
0.6000
  0
INSERT
  8
17
  2
ROUNDP
 10
17.7800
 20
63.8400
 30
0.0000
 41
2.0320
 42
2.0320
 43
1.0000
 50
90.0000
  0
CIRCLE
  8
44
 10
17.7800
 20
63.8400
 30
0.0000
 40
0.6000
  0
INSERT
  8
17
  2
SQUAREP
 10
59.6900
 20
71.9328
 30
0.0000
 41
2.0320
 42
2.0320
 43
1.0000
 50
270.0000
  0
CIRCLE
  8
44
 10
59.6900
 20
71.9328
 30
0.0000
 40
0.6000
  0
INSERT
  8
17
  2
ROUNDP
 10
59.6900
 20
68.2550
 30
0.0000
 41
2.0320
 42
2.0320
 43
1.0000
 50
270.0000
  0
CIRCLE
  8
44
 10
59.6900
 20
68.2550
 30
0.0000
 40
0.6000
  0
INSERT
  8
17
  2
ROUNDP
 10
59.6900
 20
64.5772
 30
0.0000
 41
2.0320
 42
2.0320
 43
1.0000
 50
270.0000
  0
CIRCLE
  8
44
 10
59.6900
 20
64.5772
 30
0.0000
 40
0.6000
  0
INSERT
  8
17
  2
SQUAREP
 10
59.6900
 20
60.5028
 30
0.0000
 41
2.0320
 42
2.0320
 43
1.0000
 50
270.0000
  0
CIRCLE
  8
44
 10
59.6900
 20
60.5028
 30
0.0000
 40
0.6000
  0
INSERT
  8
17
  2
ROUNDP
 10
59.6900
 20
56.8250
 30
0.0000
 41
2.0320
 42
2.0320
 43
1.0000
 50
270.0000
  0
CIRCLE
  8
44
 10
59.6900
 20
56.8250
 30
0.0000
 40
0.6000
  0
INSERT
  8
17
  2
ROUNDP
 10
59.6900
 20
53.1472
 30
0.0000
 41
2.0320
 42
2.0320
 43
1.0000
 50
270.0000
  0
CIRCLE
  8
44
 10
59.6900
 20
53.1472
 30
0.0000
 40
0.6000
  0
INSERT
  8
17
  2
SQUAREP
 10
59.6900
 20
49.0728
 30
0.0000
 41
2.0320
 42
2.0320
 43
1.0000
 50
270.0000
  0
CIRCLE
  8
44
 10
59.6900
 20
49.0728
 30
0.0000
 40
0.6000
  0
INSERT
  8
17
  2
ROUNDP
 10
59.6900
 20
45.3950
 30
0.0000
 41
2.0320
 42
2.0320
 43
1.0000
 50
270.0000
  0
CIRCLE
  8
44
 10
59.6900
 20
45.3950
 30
0.0000
 40
0.6000
  0
INSERT
  8
17
  2
ROUNDP
 10
59.6900
 20
41.7172
 30
0.0000
 41
2.0320
 42
2.0320
 43
1.0000
 50
270.0000
  0
CIRCLE
  8
44
 10
59.6900
 20
41.7172
 30
0.0000
 40
0.6000
  0
INSERT
  8
17
  2
SQUAREP
 10
59.6900
 20
37.6428
 30
0.0000
 41
2.0320
 42
2.0320
 43
1.0000
 50
270.0000
  0
CIRCLE
  8
44
 10
59.6900
 20
37.6428
 30
0.0000
 40
0.6000
  0
INSERT
  8
17
  2
ROUNDP
 10
59.6900
 20
33.9650
 30
0.0000
 41
2.0320
 42
2.0320
 43
1.0000
 50
270.0000
  0
CIRCLE
  8
44
 10
59.6900
 20
33.9650
 30
0.0000
 40
0.6000
  0
INSERT
  8
17
  2
ROUNDP
 10
59.6900
 20
30.2872
 30
0.0000
 41
2.0320
 42
2.0320
 43
1.0000
 50
270.0000
  0
CIRCLE
  8
44
 10
59.6900
 20
30.2872
 30
0.0000
 40
0.6000
  0
INSERT
  8
17
  2
SQUAREP
 10
59.6900
 20
26.2128
 30
0.0000
 41
2.0320
 42
2.0320
 43
1.0000
 50
270.0000
  0
CIRCLE
  8
44
 10
59.6900
 20
26.2128
 30
0.0000
 40
0.6000
  0
INSERT
  8
17
  2
ROUNDP
 10
59.6900
 20
22.5350
 30
0.0000
 41
2.0320
 42
2.0320
 43
1.0000
 50
270.0000
  0
CIRCLE
  8
44
 10
59.6900
 20
22.5350
 30
0.0000
 40
0.6000
  0
INSERT
  8
17
  2
ROUNDP
 10
59.6900
 20
18.8572
 30
0.0000
 41
2.0320
 42
2.0320
 43
1.0000
 50
270.0000
  0
CIRCLE
  8
44
 10
59.6900
 20
18.8572
 30
0.0000
 40
0.6000
  0
INSERT
  8
17
  2
SQUAREP
 10
59.6900
 20
14.7828
 30
0.0000
 41
2.0320
 42
2.0320
 43
1.0000
 50
270.0000
  0
CIRCLE
  8
44
 10
59.6900
 20
14.7828
 30
0.0000
 40
0.6000
  0
INSERT
  8
17
  2
ROUNDP
 10
59.6900
 20
11.1050
 30
0.0000
 41
2.0320
 42
2.0320
 43
1.0000
 50
270.0000
  0
CIRCLE
  8
44
 10
59.6900
 20
11.1050
 30
0.0000
 40
0.6000
  0
INSERT
  8
17
  2
ROUNDP
 10
59.6900
 20
7.4272
 30
0.0000
 41
2.0320
 42
2.0320
 43
1.0000
 50
270.0000
  0
CIRCLE
  8
44
 10
59.6900
 20
7.4272
 30
0.0000
 40
0.6000
  0
POLYLINE
  8
16
 66
1
 10
0.0000
 20
0.0000
 30
0.0000
 40
0.0000
 41
0.0000
 70
1
  0
VERTEX
  8
16
 10
17.7800
 20
15.2550
 30
0.0000
  0
VERTEX
  8
16
 10
15.8600
 20
15.2550
 30
0.0000
 42
1.0000
  0
VERTEX
  8
16
 10
15.8600
 20
13.9850
 30
0.0000
  0
VERTEX
  8
16
 10
17.7800
 20
13.9850
 30
0.0000
 42
1.0000
  0
SEQEND
  8
0
  0
POLYLINE
  8
16
 66
1
 10
0.0000
 20
0.0000
 30
0.0000
 40
0.0000
 41
0.0000
 70
1
  0
VERTEX
  8
16
 10
16.3090
 20
15.0690
 30
0.0000
  0
VERTEX
  8
16
 10
15.0540
 20
16.3240
 30
0.0000
 42
1.0000
  0
VERTEX
  8
16
 10
14.1560
 20
15.4260
 30
0.0000
  0
VERTEX
  8
16
 10
15.4110
 20
14.1710
 30
0.0000
 42
1.0000
  0
SEQEND
  8
0
  0
POLYLINE
  8
16
 66
1
 10
0.0000
 20
0.0000
 30
0.0000
 40
0.0000
 41
0.0000
 70
1
  0
VERTEX
  8
16
 10
15.2400
 20
48.2600
 30
0.0000
  0
VERTEX
  8
16
 10
15.2400
 20
60.3250
 30
0.0000
 42
1.0000
  0
VERTEX
  8
16
 10
13.9700
 20
60.3250
 30
0.0000
  0
VERTEX
  8
16
 10
13.9700
 20
48.2600
 30
0.0000
 42
1.0000
  0
SEQEND
  8
0
  0
POLYLINE
  8
16
 66
1
 10
0.0000
 20
0.0000
 30
0.0000
 40
0.0000
 41
0.0000
 70
1
  0
VERTEX
  8
16
 10
15.2400
 20
45.0850
 30
0.0000
  0
VERTEX
  8
16
 10
15.2400
 20
48.2600
 30
0.0000
 42
1.0000
  0
VERTEX
  8
16
 10
13.9700
 20
48.2600
 30
0.0000
  0
VERTEX
  8
16
 10
13.9700
 20
45.0850
 30
0.0000
 42
1.0000
  0
SEQEND
  8
0
  0
POLYLINE
  8
16
 66
1
 10
0.0000
 20
0.0000
 30
0.0000
 40
0.0000
 41
0.0000
 70
1
  0
VERTEX
  8
16
 10
15.2400
 20
33.0200
 30
0.0000
  0
VERTEX
  8
16
 10
15.2400
 20
45.0850
 30
0.0000
 42
1.0000
  0
VERTEX
  8
16
 10
13.9700
 20
45.0850
 30
0.0000
  0
VERTEX
  8
16
 10
13.9700
 20
33.0200
 30
0.0000
 42
1.0000
  0
SEQEND
  8
0
  0
POLYLINE
  8
16
 66
1
 10
0.0000
 20
0.0000
 30
0.0000
 40
0.0000
 41
0.0000
 70
1
  0
VERTEX
  8
16
 10
15.2400
 20
29.8450
 30
0.0000
  0
VERTEX
  8
16
 10
15.2400
 20
33.0200
 30
0.0000
 42
1.0000
  0
VERTEX
  8
16
 10
13.9700
 20
33.0200
 30
0.0000
  0
VERTEX
  8
16
 10
13.9700
 20
29.8450
 30
0.0000
 42
1.0000
  0
SEQEND
  8
0
  0
POLYLINE
  8
16
 66
1
 10
0.0000
 20
0.0000
 30
0.0000
 40
0.0000
 41
0.0000
 70
1
  0
VERTEX
  8
16
 10
15.2400
 20
17.7800
 30
0.0000
  0
VERTEX
  8
16
 10
15.2400
 20
29.8450
 30
0.0000
 42
1.0000
  0
VERTEX
  8
16
 10
13.9700
 20
29.8450
 30
0.0000
  0
VERTEX
  8
16
 10
13.9700
 20
17.7800
 30
0.0000
 42
1.0000
  0
SEQEND
  8
0
  0
POLYLINE
  8
16
 66
1
 10
0.0000
 20
0.0000
 30
0.0000
 40
0.0000
 41
0.0000
 70
1
  0
VERTEX
  8
16
 10
13.9700
 20
17.7800
 30
0.0000
  0
VERTEX
  8
16
 10
13.9700
 20
15.8750
 30
0.0000
 42
1.0000
  0
VERTEX
  8
16
 10
15.2400
 20
15.8750
 30
0.0000
  0
VERTEX
  8
16
 10
15.2400
 20
17.7800
 30
0.0000
 42
1.0000
  0
SEQEND
  8
0
  0
POLYLINE
  8
16
 66
1
 10
0.0000
 20
0.0000
 30
0.0000
 40
0.0000
 41
0.0000
 70
1
  0
VERTEX
  8
16
 10
15.2400
 20
60.3250
 30
0.0000
  0
VERTEX
  8
16
 10
15.2400
 20
62.2300
 30
0.0000
 42
1.0000
  0
VERTEX
  8
16
 10
13.9700
 20
62.2300
 30
0.0000
  0
VERTEX
  8
16
 10
13.9700
 20
60.3250
 30
0.0000
 42
1.0000
  0
SEQEND
  8
0
  0
POLYLINE
  8
16
 66
1
 10
0.0000
 20
0.0000
 30
0.0000
 40
0.0000
 41
0.0000
 70
1
  0
VERTEX
  8
16
 10
15.0540
 20
61.7810
 30
0.0000
  0
VERTEX
  8
16
 10
16.3240
 20
63.0510
 30
0.0000
 42
1.0000
  0
VERTEX
  8
16
 10
15.4260
 20
63.9490
 30
0.0000
  0
VERTEX
  8
16
 10
14.1560
 20
62.6790
 30
0.0000
 42
1.0000
  0
SEQEND
  8
0
  0
POLYLINE
  8
16
 66
1
 10
0.0000
 20
0.0000
 30
0.0000
 40
0.0000
 41
0.0000
 70
1
  0
VERTEX
  8
16
 10
15.8750
 20
62.8650
 30
0.0000
  0
VERTEX
  8
16
 10
17.4400
 20
62.8650
 30
0.0000
 42
1.0000
  0
VERTEX
  8
16
 10
17.4400
 20
64.1350
 30
0.0000
  0
VERTEX
  8
16
 10
15.8750
 20
64.1350
 30
0.0000
 42
1.0000
  0
SEQEND
  8
0
  0
POLYLINE
  8
16
 66
1
 10
0.0000
 20
0.0000
 30
0.0000
 40
0.0000
 41
0.0000
 70
1
  0
VERTEX
  8
16
 10
17.8890
 20
63.0510
 30
0.0000
  0
VERTEX
  8
16
 10
18.2290
 20
63.3910
 30
0.0000
 42
1.0000
  0
VERTEX
  8
16
 10
17.3310
 20
64.2890
 30
0.0000
  0
VERTEX
  8
16
 10
16.9910
 20
63.9490
 30
0.0000
 42
1.0000
  0
SEQEND
  8
0
  0
POLYLINE
  8
16
 66
1
 10
0.0000
 20
0.0000
 30
0.0000
 40
0.0000
 41
0.0000
 70
1
  0
VERTEX
  8
16
 10
17.7800
 20
60.9750
 30
0.0000
  0
VERTEX
  8
16
 10
14.6200
 20
60.9750
 30
0.0000
 42
1.0000
  0
VERTEX
  8
16
 10
14.6200
 20
59.7050
 30
0.0000
  0
VERTEX
  8
16
 10
17.7800
 20
59.7050
 30
0.0000
 42
1.0000
  0
SEQEND
  8
0
  0
POLYLINE
  8
16
 66
1
 10
0.0000
 20
0.0000
 30
0.0000
 40
0.0000
 41
0.0000
 70
1
  0
VERTEX
  8
16
 10
14.1710
 20
60.7890
 30
0.0000
  0
VERTEX
  8
16
 10
14.1560
 20
60.7740
 30
0.0000
 42
1.0000
  0
VERTEX
  8
16
 10
15.0540
 20
59.8760
 30
0.0000
  0
VERTEX
  8
16
 10
15.0690
 20
59.8910
 30
0.0000
 42
1.0000
  0
SEQEND
  8
0
  0
POLYLINE
  8
16
 66
1
 10
0.0000
 20
0.0000
 30
0.0000
 40
0.0000
 41
0.0000
 70
1
  0
VERTEX
  8
16
 10
17.7800
 20
49.2350
 30
0.0000
  0
VERTEX
  8
16
 10
14.9450
 20
49.2350
 30
0.0000
 42
1.0000
  0
VERTEX
  8
16
 10
14.9450
 20
47.9650
 30
0.0000
  0
VERTEX
  8
16
 10
17.7800
 20
47.9650
 30
0.0000
 42
1.0000
  0
SEQEND
  8
0
  0
POLYLINE
  8
16
 66
1
 10
0.0000
 20
0.0000
 30
0.0000
 40
0.0000
 41
0.0000
 70
1
  0
VERTEX
  8
16
 10
14.4960
 20
49.0490
 30
0.0000
  0
VERTEX
  8
16
 10
14.1560
 20
48.7090
 30
0.0000
 42
1.0000
  0
VERTEX
  8
16
 10
15.0540
 20
47.8110
 30
0.0000
  0
VERTEX
  8
16
 10
15.3940
 20
48.1510
 30
0.0000
 42
1.0000
  0
SEQEND
  8
0
  0
POLYLINE
  8
16
 66
1
 10
0.0000
 20
0.0000
 30
0.0000
 40
0.0000
 41
0.0000
 70
1
  0
VERTEX
  8
16
 10
17.7800
 20
45.7350
 30
0.0000
  0
VERTEX
  8
16
 10
14.6200
 20
45.7350
 30
0.0000
 42
1.0000
  0
VERTEX
  8
16
 10
14.6200
 20
44.4650
 30
0.0000
  0
VERTEX
  8
16
 10
17.7800
 20
44.4650
 30
0.0000
 42
1.0000
  0
SEQEND
  8
0
  0
POLYLINE
  8
16
 66
1
 10
0.0000
 20
0.0000
 30
0.0000
 40
0.0000
 41
0.0000
 70
1
  0
VERTEX
  8
16
 10
14.1710
 20
45.5490
 30
0.0000
  0
VERTEX
  8
16
 10
14.1560
 20
45.5340
 30
0.0000
 42
1.0000
  0
VERTEX
  8
16
 10
15.0540
 20
44.6360
 30
0.0000
  0
VERTEX
  8
16
 10
15.0690
 20
44.6510
 30
0.0000
 42
1.0000
  0
SEQEND
  8
0
  0
POLYLINE
  8
16
 66
1
 10
0.0000
 20
0.0000
 30
0.0000
 40
0.0000
 41
0.0000
 70
1
  0
VERTEX
  8
16
 10
17.7800
 20
33.9950
 30
0.0000
  0
VERTEX
  8
16
 10
14.9450
 20
33.9950
 30
0.0000
 42
1.0000
  0
VERTEX
  8
16
 10
14.9450
 20
32.7250
 30
0.0000
  0
VERTEX
  8
16
 10
17.7800
 20
32.7250
 30
0.0000
 42
1.0000
  0
SEQEND
  8
0
  0
POLYLINE
  8
16
 66
1
 10
0.0000
 20
0.0000
 30
0.0000
 40
0.0000
 41
0.0000
 70
1
  0
VERTEX
  8
16
 10
14.4960
 20
33.8090
 30
0.0000
  0
VERTEX
  8
16
 10
14.1560
 20
33.4690
 30
0.0000
 42
1.0000
  0
VERTEX
  8
16
 10
15.0540
 20
32.5710
 30
0.0000
  0
VERTEX
  8
16
 10
15.3940
 20
32.9110
 30
0.0000
 42
1.0000
  0
SEQEND
  8
0
  0
POLYLINE
  8
16
 66
1
 10
0.0000
 20
0.0000
 30
0.0000
 40
0.0000
 41
0.0000
 70
1
  0
VERTEX
  8
16
 10
17.7800
 20
30.4950
 30
0.0000
  0
VERTEX
  8
16
 10
14.6200
 20
30.4950
 30
0.0000
 42
1.0000
  0
VERTEX
  8
16
 10
14.6200
 20
29.2250
 30
0.0000
  0
VERTEX
  8
16
 10
17.7800
 20
29.2250
 30
0.0000
 42
1.0000
  0
SEQEND
  8
0
  0
POLYLINE
  8
16
 66
1
 10
0.0000
 20
0.0000
 30
0.0000
 40
0.0000
 41
0.0000
 70
1
  0
VERTEX
  8
16
 10
14.1710
 20
30.3090
 30
0.0000
  0
VERTEX
  8
16
 10
14.1560
 20
30.2940
 30
0.0000
 42
1.0000
  0
VERTEX
  8
16
 10
15.0540
 20
29.3960
 30
0.0000
  0
VERTEX
  8
16
 10
15.0690
 20
29.4110
 30
0.0000
 42
1.0000
  0
SEQEND
  8
0
  0
POLYLINE
  8
16
 66
1
 10
0.0000
 20
0.0000
 30
0.0000
 40
0.0000
 41
0.0000
 70
1
  0
VERTEX
  8
16
 10
17.7800
 20
18.7550
 30
0.0000
  0
VERTEX
  8
16
 10
14.9450
 20
18.7550
 30
0.0000
 42
1.0000
  0
VERTEX
  8
16
 10
14.9450
 20
17.4850
 30
0.0000
  0
VERTEX
  8
16
 10
17.7800
 20
17.4850
 30
0.0000
 42
1.0000
  0
SEQEND
  8
0
  0
POLYLINE
  8
16
 66
1
 10
0.0000
 20
0.0000
 30
0.0000
 40
0.0000
 41
0.0000
 70
1
  0
VERTEX
  8
16
 10
14.4960
 20
18.5690
 30
0.0000
  0
VERTEX
  8
16
 10
14.1560
 20
18.2290
 30
0.0000
 42
1.0000
  0
VERTEX
  8
16
 10
15.0540
 20
17.3310
 30
0.0000
  0
VERTEX
  8
16
 10
15.3940
 20
17.6710
 30
0.0000
 42
1.0000
  0
SEQEND
  8
0
  0
POLYLINE
  8
16
 66
1
 10
0.0000
 20
0.0000
 30
0.0000
 40
0.0000
 41
0.0000
 70
1
  0
VERTEX
  8
16
 10
59.6900
 20
14.1478
 30
0.0000
  0
VERTEX
  8
16
 10
63.0428
 20
14.1478
 30
0.0000
 42
1.0000
  0
VERTEX
  8
16
 10
63.0428
 20
15.4178
 30
0.0000
  0
VERTEX
  8
16
 10
59.6900
 20
15.4178
 30
0.0000
 42
1.0000
  0
SEQEND
  8
0
  0
POLYLINE
  8
16
 66
1
 10
0.0000
 20
0.0000
 30
0.0000
 40
0.0000
 41
0.0000
 70
1
  0
VERTEX
  8
16
 10
63.4918
 20
14.3338
 30
0.0000
  0
VERTEX
  8
16
 10
64.5840
 20
15.4260
 30
0.0000
 42
1.0000
  0
VERTEX
  8
16
 10
63.6860
 20
16.3240
 30
0.0000
  0
VERTEX
  8
16
 10
62.5938
 20
15.2318
 30
0.0000
 42
1.0000
  0
SEQEND
  8
0
  0
POLYLINE
  8
16
 66
1
 10
0.0000
 20
0.0000
 30
0.0000
 40
0.0000
 41
0.0000
 70
1
  0
VERTEX
  8
16
 10
64.7700
 20
48.2600
 30
0.0000
  0
VERTEX
  8
16
 10
64.7700
 20
60.3250
 30
0.0000
 42
1.0000
  0
VERTEX
  8
16
 10
63.5000
 20
60.3250
 30
0.0000
  0
VERTEX
  8
16
 10
63.5000
 20
48.2600
 30
0.0000
 42
1.0000
  0
SEQEND
  8
0
  0
POLYLINE
  8
16
 66
1
 10
0.0000
 20
0.0000
 30
0.0000
 40
0.0000
 41
0.0000
 70
1
  0
VERTEX
  8
16
 10
64.7700
 20
37.4650
 30
0.0000
  0
VERTEX
  8
16
 10
64.7700
 20
48.2600
 30
0.0000
 42
1.0000
  0
VERTEX
  8
16
 10
63.5000
 20
48.2600
 30
0.0000
  0
VERTEX
  8
16
 10
63.5000
 20
37.4650
 30
0.0000
 42
1.0000
  0
SEQEND
  8
0
  0
POLYLINE
  8
16
 66
1
 10
0.0000
 20
0.0000
 30
0.0000
 40
0.0000
 41
0.0000
 70
1
  0
VERTEX
  8
16
 10
64.7700
 20
26.0350
 30
0.0000
  0
VERTEX
  8
16
 10
64.7700
 20
37.4650
 30
0.0000
 42
1.0000
  0
VERTEX
  8
16
 10
63.5000
 20
37.4650
 30
0.0000
  0
VERTEX
  8
16
 10
63.5000
 20
26.0350
 30
0.0000
 42
1.0000
  0
SEQEND
  8
0
  0
POLYLINE
  8
16
 66
1
 10
0.0000
 20
0.0000
 30
0.0000
 40
0.0000
 41
0.0000
 70
1
  0
VERTEX
  8
16
 10
63.5000
 20
26.0350
 30
0.0000
  0
VERTEX
  8
16
 10
63.5000
 20
15.8750
 30
0.0000
 42
1.0000
  0
VERTEX
  8
16
 10
64.7700
 20
15.8750
 30
0.0000
  0
VERTEX
  8
16
 10
64.7700
 20
26.0350
 30
0.0000
 42
1.0000
  0
SEQEND
  8
0
  0
POLYLINE
  8
16
 66
1
 10
0.0000
 20
0.0000
 30
0.0000
 40
0.0000
 41
0.0000
 70
1
  0
VERTEX
  8
16
 10
64.7700
 20
60.3250
 30
0.0000
  0
VERTEX
  8
16
 10
64.7700
 20
70.4850
 30
0.0000
 42
1.0000
  0
VERTEX
  8
16
 10
63.5000
 20
70.4850
 30
0.0000
  0
VERTEX
  8
16
 10
63.5000
 20
60.3250
 30
0.0000
 42
1.0000
  0
SEQEND
  8
0
  0
POLYLINE
  8
16
 66
1
 10
0.0000
 20
0.0000
 30
0.0000
 40
0.0000
 41
0.0000
 70
1
  0
VERTEX
  8
16
 10
64.5840
 20
70.9340
 30
0.0000
  0
VERTEX
  8
16
 10
63.3140
 20
72.2040
 30
0.0000
 42
1.0000
  0
VERTEX
  8
16
 10
62.4160
 20
71.3060
 30
0.0000
  0
VERTEX
  8
16
 10
63.6860
 20
70.0360
 30
0.0000
 42
1.0000
  0
SEQEND
  8
0
  0
POLYLINE
  8
16
 66
1
 10
0.0000
 20
0.0000
 30
0.0000
 40
0.0000
 41
0.0000
 70
1
  0
VERTEX
  8
16
 10
60.3168
 20
72.2040
 30
0.0000
  0
VERTEX
  8
16
 10
60.1390
 20
72.3818
 30
0.0000
 42
1.0000
  0
VERTEX
  8
16
 10
59.2410
 20
71.4838
 30
0.0000
  0
VERTEX
  8
16
 10
59.4188
 20
71.3060
 30
0.0000
 42
1.0000
  0
SEQEND
  8
0
  0
POLYLINE
  8
16
 66
1
 10
0.0000
 20
0.0000
 30
0.0000
 40
0.0000
 41
0.0000
 70
1
  0
VERTEX
  8
16
 10
62.8650
 20
72.3900
 30
0.0000
  0
VERTEX
  8
16
 10
59.8678
 20
72.3900
 30
0.0000
 42
1.0000
  0
VERTEX
  8
16
 10
59.8678
 20
71.1200
 30
0.0000
  0
VERTEX
  8
16
 10
62.8650
 20
71.1200
 30
0.0000
 42
1.0000
  0
SEQEND
  8
0
  0
POLYLINE
  8
16
 66
1
 10
0.0000
 20
0.0000
 30
0.0000
 40
0.0000
 41
0.0000
 70
1
  0
VERTEX
  8
16
 10
59.6900
 20
59.8678
 30
0.0000
  0
VERTEX
  8
16
 10
63.9572
 20
59.8678
 30
0.0000
 42
1.0000
  0
VERTEX
  8
16
 10
63.9572
 20
61.1378
 30
0.0000
  0
VERTEX
  8
16
 10
59.6900
 20
61.1378
 30
0.0000
 42
1.0000
  0
SEQEND
  8
0
  0
POLYLINE
  8
16
 66
1
 10
0.0000
 20
0.0000
 30
0.0000
 40
0.0000
 41
0.0000
 70
1
  0
VERTEX
  8
16
 10
63.5082
 20
60.0538
 30
0.0000
  0
VERTEX
  8
16
 10
63.6860
 20
59.8760
 30
0.0000
 42
1.0000
  0
VERTEX
  8
16
 10
64.5840
 20
60.7740
 30
0.0000
  0
VERTEX
  8
16
 10
64.4062
 20
60.9518
 30
0.0000
 42
1.0000
  0
SEQEND
  8
0
  0
POLYLINE
  8
16
 66
1
 10
0.0000
 20
0.0000
 30
0.0000
 40
0.0000
 41
0.0000
 70
1
  0
VERTEX
  8
16
 10
59.6900
 20
48.4378
 30
0.0000
  0
VERTEX
  8
16
 10
63.3222
 20
48.4378
 30
0.0000
 42
1.0000
  0
VERTEX
  8
16
 10
63.3222
 20
49.7078
 30
0.0000
  0
VERTEX
  8
16
 10
59.6900
 20
49.7078
 30
0.0000
 42
1.0000
  0
SEQEND
  8
0
  0
POLYLINE
  8
16
 66
1
 10
0.0000
 20
0.0000
 30
0.0000
 40
0.0000
 41
0.0000
 70
1
  0
VERTEX
  8
16
 10
62.8732
 20
48.6238
 30
0.0000
  0
VERTEX
  8
16
 10
63.6860
 20
47.8110
 30
0.0000
 42
1.0000
  0
VERTEX
  8
16
 10
64.5840
 20
48.7090
 30
0.0000
  0
VERTEX
  8
16
 10
63.7712
 20
49.5218
 30
0.0000
 42
1.0000
  0
SEQEND
  8
0
  0
POLYLINE
  8
16
 66
1
 10
0.0000
 20
0.0000
 30
0.0000
 40
0.0000
 41
0.0000
 70
1
  0
VERTEX
  8
16
 10
59.6900
 20
37.0078
 30
0.0000
  0
VERTEX
  8
16
 10
63.9572
 20
37.0078
 30
0.0000
 42
1.0000
  0
VERTEX
  8
16
 10
63.9572
 20
38.2778
 30
0.0000
  0
VERTEX
  8
16
 10
59.6900
 20
38.2778
 30
0.0000
 42
1.0000
  0
SEQEND
  8
0
  0
POLYLINE
  8
16
 66
1
 10
0.0000
 20
0.0000
 30
0.0000
 40
0.0000
 41
0.0000
 70
1
  0
VERTEX
  8
16
 10
63.5082
 20
37.1938
 30
0.0000
  0
VERTEX
  8
16
 10
63.6860
 20
37.0160
 30
0.0000
 42
1.0000
  0
VERTEX
  8
16
 10
64.5840
 20
37.9140
 30
0.0000
  0
VERTEX
  8
16
 10
64.4062
 20
38.0918
 30
0.0000
 42
1.0000
  0
SEQEND
  8
0
  0
POLYLINE
  8
16
 66
1
 10
0.0000
 20
0.0000
 30
0.0000
 40
0.0000
 41
0.0000
 70
1
  0
VERTEX
  8
16
 10
59.6900
 20
25.5778
 30
0.0000
  0
VERTEX
  8
16
 10
63.9572
 20
25.5778
 30
0.0000
 42
1.0000
  0
VERTEX
  8
16
 10
63.9572
 20
26.8478
 30
0.0000
  0
VERTEX
  8
16
 10
59.6900
 20
26.8478
 30
0.0000
 42
1.0000
  0
SEQEND
  8
0
  0
POLYLINE
  8
16
 66
1
 10
0.0000
 20
0.0000
 30
0.0000
 40
0.0000
 41
0.0000
 70
1
  0
VERTEX
  8
16
 10
63.5082
 20
25.7638
 30
0.0000
  0
VERTEX
  8
16
 10
63.6860
 20
25.5860
 30
0.0000
 42
1.0000
  0
VERTEX
  8
16
 10
64.5840
 20
26.4840
 30
0.0000
  0
VERTEX
  8
16
 10
64.4062
 20
26.6618
 30
0.0000
 42
1.0000
  0
SEQEND
  8
0
  0
POLYLINE
  8
16
 66
1
 10
0.0000
 20
0.0000
 30
0.0000
 40
0.0000
 41
0.0000
 70
1
  0
VERTEX
  8
16
 10
45.7200
 20
62.8650
 30
0.0000
  0
VERTEX
  8
16
 10
46.7721
 20
62.8650
 30
0.0000
 42
1.0000
  0
VERTEX
  8
16
 10
46.7721
 20
64.1350
 30
0.0000
  0
VERTEX
  8
16
 10
45.7200
 20
64.1350
 30
0.0000
 42
1.0000
  0
SEQEND
  8
0
  0
POLYLINE
  8
16
 66
1
 10
0.0000
 20
0.0000
 30
0.0000
 40
0.0000
 41
0.0000
 70
1
  0
VERTEX
  8
16
 10
47.2211
 20
63.0510
 30
0.0000
  0
VERTEX
  8
16
 10
48.7090
 20
64.5389
 30
0.0000
 42
1.0000
  0
VERTEX
  8
16
 10
47.8110
 20
65.4369
 30
0.0000
  0
VERTEX
  8
16
 10
46.3231
 20
63.9490
 30
0.0000
 42
1.0000
  0
SEQEND
  8
0
  0
POLYLINE
  8
16
 66
1
 10
0.0000
 20
0.0000
 30
0.0000
 40
0.0000
 41
0.0000
 70
1
  0
VERTEX
  8
16
 10
48.7090
 20
68.1310
 30
0.0000
  0
VERTEX
  8
16
 10
51.8840
 20
71.3060
 30
0.0000
 42
1.0000
  0
VERTEX
  8
16
 10
50.9860
 20
72.2040
 30
0.0000
  0
VERTEX
  8
16
 10
47.8110
 20
69.0290
 30
0.0000
 42
1.0000
  0
SEQEND
  8
0
  0
POLYLINE
  8
16
 66
1
 10
0.0000
 20
0.0000
 30
0.0000
 40
0.0000
 41
0.0000
 70
1
  0
VERTEX
  8
16
 10
48.8950
 20
64.9879
 30
0.0000
  0
VERTEX
  8
16
 10
48.8950
 20
68.5800
 30
0.0000
 42
1.0000
  0
VERTEX
  8
16
 10
47.6250
 20
68.5800
 30
0.0000
  0
VERTEX
  8
16
 10
47.6250
 20
64.9879
 30
0.0000
 42
1.0000
  0
SEQEND
  8
0
  0
POLYLINE
  8
16
 66
1
 10
0.0000
 20
0.0000
 30
0.0000
 40
0.0000
 41
0.0000
 70
1
  0
VERTEX
  8
16
 10
51.4350
 20
71.1200
 30
0.0000
  0
VERTEX
  8
16
 10
59.8678
 20
71.1200
 30
0.0000
 42
1.0000
  0
VERTEX
  8
16
 10
59.8678
 20
72.3900
 30
0.0000
  0
VERTEX
  8
16
 10
51.4350
 20
72.3900
 30
0.0000
 42
1.0000
  0
SEQEND
  8
0
  0
POLYLINE
  8
16
 66
1
 10
0.0000
 20
0.0000
 30
0.0000
 40
0.0000
 41
0.0000
 70
1
  0
VERTEX
  8
16
 10
18.4150
 20
63.8400
 30
0.0000
  0
VERTEX
  8
16
 10
18.4150
 20
68.4022
 30
0.0000
 42
1.0000
  0
VERTEX
  8
16
 10
17.1450
 20
68.4022
 30
0.0000
  0
VERTEX
  8
16
 10
17.1450
 20
63.8400
 30
0.0000
 42
1.0000
  0
SEQEND
  8
0
  0
POLYLINE
  8
16
 66
1
 10
0.0000
 20
0.0000
 30
0.0000
 40
0.0000
 41
0.0000
 70
1
  0
VERTEX
  8
16
 10
18.2290
 20
68.8512
 30
0.0000
  0
VERTEX
  8
16
 10
16.7812
 20
70.2990
 30
0.0000
 42
1.0000
  0
VERTEX
  8
16
 10
15.8832
 20
69.4010
 30
0.0000
  0
VERTEX
  8
16
 10
17.3310
 20
67.9532
 30
0.0000
 42
1.0000
  0
SEQEND
  8
0
  0
POLYLINE
  8
16
 66
1
 10
0.0000
 20
0.0000
 30
0.0000
 40
0.0000
 41
0.0000
 70
1
  0
VERTEX
  8
16
 10
16.9672
 20
69.8500
 30
0.0000
  0
VERTEX
  8
16
 10
16.9672
 20
71.5772
 30
0.0000
 42
1.0000
  0
VERTEX
  8
16
 10
15.6972
 20
71.5772
 30
0.0000
  0
VERTEX
  8
16
 10
15.6972
 20
69.8500
 30
0.0000
 42
1.0000
  0
SEQEND
  8
0
  0
POLYLINE
  8
16
 66
1
 10
0.0000
 20
0.0000
 30
0.0000
 40
0.0000
 41
0.0000
 70
1
  0
VERTEX
  8
16
 10
16.7812
 20
71.1282
 30
0.0000
  0
VERTEX
  8
16
 10
17.5940
 20
71.9410
 30
0.0000
 42
1.0000
  0
VERTEX
  8
16
 10
16.6960
 20
72.8390
 30
0.0000
  0
VERTEX
  8
16
 10
15.8832
 20
72.0262
 30
0.0000
 42
1.0000
  0
SEQEND
  8
0
  0
POLYLINE
  8
16
 66
1
 10
0.0000
 20
0.0000
 30
0.0000
 40
0.0000
 41
0.0000
 70
1
  0
VERTEX
  8
16
 10
17.1450
 20
71.7550
 30
0.0000
  0
VERTEX
  8
16
 10
44.4500
 20
71.7550
 30
0.0000
 42
1.0000
  0
VERTEX
  8
16
 10
44.4500
 20
73.0250
 30
0.0000
  0
VERTEX
  8
16
 10
17.1450
 20
73.0250
 30
0.0000
 42
1.0000
  0
SEQEND
  8
0
  0
POLYLINE
  8
16
 66
1
 10
0.0000
 20
0.0000
 30
0.0000
 40
0.0000
 41
0.0000
 70
1
  0
VERTEX
  8
16
 10
44.0010
 20
71.9410
 30
0.0000
  0
VERTEX
  8
16
 10
47.8110
 20
68.1310
 30
0.0000
 42
1.0000
  0
VERTEX
  8
16
 10
48.7090
 20
69.0290
 30
0.0000
  0
VERTEX
  8
16
 10
44.8990
 20
72.8390
 30
0.0000
 42
1.0000
  0
SEQEND
  8
0
  0
POLYLINE
  8
16
 66
1
 10
0.0000
 20
0.0000
 30
0.0000
 40
0.0000
 41
0.0000
 70
1
  0
VERTEX
  8
16
 10
30.4800
 20
55.7530
 30
0.0000
  0
VERTEX
  8
16
 10
36.1950
 20
55.7530
 30
0.0000
 42
1.0000
  0
VERTEX
  8
16
 10
36.1950
 20
56.0070
 30
0.0000
  0
VERTEX
  8
16
 10
30.4800
 20
56.0070
 30
0.0000
 42
1.0000
  0
SEQEND
  8
0
  0
POLYLINE
  8
16
 66
1
 10
0.0000
 20
0.0000
 30
0.0000
 40
0.0000
 41
0.0000
 70
1
  0
VERTEX
  8
16
 10
36.2848
 20
55.7902
 30
0.0000
  0
VERTEX
  8
16
 10
41.3648
 20
60.8702
 30
0.0000
 42
1.0000
  0
VERTEX
  8
16
 10
41.1852
 20
61.0498
 30
0.0000
  0
VERTEX
  8
16
 10
36.1052
 20
55.9698
 30
0.0000
 42
1.0000
  0
SEQEND
  8
0
  0
POLYLINE
  8
16
 66
1
 10
0.0000
 20
0.0000
 30
0.0000
 40
0.0000
 41
0.0000
 70
1
  0
VERTEX
  8
16
 10
41.2750
 20
60.8330
 30
0.0000
  0
VERTEX
  8
16
 10
45.7200
 20
60.8330
 30
0.0000
 42
1.0000
  0
VERTEX
  8
16
 10
45.7200
 20
61.0870
 30
0.0000
  0
VERTEX
  8
16
 10
41.2750
 20
61.0870
 30
0.0000
 42
1.0000
  0
SEQEND
  8
0
  0
POLYLINE
  8
16
 66
1
 10
0.0000
 20
0.0000
 30
0.0000
 40
0.0000
 41
0.0000
 70
1
  0
VERTEX
  8
16
 10
45.7200
 20
60.8330
 30
0.0000
  0
VERTEX
  8
16
 10
46.9900
 20
60.8330
 30
0.0000
 42
1.0000
  0
VERTEX
  8
16
 10
46.9900
 20
61.0870
 30
0.0000
  0
VERTEX
  8
16
 10
45.7200
 20
61.0870
 30
0.0000
 42
1.0000
  0
SEQEND
  8
0
  0
POLYLINE
  8
16
 66
1
 10
0.0000
 20
0.0000
 30
0.0000
 40
0.0000
 41
0.0000
 70
1
  0
VERTEX
  8
16
 10
47.0798
 20
60.8702
 30
0.0000
  0
VERTEX
  8
16
 10
54.6998
 20
68.4902
 30
0.0000
 42
1.0000
  0
VERTEX
  8
16
 10
54.5202
 20
68.6698
 30
0.0000
  0
VERTEX
  8
16
 10
46.9002
 20
61.0498
 30
0.0000
 42
1.0000
  0
SEQEND
  8
0
  0
POLYLINE
  8
16
 66
1
 10
0.0000
 20
0.0000
 30
0.0000
 40
0.0000
 41
0.0000
 70
1
  0
VERTEX
  8
16
 10
54.6100
 20
68.4530
 30
0.0000
  0
VERTEX
  8
16
 10
59.3650
 20
68.4530
 30
0.0000
 42
1.0000
  0
VERTEX
  8
16
 10
59.3650
 20
68.7070
 30
0.0000
  0
VERTEX
  8
16
 10
54.6100
 20
68.7070
 30
0.0000
 42
1.0000
  0
SEQEND
  8
0
  0
POLYLINE
  8
16
 66
1
 10
0.0000
 20
0.0000
 30
0.0000
 40
0.0000
 41
0.0000
 70
1
  0
VERTEX
  8
16
 10
59.2752
 20
68.4902
 30
0.0000
  0
VERTEX
  8
16
 10
59.6002
 20
68.1652
 30
0.0000
 42
1.0000
  0
VERTEX
  8
16
 10
59.7798
 20
68.3448
 30
0.0000
  0
VERTEX
  8
16
 10
59.4548
 20
68.6698
 30
0.0000
 42
1.0000
  0
SEQEND
  8
0
  0
POLYLINE
  8
16
 66
1
 10
0.0000
 20
0.0000
 30
0.0000
 40
0.0000
 41
0.0000
 70
1
  0
VERTEX
  8
16
 10
59.6900
 20
68.1280
 30
0.0000
  0
VERTEX
  8
16
 10
60.6500
 20
68.1280
 30
0.0000
 42
1.0000
  0
VERTEX
  8
16
 10
60.6500
 20
68.3820
 30
0.0000
  0
VERTEX
  8
16
 10
59.6900
 20
68.3820
 30
0.0000
 42
1.0000
  0
SEQEND
  8
0
  0
POLYLINE
  8
16
 66
1
 10
0.0000
 20
0.0000
 30
0.0000
 40
0.0000
 41
0.0000
 70
1
  0
VERTEX
  8
16
 10
60.5602
 20
68.1652
 30
0.0000
  0
VERTEX
  8
16
 10
62.1402
 20
66.5852
 30
0.0000
 42
1.0000
  0
VERTEX
  8
16
 10
62.3198
 20
66.7648
 30
0.0000
  0
VERTEX
  8
16
 10
60.7398
 20
68.3448
 30
0.0000
 42
1.0000
  0
SEQEND
  8
0
  0
POLYLINE
  8
16
 66
1
 10
0.0000
 20
0.0000
 30
0.0000
 40
0.0000
 41
0.0000
 70
1
  0
VERTEX
  8
16
 10
62.1030
 20
66.6750
 30
0.0000
  0
VERTEX
  8
16
 10
62.1030
 20
63.5000
 30
0.0000
 42
1.0000
  0
VERTEX
  8
16
 10
62.3570
 20
63.5000
 30
0.0000
  0
VERTEX
  8
16
 10
62.3570
 20
66.6750
 30
0.0000
 42
1.0000
  0
SEQEND
  8
0
  0
POLYLINE
  8
16
 66
1
 10
0.0000
 20
0.0000
 30
0.0000
 40
0.0000
 41
0.0000
 70
1
  0
VERTEX
  8
16
 10
62.1402
 20
63.5898
 30
0.0000
  0
VERTEX
  8
16
 10
60.8702
 20
62.3198
 30
0.0000
 42
1.0000
  0
VERTEX
  8
16
 10
61.0498
 20
62.1402
 30
0.0000
  0
VERTEX
  8
16
 10
62.3198
 20
63.4102
 30
0.0000
 42
1.0000
  0
SEQEND
  8
0
  0
POLYLINE
  8
16
 66
1
 10
0.0000
 20
0.0000
 30
0.0000
 40
0.0000
 41
0.0000
 70
1
  0
VERTEX
  8
16
 10
60.9600
 20
62.3570
 30
0.0000
  0
VERTEX
  8
16
 10
57.7850
 20
62.3570
 30
0.0000
 42
1.0000
  0
VERTEX
  8
16
 10
57.7850
 20
62.1030
 30
0.0000
  0
VERTEX
  8
16
 10
60.9600
 20
62.1030
 30
0.0000
 42
1.0000
  0
SEQEND
  8
0
  0
POLYLINE
  8
16
 66
1
 10
0.0000
 20
0.0000
 30
0.0000
 40
0.0000
 41
0.0000
 70
1
  0
VERTEX
  8
16
 10
57.6952
 20
62.3198
 30
0.0000
  0
VERTEX
  8
16
 10
55.1552
 20
59.7798
 30
0.0000
 42
1.0000
  0
VERTEX
  8
16
 10
55.3348
 20
59.6002
 30
0.0000
  0
VERTEX
  8
16
 10
57.8748
 20
62.1402
 30
0.0000
 42
1.0000
  0
SEQEND
  8
0
  0
POLYLINE
  8
16
 66
1
 10
0.0000
 20
0.0000
 30
0.0000
 40
0.0000
 41
0.0000
 70
1
  0
VERTEX
  8
16
 10
55.1180
 20
59.6900
 30
0.0000
  0
VERTEX
  8
16
 10
55.1180
 20
58.4200
 30
0.0000
 42
1.0000
  0
VERTEX
  8
16
 10
55.3720
 20
58.4200
 30
0.0000
  0
VERTEX
  8
16
 10
55.3720
 20
59.6900
 30
0.0000
 42
1.0000
  0
SEQEND
  8
0
  0
POLYLINE
  8
16
 66
1
 10
0.0000
 20
0.0000
 30
0.0000
 40
0.0000
 41
0.0000
 70
1
  0
VERTEX
  8
16
 10
55.1552
 20
58.3302
 30
0.0000
  0
VERTEX
  8
16
 10
56.4252
 20
57.0602
 30
0.0000
 42
1.0000
  0
VERTEX
  8
16
 10
56.6048
 20
57.2398
 30
0.0000
  0
VERTEX
  8
16
 10
55.3348
 20
58.5098
 30
0.0000
 42
1.0000
  0
SEQEND
  8
0
  0
POLYLINE
  8
16
 66
1
 10
0.0000
 20
0.0000
 30
0.0000
 40
0.0000
 41
0.0000
 70
1
  0
VERTEX
  8
16
 10
56.5150
 20
57.0230
 30
0.0000
  0
VERTEX
  8
16
 10
59.3650
 20
57.0230
 30
0.0000
 42
1.0000
  0
VERTEX
  8
16
 10
59.3650
 20
57.2770
 30
0.0000
  0
VERTEX
  8
16
 10
56.5150
 20
57.2770
 30
0.0000
 42
1.0000
  0
SEQEND
  8
0
  0
POLYLINE
  8
16
 66
1
 10
0.0000
 20
0.0000
 30
0.0000
 40
0.0000
 41
0.0000
 70
1
  0
VERTEX
  8
16
 10
59.2752
 20
57.0602
 30
0.0000
  0
VERTEX
  8
16
 10
59.6002
 20
56.7352
 30
0.0000
 42
1.0000
  0
VERTEX
  8
16
 10
59.7798
 20
56.9148
 30
0.0000
  0
VERTEX
  8
16
 10
59.4548
 20
57.2398
 30
0.0000
 42
1.0000
  0
SEQEND
  8
0
  0
POLYLINE
  8
16
 66
1
 10
0.0000
 20
0.0000
 30
0.0000
 40
0.0000
 41
0.0000
 70
1
  0
VERTEX
  8
16
 10
59.6900
 20
56.6980
 30
0.0000
  0
VERTEX
  8
16
 10
60.6500
 20
56.6980
 30
0.0000
 42
1.0000
  0
VERTEX
  8
16
 10
60.6500
 20
56.9520
 30
0.0000
  0
VERTEX
  8
16
 10
59.6900
 20
56.9520
 30
0.0000
 42
1.0000
  0
SEQEND
  8
0
  0
POLYLINE
  8
16
 66
1
 10
0.0000
 20
0.0000
 30
0.0000
 40
0.0000
 41
0.0000
 70
1
  0
VERTEX
  8
16
 10
60.5602
 20
56.7352
 30
0.0000
  0
VERTEX
  8
16
 10
62.1402
 20
55.1552
 30
0.0000
 42
1.0000
  0
VERTEX
  8
16
 10
62.3198
 20
55.3348
 30
0.0000
  0
VERTEX
  8
16
 10
60.7398
 20
56.9148
 30
0.0000
 42
1.0000
  0
SEQEND
  8
0
  0
POLYLINE
  8
16
 66
1
 10
0.0000
 20
0.0000
 30
0.0000
 40
0.0000
 41
0.0000
 70
1
  0
VERTEX
  8
16
 10
62.1030
 20
55.2450
 30
0.0000
  0
VERTEX
  8
16
 10
62.1030
 20
52.7050
 30
0.0000
 42
1.0000
  0
VERTEX
  8
16
 10
62.3570
 20
52.7050
 30
0.0000
  0
VERTEX
  8
16
 10
62.3570
 20
55.2450
 30
0.0000
 42
1.0000
  0
SEQEND
  8
0
  0
POLYLINE
  8
16
 66
1
 10
0.0000
 20
0.0000
 30
0.0000
 40
0.0000
 41
0.0000
 70
1
  0
VERTEX
  8
16
 10
62.1402
 20
52.7948
 30
0.0000
  0
VERTEX
  8
16
 10
60.8702
 20
51.5248
 30
0.0000
 42
1.0000
  0
VERTEX
  8
16
 10
61.0498
 20
51.3452
 30
0.0000
  0
VERTEX
  8
16
 10
62.3198
 20
52.6152
 30
0.0000
 42
1.0000
  0
SEQEND
  8
0
  0
POLYLINE
  8
16
 66
1
 10
0.0000
 20
0.0000
 30
0.0000
 40
0.0000
 41
0.0000
 70
1
  0
VERTEX
  8
16
 10
60.9600
 20
51.5620
 30
0.0000
  0
VERTEX
  8
16
 10
58.4200
 20
51.5620
 30
0.0000
 42
1.0000
  0
VERTEX
  8
16
 10
58.4200
 20
51.3080
 30
0.0000
  0
VERTEX
  8
16
 10
60.9600
 20
51.3080
 30
0.0000
 42
1.0000
  0
SEQEND
  8
0
  0
POLYLINE
  8
16
 66
1
 10
0.0000
 20
0.0000
 30
0.0000
 40
0.0000
 41
0.0000
 70
1
  0
VERTEX
  8
16
 10
58.3302
 20
51.5248
 30
0.0000
  0
VERTEX
  8
16
 10
56.4252
 20
49.6198
 30
0.0000
 42
1.0000
  0
VERTEX
  8
16
 10
56.6048
 20
49.4402
 30
0.0000
  0
VERTEX
  8
16
 10
58.5098
 20
51.3452
 30
0.0000
 42
1.0000
  0
SEQEND
  8
0
  0
POLYLINE
  8
16
 66
1
 10
0.0000
 20
0.0000
 30
0.0000
 40
0.0000
 41
0.0000
 70
1
  0
VERTEX
  8
16
 10
56.3880
 20
49.5300
 30
0.0000
  0
VERTEX
  8
16
 10
56.3880
 20
46.9900
 30
0.0000
 42
1.0000
  0
VERTEX
  8
16
 10
56.6420
 20
46.9900
 30
0.0000
  0
VERTEX
  8
16
 10
56.6420
 20
49.5300
 30
0.0000
 42
1.0000
  0
SEQEND
  8
0
  0
POLYLINE
  8
16
 66
1
 10
0.0000
 20
0.0000
 30
0.0000
 40
0.0000
 41
0.0000
 70
1
  0
VERTEX
  8
16
 10
56.4252
 20
46.9002
 30
0.0000
  0
VERTEX
  8
16
 10
57.6952
 20
45.6302
 30
0.0000
 42
1.0000
  0
VERTEX
  8
16
 10
57.8748
 20
45.8098
 30
0.0000
  0
VERTEX
  8
16
 10
56.6048
 20
47.0798
 30
0.0000
 42
1.0000
  0
SEQEND
  8
0
  0
POLYLINE
  8
16
 66
1
 10
0.0000
 20
0.0000
 30
0.0000
 40
0.0000
 41
0.0000
 70
1
  0
VERTEX
  8
16
 10
57.7850
 20
45.5930
 30
0.0000
  0
VERTEX
  8
16
 10
59.3650
 20
45.5930
 30
0.0000
 42
1.0000
  0
VERTEX
  8
16
 10
59.3650
 20
45.8470
 30
0.0000
  0
VERTEX
  8
16
 10
57.7850
 20
45.8470
 30
0.0000
 42
1.0000
  0
SEQEND
  8
0
  0
POLYLINE
  8
16
 66
1
 10
0.0000
 20
0.0000
 30
0.0000
 40
0.0000
 41
0.0000
 70
1
  0
VERTEX
  8
16
 10
59.2752
 20
45.6302
 30
0.0000
  0
VERTEX
  8
16
 10
59.6002
 20
45.3052
 30
0.0000
 42
1.0000
  0
VERTEX
  8
16
 10
59.7798
 20
45.4848
 30
0.0000
  0
VERTEX
  8
16
 10
59.4548
 20
45.8098
 30
0.0000
 42
1.0000
  0
SEQEND
  8
0
  0
POLYLINE
  8
16
 66
1
 10
0.0000
 20
0.0000
 30
0.0000
 40
0.0000
 41
0.0000
 70
1
  0
VERTEX
  8
16
 10
59.6900
 20
45.2680
 30
0.0000
  0
VERTEX
  8
16
 10
60.6500
 20
45.2680
 30
0.0000
 42
1.0000
  0
VERTEX
  8
16
 10
60.6500
 20
45.5220
 30
0.0000
  0
VERTEX
  8
16
 10
59.6900
 20
45.5220
 30
0.0000
 42
1.0000
  0
SEQEND
  8
0
  0
POLYLINE
  8
16
 66
1
 10
0.0000
 20
0.0000
 30
0.0000
 40
0.0000
 41
0.0000
 70
1
  0
VERTEX
  8
16
 10
60.5602
 20
45.3052
 30
0.0000
  0
VERTEX
  8
16
 10
61.5052
 20
44.3602
 30
0.0000
 42
1.0000
  0
VERTEX
  8
16
 10
61.6848
 20
44.5398
 30
0.0000
  0
VERTEX
  8
16
 10
60.7398
 20
45.4848
 30
0.0000
 42
1.0000
  0
SEQEND
  8
0
  0
POLYLINE
  8
16
 66
1
 10
0.0000
 20
0.0000
 30
0.0000
 40
0.0000
 41
0.0000
 70
1
  0
VERTEX
  8
16
 10
61.4680
 20
44.4500
 30
0.0000
  0
VERTEX
  8
16
 10
61.4680
 20
40.6400
 30
0.0000
 42
1.0000
  0
VERTEX
  8
16
 10
61.7220
 20
40.6400
 30
0.0000
  0
VERTEX
  8
16
 10
61.7220
 20
44.4500
 30
0.0000
 42
1.0000
  0
SEQEND
  8
0
  0
POLYLINE
  8
16
 66
1
 10
0.0000
 20
0.0000
 30
0.0000
 40
0.0000
 41
0.0000
 70
1
  0
VERTEX
  8
16
 10
61.5052
 20
40.7298
 30
0.0000
  0
VERTEX
  8
16
 10
60.2352
 20
39.4598
 30
0.0000
 42
1.0000
  0
VERTEX
  8
16
 10
60.4148
 20
39.2802
 30
0.0000
  0
VERTEX
  8
16
 10
61.6848
 20
40.5502
 30
0.0000
 42
1.0000
  0
SEQEND
  8
0
  0
POLYLINE
  8
16
 66
1
 10
0.0000
 20
0.0000
 30
0.0000
 40
0.0000
 41
0.0000
 70
1
  0
VERTEX
  8
16
 10
60.3250
 20
39.4970
 30
0.0000
  0
VERTEX
  8
16
 10
58.4200
 20
39.4970
 30
0.0000
 42
1.0000
  0
VERTEX
  8
16
 10
58.4200
 20
39.2430
 30
0.0000
  0
VERTEX
  8
16
 10
60.3250
 20
39.2430
 30
0.0000
 42
1.0000
  0
SEQEND
  8
0
  0
POLYLINE
  8
16
 66
1
 10
0.0000
 20
0.0000
 30
0.0000
 40
0.0000
 41
0.0000
 70
1
  0
VERTEX
  8
16
 10
58.3302
 20
39.4598
 30
0.0000
  0
VERTEX
  8
16
 10
57.0602
 20
38.1898
 30
0.0000
 42
1.0000
  0
VERTEX
  8
16
 10
57.2398
 20
38.0102
 30
0.0000
  0
VERTEX
  8
16
 10
58.5098
 20
39.2802
 30
0.0000
 42
1.0000
  0
SEQEND
  8
0
  0
POLYLINE
  8
16
 66
1
 10
0.0000
 20
0.0000
 30
0.0000
 40
0.0000
 41
0.0000
 70
1
  0
VERTEX
  8
16
 10
57.0230
 20
38.1000
 30
0.0000
  0
VERTEX
  8
16
 10
57.0230
 20
35.5600
 30
0.0000
 42
1.0000
  0
VERTEX
  8
16
 10
57.2770
 20
35.5600
 30
0.0000
  0
VERTEX
  8
16
 10
57.2770
 20
38.1000
 30
0.0000
 42
1.0000
  0
SEQEND
  8
0
  0
POLYLINE
  8
16
 66
1
 10
0.0000
 20
0.0000
 30
0.0000
 40
0.0000
 41
0.0000
 70
1
  0
VERTEX
  8
16
 10
57.0602
 20
35.4702
 30
0.0000
  0
VERTEX
  8
16
 10
58.3302
 20
34.2002
 30
0.0000
 42
1.0000
  0
VERTEX
  8
16
 10
58.5098
 20
34.3798
 30
0.0000
  0
VERTEX
  8
16
 10
57.2398
 20
35.6498
 30
0.0000
 42
1.0000
  0
SEQEND
  8
0
  0
POLYLINE
  8
16
 66
1
 10
0.0000
 20
0.0000
 30
0.0000
 40
0.0000
 41
0.0000
 70
1
  0
VERTEX
  8
16
 10
58.4200
 20
34.1630
 30
0.0000
  0
VERTEX
  8
16
 10
59.3650
 20
34.1630
 30
0.0000
 42
1.0000
  0
VERTEX
  8
16
 10
59.3650
 20
34.4170
 30
0.0000
  0
VERTEX
  8
16
 10
58.4200
 20
34.4170
 30
0.0000
 42
1.0000
  0
SEQEND
  8
0
  0
POLYLINE
  8
16
 66
1
 10
0.0000
 20
0.0000
 30
0.0000
 40
0.0000
 41
0.0000
 70
1
  0
VERTEX
  8
16
 10
59.2752
 20
34.2002
 30
0.0000
  0
VERTEX
  8
16
 10
59.6002
 20
33.8752
 30
0.0000
 42
1.0000
  0
VERTEX
  8
16
 10
59.7798
 20
34.0548
 30
0.0000
  0
VERTEX
  8
16
 10
59.4548
 20
34.3798
 30
0.0000
 42
1.0000
  0
SEQEND
  8
0
  0
POLYLINE
  8
16
 66
1
 10
0.0000
 20
0.0000
 30
0.0000
 40
0.0000
 41
0.0000
 70
1
  0
VERTEX
  8
16
 10
59.6900
 20
33.8380
 30
0.0000
  0
VERTEX
  8
16
 10
60.0150
 20
33.8380
 30
0.0000
 42
1.0000
  0
VERTEX
  8
16
 10
60.0150
 20
34.0920
 30
0.0000
  0
VERTEX
  8
16
 10
59.6900
 20
34.0920
 30
0.0000
 42
1.0000
  0
SEQEND
  8
0
  0
POLYLINE
  8
16
 66
1
 10
0.0000
 20
0.0000
 30
0.0000
 40
0.0000
 41
0.0000
 70
1
  0
VERTEX
  8
16
 10
59.9252
 20
33.8752
 30
0.0000
  0
VERTEX
  8
16
 10
61.5052
 20
32.2952
 30
0.0000
 42
1.0000
  0
VERTEX
  8
16
 10
61.6848
 20
32.4748
 30
0.0000
  0
VERTEX
  8
16
 10
60.1048
 20
34.0548
 30
0.0000
 42
1.0000
  0
SEQEND
  8
0
  0
POLYLINE
  8
16
 66
1
 10
0.0000
 20
0.0000
 30
0.0000
 40
0.0000
 41
0.0000
 70
1
  0
VERTEX
  8
16
 10
61.4680
 20
32.3850
 30
0.0000
  0
VERTEX
  8
16
 10
61.4680
 20
29.2100
 30
0.0000
 42
1.0000
  0
VERTEX
  8
16
 10
61.7220
 20
29.2100
 30
0.0000
  0
VERTEX
  8
16
 10
61.7220
 20
32.3850
 30
0.0000
 42
1.0000
  0
SEQEND
  8
0
  0
POLYLINE
  8
16
 66
1
 10
0.0000
 20
0.0000
 30
0.0000
 40
0.0000
 41
0.0000
 70
1
  0
VERTEX
  8
16
 10
61.5052
 20
29.2998
 30
0.0000
  0
VERTEX
  8
16
 10
60.8702
 20
28.6648
 30
0.0000
 42
1.0000
  0
VERTEX
  8
16
 10
61.0498
 20
28.4852
 30
0.0000
  0
VERTEX
  8
16
 10
61.6848
 20
29.1202
 30
0.0000
 42
1.0000
  0
SEQEND
  8
0
  0
POLYLINE
  8
16
 66
1
 10
0.0000
 20
0.0000
 30
0.0000
 40
0.0000
 41
0.0000
 70
1
  0
VERTEX
  8
16
 10
60.9600
 20
28.7020
 30
0.0000
  0
VERTEX
  8
16
 10
58.4200
 20
28.7020
 30
0.0000
 42
1.0000
  0
VERTEX
  8
16
 10
58.4200
 20
28.4480
 30
0.0000
  0
VERTEX
  8
16
 10
60.9600
 20
28.4480
 30
0.0000
 42
1.0000
  0
SEQEND
  8
0
  0
POLYLINE
  8
16
 66
1
 10
0.0000
 20
0.0000
 30
0.0000
 40
0.0000
 41
0.0000
 70
1
  0
VERTEX
  8
16
 10
58.3302
 20
28.6648
 30
0.0000
  0
VERTEX
  8
16
 10
56.4252
 20
26.7598
 30
0.0000
 42
1.0000
  0
VERTEX
  8
16
 10
56.6048
 20
26.5802
 30
0.0000
  0
VERTEX
  8
16
 10
58.5098
 20
28.4852
 30
0.0000
 42
1.0000
  0
SEQEND
  8
0
  0
POLYLINE
  8
16
 66
1
 10
0.0000
 20
0.0000
 30
0.0000
 40
0.0000
 41
0.0000
 70
1
  0
VERTEX
  8
16
 10
56.3880
 20
26.6700
 30
0.0000
  0
VERTEX
  8
16
 10
56.3880
 20
24.1300
 30
0.0000
 42
1.0000
  0
VERTEX
  8
16
 10
56.6420
 20
24.1300
 30
0.0000
  0
VERTEX
  8
16
 10
56.6420
 20
26.6700
 30
0.0000
 42
1.0000
  0
SEQEND
  8
0
  0
POLYLINE
  8
16
 66
1
 10
0.0000
 20
0.0000
 30
0.0000
 40
0.0000
 41
0.0000
 70
1
  0
VERTEX
  8
16
 10
56.4252
 20
24.0402
 30
0.0000
  0
VERTEX
  8
16
 10
57.6952
 20
22.7702
 30
0.0000
 42
1.0000
  0
VERTEX
  8
16
 10
57.8748
 20
22.9498
 30
0.0000
  0
VERTEX
  8
16
 10
56.6048
 20
24.2198
 30
0.0000
 42
1.0000
  0
SEQEND
  8
0
  0
POLYLINE
  8
16
 66
1
 10
0.0000
 20
0.0000
 30
0.0000
 40
0.0000
 41
0.0000
 70
1
  0
VERTEX
  8
16
 10
57.7850
 20
22.7330
 30
0.0000
  0
VERTEX
  8
16
 10
59.3650
 20
22.7330
 30
0.0000
 42
1.0000
  0
VERTEX
  8
16
 10
59.3650
 20
22.9870
 30
0.0000
  0
VERTEX
  8
16
 10
57.7850
 20
22.9870
 30
0.0000
 42
1.0000
  0
SEQEND
  8
0
  0
POLYLINE
  8
16
 66
1
 10
0.0000
 20
0.0000
 30
0.0000
 40
0.0000
 41
0.0000
 70
1
  0
VERTEX
  8
16
 10
59.2752
 20
22.7702
 30
0.0000
  0
VERTEX
  8
16
 10
59.6002
 20
22.4452
 30
0.0000
 42
1.0000
  0
VERTEX
  8
16
 10
59.7798
 20
22.6248
 30
0.0000
  0
VERTEX
  8
16
 10
59.4548
 20
22.9498
 30
0.0000
 42
1.0000
  0
SEQEND
  8
0
  0
POLYLINE
  8
16
 66
1
 10
0.0000
 20
0.0000
 30
0.0000
 40
0.0000
 41
0.0000
 70
1
  0
VERTEX
  8
16
 10
59.6900
 20
22.4080
 30
0.0000
  0
VERTEX
  8
16
 10
60.6500
 20
22.4080
 30
0.0000
 42
1.0000
  0
VERTEX
  8
16
 10
60.6500
 20
22.6620
 30
0.0000
  0
VERTEX
  8
16
 10
59.6900
 20
22.6620
 30
0.0000
 42
1.0000
  0
SEQEND
  8
0
  0
POLYLINE
  8
16
 66
1
 10
0.0000
 20
0.0000
 30
0.0000
 40
0.0000
 41
0.0000
 70
1
  0
VERTEX
  8
16
 10
60.5602
 20
22.4452
 30
0.0000
  0
VERTEX
  8
16
 10
62.1402
 20
20.8652
 30
0.0000
 42
1.0000
  0
VERTEX
  8
16
 10
62.3198
 20
21.0448
 30
0.0000
  0
VERTEX
  8
16
 10
60.7398
 20
22.6248
 30
0.0000
 42
1.0000
  0
SEQEND
  8
0
  0
POLYLINE
  8
16
 66
1
 10
0.0000
 20
0.0000
 30
0.0000
 40
0.0000
 41
0.0000
 70
1
  0
VERTEX
  8
16
 10
62.1030
 20
20.9550
 30
0.0000
  0
VERTEX
  8
16
 10
62.1030
 20
18.4150
 30
0.0000
 42
1.0000
  0
VERTEX
  8
16
 10
62.3570
 20
18.4150
 30
0.0000
  0
VERTEX
  8
16
 10
62.3570
 20
20.9550
 30
0.0000
 42
1.0000
  0
SEQEND
  8
0
  0
POLYLINE
  8
16
 66
1
 10
0.0000
 20
0.0000
 30
0.0000
 40
0.0000
 41
0.0000
 70
1
  0
VERTEX
  8
16
 10
62.1402
 20
18.5048
 30
0.0000
  0
VERTEX
  8
16
 10
60.8702
 20
17.2348
 30
0.0000
 42
1.0000
  0
VERTEX
  8
16
 10
61.0498
 20
17.0552
 30
0.0000
  0
VERTEX
  8
16
 10
62.3198
 20
18.3252
 30
0.0000
 42
1.0000
  0
SEQEND
  8
0
  0
POLYLINE
  8
16
 66
1
 10
0.0000
 20
0.0000
 30
0.0000
 40
0.0000
 41
0.0000
 70
1
  0
VERTEX
  8
16
 10
60.9600
 20
17.2720
 30
0.0000
  0
VERTEX
  8
16
 10
58.4200
 20
17.2720
 30
0.0000
 42
1.0000
  0
VERTEX
  8
16
 10
58.4200
 20
17.0180
 30
0.0000
  0
VERTEX
  8
16
 10
60.9600
 20
17.0180
 30
0.0000
 42
1.0000
  0
SEQEND
  8
0
  0
POLYLINE
  8
16
 66
1
 10
0.0000
 20
0.0000
 30
0.0000
 40
0.0000
 41
0.0000
 70
1
  0
VERTEX
  8
16
 10
58.3302
 20
17.2348
 30
0.0000
  0
VERTEX
  8
16
 10
56.4252
 20
15.3298
 30
0.0000
 42
1.0000
  0
VERTEX
  8
16
 10
56.6048
 20
15.1502
 30
0.0000
  0
VERTEX
  8
16
 10
58.5098
 20
17.0552
 30
0.0000
 42
1.0000
  0
SEQEND
  8
0
  0
POLYLINE
  8
16
 66
1
 10
0.0000
 20
0.0000
 30
0.0000
 40
0.0000
 41
0.0000
 70
1
  0
VERTEX
  8
16
 10
56.3880
 20
15.2400
 30
0.0000
  0
VERTEX
  8
16
 10
56.3880
 20
12.7000
 30
0.0000
 42
1.0000
  0
VERTEX
  8
16
 10
56.6420
 20
12.7000
 30
0.0000
  0
VERTEX
  8
16
 10
56.6420
 20
15.2400
 30
0.0000
 42
1.0000
  0
SEQEND
  8
0
  0
POLYLINE
  8
16
 66
1
 10
0.0000
 20
0.0000
 30
0.0000
 40
0.0000
 41
0.0000
 70
1
  0
VERTEX
  8
16
 10
56.4252
 20
12.6102
 30
0.0000
  0
VERTEX
  8
16
 10
57.6952
 20
11.3402
 30
0.0000
 42
1.0000
  0
VERTEX
  8
16
 10
57.8748
 20
11.5198
 30
0.0000
  0
VERTEX
  8
16
 10
56.6048
 20
12.7898
 30
0.0000
 42
1.0000
  0
SEQEND
  8
0
  0
POLYLINE
  8
16
 66
1
 10
0.0000
 20
0.0000
 30
0.0000
 40
0.0000
 41
0.0000
 70
1
  0
VERTEX
  8
16
 10
57.7850
 20
11.3030
 30
0.0000
  0
VERTEX
  8
16
 10
59.3650
 20
11.3030
 30
0.0000
 42
1.0000
  0
VERTEX
  8
16
 10
59.3650
 20
11.5570
 30
0.0000
  0
VERTEX
  8
16
 10
57.7850
 20
11.5570
 30
0.0000
 42
1.0000
  0
SEQEND
  8
0
  0
POLYLINE
  8
16
 66
1
 10
0.0000
 20
0.0000
 30
0.0000
 40
0.0000
 41
0.0000
 70
1
  0
VERTEX
  8
16
 10
59.2752
 20
11.3402
 30
0.0000
  0
VERTEX
  8
16
 10
59.6002
 20
11.0152
 30
0.0000
 42
1.0000
  0
VERTEX
  8
16
 10
59.7798
 20
11.1948
 30
0.0000
  0
VERTEX
  8
16
 10
59.4548
 20
11.5198
 30
0.0000
 42
1.0000
  0
SEQEND
  8
0
  0
POLYLINE
  8
16
 66
1
 10
0.0000
 20
0.0000
 30
0.0000
 40
0.0000
 41
0.0000
 70
1
  0
VERTEX
  8
16
 10
20.0608
 20
69.8500
 30
0.0000
  0
VERTEX
  8
16
 10
20.0608
 20
66.1722
 30
0.0000
 42
1.0000
  0
VERTEX
  8
16
 10
20.3148
 20
66.1722
 30
0.0000
  0
VERTEX
  8
16
 10
20.3148
 20
69.8500
 30
0.0000
 42
1.0000
  0
SEQEND
  8
0
  0
POLYLINE
  8
16
 66
1
 10
0.0000
 20
0.0000
 30
0.0000
 40
0.0000
 41
0.0000
 70
1
  0
VERTEX
  8
16
 10
20.0980
 20
66.0824
 30
0.0000
  0
VERTEX
  8
16
 10
30.3902
 20
55.7902
 30
0.0000
 42
1.0000
  0
VERTEX
  8
16
 10
30.5698
 20
55.9698
 30
0.0000
  0
VERTEX
  8
16
 10
20.2776
 20
66.2620
 30
0.0000
 42
1.0000
  0
SEQEND
  8
0
  0
POLYLINE
  8
16
 66
1
 10
0.0000
 20
0.0000
 30
0.0000
 40
0.0000
 41
0.0000
 70
1
  0
VERTEX
  8
16
 10
30.4800
 20
28.5750
 30
0.0000
  0
VERTEX
  8
16
 10
27.9400
 20
28.5750
 30
0.0000
 42
1.0000
  0
VERTEX
  8
16
 10
27.9400
 20
27.3050
 30
0.0000
  0
VERTEX
  8
16
 10
30.4800
 20
27.3050
 30
0.0000
 42
1.0000
  0
SEQEND
  8
0
  0
POLYLINE
  8
16
 66
1
 10
0.0000
 20
0.0000
 30
0.0000
 40
0.0000
 41
0.0000
 70
1
  0
VERTEX
  8
16
 10
26.0350
 20
26.6700
 30
0.0000
  0
VERTEX
  8
16
 10
26.0350
 20
8.8900
 30
0.0000
 42
1.0000
  0
VERTEX
  8
16
 10
27.3050
 20
8.8900
 30
0.0000
  0
VERTEX
  8
16
 10
27.3050
 20
26.6700
 30
0.0000
 42
1.0000
  0
SEQEND
  8
0
  0
POLYLINE
  8
16
 66
1
 10
0.0000
 20
0.0000
 30
0.0000
 40
0.0000
 41
0.0000
 70
1
  0
VERTEX
  8
16
 10
26.2210
 20
9.3390
 30
0.0000
  0
VERTEX
  8
16
 10
24.9510
 20
8.0690
 30
0.0000
 42
1.0000
  0
VERTEX
  8
16
 10
25.8490
 20
7.1710
 30
0.0000
  0
VERTEX
  8
16
 10
27.1190
 20
8.4410
 30
0.0000
 42
1.0000
  0
SEQEND
  8
0
  0
POLYLINE
  8
16
 66
1
 10
0.0000
 20
0.0000
 30
0.0000
 40
0.0000
 41
0.0000
 70
1
  0
VERTEX
  8
16
 10
25.4000
 20
8.2550
 30
0.0000
  0
VERTEX
  8
16
 10
17.7800
 20
8.2550
 30
0.0000
 42
1.0000
  0
VERTEX
  8
16
 10
17.7800
 20
6.9850
 30
0.0000
  0
VERTEX
  8
16
 10
25.4000
 20
6.9850
 30
0.0000
 42
1.0000
  0
SEQEND
  8
0
  0
POLYLINE
  8
16
 66
1
 10
0.0000
 20
0.0000
 30
0.0000
 40
0.0000
 41
0.0000
 70
1
  0
VERTEX
  8
16
 10
27.4910
 20
28.3890
 30
0.0000
  0
VERTEX
  8
16
 10
26.2210
 20
27.1190
 30
0.0000
 42
1.0000
  0
VERTEX
  8
16
 10
27.1190
 20
26.2210
 30
0.0000
  0
VERTEX
  8
16
 10
28.3890
 20
27.4910
 30
0.0000
 42
1.0000
  0
SEQEND
  8
0
  0
POLYLINE
  8
16
 66
1
 10
0.0000
 20
0.0000
 30
0.0000
 40
0.0000
 41
0.0000
 70
1
  0
VERTEX
  8
16
 10
30.4800
 20
31.1150
 30
0.0000
  0
VERTEX
  8
16
 10
27.9400
 20
31.1150
 30
0.0000
 42
1.0000
  0
VERTEX
  8
16
 10
27.9400
 20
29.8450
 30
0.0000
  0
VERTEX
  8
16
 10
30.4800
 20
29.8450
 30
0.0000
 42
1.0000
  0
SEQEND
  8
0
  0
POLYLINE
  8
16
 66
1
 10
0.0000
 20
0.0000
 30
0.0000
 40
0.0000
 41
0.0000
 70
1
  0
VERTEX
  8
16
 10
27.4910
 20
30.9290
 30
0.0000
  0
VERTEX
  8
16
 10
24.3160
 20
27.7540
 30
0.0000
 42
1.0000
  0
VERTEX
  8
16
 10
25.2140
 20
26.8560
 30
0.0000
  0
VERTEX
  8
16
 10
28.3890
 20
30.0310
 30
0.0000
 42
1.0000
  0
SEQEND
  8
0
  0
POLYLINE
  8
16
 66
1
 10
0.0000
 20
0.0000
 30
0.0000
 40
0.0000
 41
0.0000
 70
1
  0
VERTEX
  8
16
 10
24.1300
 20
27.3050
 30
0.0000
  0
VERTEX
  8
16
 10
24.1300
 20
12.0650
 30
0.0000
 42
1.0000
  0
VERTEX
  8
16
 10
25.4000
 20
12.0650
 30
0.0000
  0
VERTEX
  8
16
 10
25.4000
 20
27.3050
 30
0.0000
 42
1.0000
  0
SEQEND
  8
0
  0
POLYLINE
  8
16
 66
1
 10
0.0000
 20
0.0000
 30
0.0000
 40
0.0000
 41
0.0000
 70
1
  0
VERTEX
  8
16
 10
24.3160
 20
12.5140
 30
0.0000
  0
VERTEX
  8
16
 10
23.0460
 20
11.2440
 30
0.0000
 42
1.0000
  0
VERTEX
  8
16
 10
23.9440
 20
10.3460
 30
0.0000
  0
VERTEX
  8
16
 10
25.2140
 20
11.6160
 30
0.0000
 42
1.0000
  0
SEQEND
  8
0
  0
POLYLINE
  8
16
 66
1
 10
0.0000
 20
0.0000
 30
0.0000
 40
0.0000
 41
0.0000
 70
1
  0
VERTEX
  8
16
 10
23.4950
 20
11.4300
 30
0.0000
  0
VERTEX
  8
16
 10
18.7400
 20
11.4300
 30
0.0000
 42
1.0000
  0
VERTEX
  8
16
 10
18.7400
 20
10.1600
 30
0.0000
  0
VERTEX
  8
16
 10
23.4950
 20
10.1600
 30
0.0000
 42
1.0000
  0
SEQEND
  8
0
  0
POLYLINE
  8
16
 66
1
 10
0.0000
 20
0.0000
 30
0.0000
 40
0.0000
 41
0.0000
 70
1
  0
VERTEX
  8
16
 10
18.9436
 20
11.3965
 30
0.0000
  0
VERTEX
  8
16
 10
17.9836
 20
11.7215
 30
0.0000
 42
1.0000
  0
VERTEX
  8
16
 10
17.5764
 20
10.5185
 30
0.0000
  0
VERTEX
  8
16
 10
18.5364
 20
10.1935
 30
0.0000
 42
1.0000
  0
SEQEND
  8
0
  0
POLYLINE
  8
16
 66
1
 10
0.0000
 20
0.0000
 30
0.0000
 40
0.0000
 41
0.0000
 70
1
  0
VERTEX
  8
16
 10
30.4800
 20
33.6550
 30
0.0000
  0
VERTEX
  8
16
 10
27.9400
 20
33.6550
 30
0.0000
 42
1.0000
  0
VERTEX
  8
16
 10
27.9400
 20
32.3850
 30
0.0000
  0
VERTEX
  8
16
 10
30.4800
 20
32.3850
 30
0.0000
 42
1.0000
  0
SEQEND
  8
0
  0
POLYLINE
  8
16
 66
1
 10
0.0000
 20
0.0000
 30
0.0000
 40
0.0000
 41
0.0000
 70
1
  0
VERTEX
  8
16
 10
27.4910
 20
33.4690
 30
0.0000
  0
VERTEX
  8
16
 10
22.4110
 20
28.3890
 30
0.0000
 42
1.0000
  0
VERTEX
  8
16
 10
23.3090
 20
27.4910
 30
0.0000
  0
VERTEX
  8
16
 10
28.3890
 20
32.5710
 30
0.0000
 42
1.0000
  0
SEQEND
  8
0
  0
POLYLINE
  8
16
 66
1
 10
0.0000
 20
0.0000
 30
0.0000
 40
0.0000
 41
0.0000
 70
1
  0
VERTEX
  8
16
 10
22.2250
 20
27.9400
 30
0.0000
  0
VERTEX
  8
16
 10
22.2250
 20
24.1300
 30
0.0000
 42
1.0000
  0
VERTEX
  8
16
 10
23.4950
 20
24.1300
 30
0.0000
  0
VERTEX
  8
16
 10
23.4950
 20
27.9400
 30
0.0000
 42
1.0000
  0
SEQEND
  8
0
  0
POLYLINE
  8
16
 66
1
 10
0.0000
 20
0.0000
 30
0.0000
 40
0.0000
 41
0.0000
 70
1
  0
VERTEX
  8
16
 10
22.4110
 20
24.5790
 30
0.0000
  0
VERTEX
  8
16
 10
21.1410
 20
23.3090
 30
0.0000
 42
1.0000
  0
VERTEX
  8
16
 10
22.0390
 20
22.4110
 30
0.0000
  0
VERTEX
  8
16
 10
23.3090
 20
23.6810
 30
0.0000
 42
1.0000
  0
SEQEND
  8
0
  0
POLYLINE
  8
16
 66
1
 10
0.0000
 20
0.0000
 30
0.0000
 40
0.0000
 41
0.0000
 70
1
  0
VERTEX
  8
16
 10
21.5900
 20
23.4950
 30
0.0000
  0
VERTEX
  8
16
 10
17.7800
 20
23.4950
 30
0.0000
 42
1.0000
  0
VERTEX
  8
16
 10
17.7800
 20
22.2250
 30
0.0000
  0
VERTEX
  8
16
 10
21.5900
 20
22.2250
 30
0.0000
 42
1.0000
  0
SEQEND
  8
0
  0
POLYLINE
  8
16
 66
1
 10
0.0000
 20
0.0000
 30
0.0000
 40
0.0000
 41
0.0000
 70
1
  0
VERTEX
  8
16
 10
17.7800
 20
25.7250
 30
0.0000
  0
VERTEX
  8
16
 10
20.0100
 20
25.7250
 30
0.0000
 42
1.0000
  0
VERTEX
  8
16
 10
20.0100
 20
26.9950
 30
0.0000
  0
VERTEX
  8
16
 10
17.7800
 20
26.9950
 30
0.0000
 42
1.0000
  0
SEQEND
  8
0
  0
POLYLINE
  8
16
 66
1
 10
0.0000
 20
0.0000
 30
0.0000
 40
0.0000
 41
0.0000
 70
1
  0
VERTEX
  8
16
 10
20.4590
 20
25.9110
 30
0.0000
  0
VERTEX
  8
16
 10
21.4040
 20
26.8560
 30
0.0000
 42
1.0000
  0
VERTEX
  8
16
 10
20.5060
 20
27.7540
 30
0.0000
  0
VERTEX
  8
16
 10
19.5610
 20
26.8090
 30
0.0000
 42
1.0000
  0
SEQEND
  8
0
  0
POLYLINE
  8
16
 66
1
 10
0.0000
 20
0.0000
 30
0.0000
 40
0.0000
 41
0.0000
 70
1
  0
VERTEX
  8
16
 10
21.5900
 20
27.3050
 30
0.0000
  0
VERTEX
  8
16
 10
21.5900
 20
28.5750
 30
0.0000
 42
1.0000
  0
VERTEX
  8
16
 10
20.3200
 20
28.5750
 30
0.0000
  0
VERTEX
  8
16
 10
20.3200
 20
27.3050
 30
0.0000
 42
1.0000
  0
SEQEND
  8
0
  0
POLYLINE
  8
16
 66
1
 10
0.0000
 20
0.0000
 30
0.0000
 40
0.0000
 41
0.0000
 70
1
  0
VERTEX
  8
16
 10
21.4040
 20
28.1260
 30
0.0000
  0
VERTEX
  8
16
 10
28.3890
 20
35.1110
 30
0.0000
 42
1.0000
  0
VERTEX
  8
16
 10
27.4910
 20
36.0090
 30
0.0000
  0
VERTEX
  8
16
 10
20.5060
 20
29.0240
 30
0.0000
 42
1.0000
  0
SEQEND
  8
0
  0
POLYLINE
  8
16
 66
1
 10
0.0000
 20
0.0000
 30
0.0000
 40
0.0000
 41
0.0000
 70
1
  0
VERTEX
  8
16
 10
27.9400
 20
34.9250
 30
0.0000
  0
VERTEX
  8
16
 10
30.4800
 20
34.9250
 30
0.0000
 42
1.0000
  0
VERTEX
  8
16
 10
30.4800
 20
36.1950
 30
0.0000
  0
VERTEX
  8
16
 10
27.9400
 20
36.1950
 30
0.0000
 42
1.0000
  0
SEQEND
  8
0
  0
POLYLINE
  8
16
 66
1
 10
0.0000
 20
0.0000
 30
0.0000
 40
0.0000
 41
0.0000
 70
1
  0
VERTEX
  8
16
 10
17.7800
 20
37.4650
 30
0.0000
  0
VERTEX
  8
16
 10
30.4800
 20
37.4650
 30
0.0000
 42
1.0000
  0
VERTEX
  8
16
 10
30.4800
 20
38.7350
 30
0.0000
  0
VERTEX
  8
16
 10
17.7800
 20
38.7350
 30
0.0000
 42
1.0000
  0
SEQEND
  8
0
  0
POLYLINE
  8
16
 66
1
 10
0.0000
 20
0.0000
 30
0.0000
 40
0.0000
 41
0.0000
 70
1
  0
VERTEX
  8
16
 10
17.7800
 20
40.9650
 30
0.0000
  0
VERTEX
  8
16
 10
26.3450
 20
40.9650
 30
0.0000
 42
1.0000
  0
VERTEX
  8
16
 10
26.3450
 20
42.2350
 30
0.0000
  0
VERTEX
  8
16
 10
17.7800
 20
42.2350
 30
0.0000
 42
1.0000
  0
SEQEND
  8
0
  0
POLYLINE
  8
16
 66
1
 10
0.0000
 20
0.0000
 30
0.0000
 40
0.0000
 41
0.0000
 70
1
  0
VERTEX
  8
16
 10
25.8960
 20
41.1510
 30
0.0000
  0
VERTEX
  8
16
 10
26.8560
 20
40.1910
 30
0.0000
 42
1.0000
  0
VERTEX
  8
16
 10
27.7540
 20
41.0890
 30
0.0000
  0
VERTEX
  8
16
 10
26.7940
 20
42.0490
 30
0.0000
 42
1.0000
  0
SEQEND
  8
0
  0
POLYLINE
  8
16
 66
1
 10
0.0000
 20
0.0000
 30
0.0000
 40
0.0000
 41
0.0000
 70
1
  0
VERTEX
  8
16
 10
27.3050
 20
40.0050
 30
0.0000
  0
VERTEX
  8
16
 10
30.4800
 20
40.0050
 30
0.0000
 42
1.0000
  0
VERTEX
  8
16
 10
30.4800
 20
41.2750
 30
0.0000
  0
VERTEX
  8
16
 10
27.3050
 20
41.2750
 30
0.0000
 42
1.0000
  0
SEQEND
  8
0
  0
POLYLINE
  8
16
 66
1
 10
0.0000
 20
0.0000
 30
0.0000
 40
0.0000
 41
0.0000
 70
1
  0
VERTEX
  8
16
 10
17.7800
 20
52.7050
 30
0.0000
  0
VERTEX
  8
16
 10
23.4950
 20
52.7050
 30
0.0000
 42
1.0000
  0
VERTEX
  8
16
 10
23.4950
 20
53.9750
 30
0.0000
  0
VERTEX
  8
16
 10
17.7800
 20
53.9750
 30
0.0000
 42
1.0000
  0
SEQEND
  8
0
  0
POLYLINE
  8
16
 66
1
 10
0.0000
 20
0.0000
 30
0.0000
 40
0.0000
 41
0.0000
 70
1
  0
VERTEX
  8
16
 10
23.0460
 20
52.8910
 30
0.0000
  0
VERTEX
  8
16
 10
24.3160
 20
51.6210
 30
0.0000
 42
1.0000
  0
VERTEX
  8
16
 10
25.2140
 20
52.5190
 30
0.0000
  0
VERTEX
  8
16
 10
23.9440
 20
53.7890
 30
0.0000
 42
1.0000
  0
SEQEND
  8
0
  0
POLYLINE
  8
16
 66
1
 10
0.0000
 20
0.0000
 30
0.0000
 40
0.0000
 41
0.0000
 70
1
  0
VERTEX
  8
16
 10
24.1300
 20
52.0700
 30
0.0000
  0
VERTEX
  8
16
 10
24.1300
 20
46.3550
 30
0.0000
 42
1.0000
  0
VERTEX
  8
16
 10
25.4000
 20
46.3550
 30
0.0000
  0
VERTEX
  8
16
 10
25.4000
 20
52.0700
 30
0.0000
 42
1.0000
  0
SEQEND
  8
0
  0
POLYLINE
  8
16
 66
1
 10
0.0000
 20
0.0000
 30
0.0000
 40
0.0000
 41
0.0000
 70
1
  0
VERTEX
  8
16
 10
27.9400
 20
42.5450
 30
0.0000
  0
VERTEX
  8
16
 10
30.4800
 20
42.5450
 30
0.0000
 42
1.0000
  0
VERTEX
  8
16
 10
30.4800
 20
43.8150
 30
0.0000
  0
VERTEX
  8
16
 10
27.9400
 20
43.8150
 30
0.0000
 42
1.0000
  0
SEQEND
  8
0
  0
POLYLINE
  8
16
 66
1
 10
0.0000
 20
0.0000
 30
0.0000
 40
0.0000
 41
0.0000
 70
1
  0
VERTEX
  8
16
 10
24.3160
 20
45.9060
 30
0.0000
  0
VERTEX
  8
16
 10
27.4910
 20
42.7310
 30
0.0000
 42
1.0000
  0
VERTEX
  8
16
 10
28.3890
 20
43.6290
 30
0.0000
  0
VERTEX
  8
16
 10
25.2140
 20
46.8040
 30
0.0000
 42
1.0000
  0
SEQEND
  8
0
  0
POLYLINE
  8
16
 66
1
 10
0.0000
 20
0.0000
 30
0.0000
 40
0.0000
 41
0.0000
 70
1
  0
VERTEX
  8
16
 10
30.4800
 20
46.3550
 30
0.0000
  0
VERTEX
  8
16
 10
27.9400
 20
46.3550
 30
0.0000
 42
1.0000
  0
VERTEX
  8
16
 10
27.9400
 20
45.0850
 30
0.0000
  0
VERTEX
  8
16
 10
30.4800
 20
45.0850
 30
0.0000
 42
1.0000
  0
SEQEND
  8
0
  0
POLYLINE
  8
16
 66
1
 10
0.0000
 20
0.0000
 30
0.0000
 40
0.0000
 41
0.0000
 70
1
  0
VERTEX
  8
16
 10
28.3890
 20
46.1690
 30
0.0000
  0
VERTEX
  8
16
 10
27.1190
 20
47.4390
 30
0.0000
 42
1.0000
  0
VERTEX
  8
16
 10
26.2210
 20
46.5410
 30
0.0000
  0
VERTEX
  8
16
 10
27.4910
 20
45.2710
 30
0.0000
 42
1.0000
  0
SEQEND
  8
0
  0
POLYLINE
  8
16
 66
1
 10
0.0000
 20
0.0000
 30
0.0000
 40
0.0000
 41
0.0000
 70
1
  0
VERTEX
  8
16
 10
27.3050
 20
46.9900
 30
0.0000
  0
VERTEX
  8
16
 10
27.3050
 20
55.8800
 30
0.0000
 42
1.0000
  0
VERTEX
  8
16
 10
26.0350
 20
55.8800
 30
0.0000
  0
VERTEX
  8
16
 10
26.0350
 20
46.9900
 30
0.0000
 42
1.0000
  0
SEQEND
  8
0
  0
POLYLINE
  8
16
 66
1
 10
0.0000
 20
0.0000
 30
0.0000
 40
0.0000
 41
0.0000
 70
1
  0
VERTEX
  8
16
 10
27.1190
 20
56.3290
 30
0.0000
  0
VERTEX
  8
16
 10
25.8490
 20
57.5990
 30
0.0000
 42
1.0000
  0
VERTEX
  8
16
 10
24.9510
 20
56.7010
 30
0.0000
  0
VERTEX
  8
16
 10
26.2210
 20
55.4310
 30
0.0000
 42
1.0000
  0
SEQEND
  8
0
  0
POLYLINE
  8
16
 66
1
 10
0.0000
 20
0.0000
 30
0.0000
 40
0.0000
 41
0.0000
 70
1
  0
VERTEX
  8
16
 10
25.4000
 20
57.7850
 30
0.0000
  0
VERTEX
  8
16
 10
17.7800
 20
57.7850
 30
0.0000
 42
1.0000
  0
VERTEX
  8
16
 10
17.7800
 20
56.5150
 30
0.0000
  0
VERTEX
  8
16
 10
25.4000
 20
56.5150
 30
0.0000
 42
1.0000
  0
SEQEND
  8
0
  0
POLYLINE
  8
16
 66
1
 10
0.0000
 20
0.0000
 30
0.0000
 40
0.0000
 41
0.0000
 70
1
  0
VERTEX
  8
16
 10
17.1450
 20
57.1500
 30
0.0000
  0
VERTEX
  8
16
 10
17.1450
 20
56.8400
 30
0.0000
 42
1.0000
  0
VERTEX
  8
16
 10
18.4150
 20
56.8400
 30
0.0000
  0
VERTEX
  8
16
 10
18.4150
 20
57.1500
 30
0.0000
 42
1.0000
  0
SEQEND
  8
0
  0
POLYLINE
  8
16
 66
1
 10
0.0000
 20
0.0000
 30
0.0000
 40
0.0000
 41
0.0000
 70
1
  0
VERTEX
  8
16
 10
45.7200
 20
42.5450
 30
0.0000
  0
VERTEX
  8
16
 10
53.3400
 20
42.5450
 30
0.0000
 42
1.0000
  0
VERTEX
  8
16
 10
53.3400
 20
43.8150
 30
0.0000
  0
VERTEX
  8
16
 10
45.7200
 20
43.8150
 30
0.0000
 42
1.0000
  0
SEQEND
  8
0
  0
POLYLINE
  8
16
 66
1
 10
0.0000
 20
0.0000
 30
0.0000
 40
0.0000
 41
0.0000
 70
1
  0
VERTEX
  8
16
 10
52.8910
 20
42.7310
 30
0.0000
  0
VERTEX
  8
16
 10
54.1610
 20
41.4610
 30
0.0000
 42
1.0000
  0
VERTEX
  8
16
 10
55.0590
 20
42.3590
 30
0.0000
  0
VERTEX
  8
16
 10
53.7890
 20
43.6290
 30
0.0000
 42
1.0000
  0
SEQEND
  8
0
  0
POLYLINE
  8
16
 66
1
 10
0.0000
 20
0.0000
 30
0.0000
 40
0.0000
 41
0.0000
 70
1
  0
VERTEX
  8
16
 10
54.6100
 20
41.2750
 30
0.0000
  0
VERTEX
  8
16
 10
59.4972
 20
41.2750
 30
0.0000
 42
1.0000
  0
VERTEX
  8
16
 10
59.4972
 20
42.5450
 30
0.0000
  0
VERTEX
  8
16
 10
54.6100
 20
42.5450
 30
0.0000
 42
1.0000
  0
SEQEND
  8
0
  0
POLYLINE
  8
16
 66
1
 10
0.0000
 20
0.0000
 30
0.0000
 40
0.0000
 41
0.0000
 70
1
  0
VERTEX
  8
16
 10
59.0482
 20
41.4610
 30
0.0000
  0
VERTEX
  8
16
 10
59.2410
 20
41.2682
 30
0.0000
 42
1.0000
  0
VERTEX
  8
16
 10
60.1390
 20
42.1662
 30
0.0000
  0
VERTEX
  8
16
 10
59.9462
 20
42.3590
 30
0.0000
 42
1.0000
  0
SEQEND
  8
0
  0
POLYLINE
  8
16
 66
1
 10
0.0000
 20
0.0000
 30
0.0000
 40
0.0000
 41
0.0000
 70
1
  0
VERTEX
  8
16
 10
45.7200
 20
34.9250
 30
0.0000
  0
VERTEX
  8
16
 10
48.8950
 20
34.9250
 30
0.0000
 42
1.0000
  0
VERTEX
  8
16
 10
48.8950
 20
36.1950
 30
0.0000
  0
VERTEX
  8
16
 10
45.7200
 20
36.1950
 30
0.0000
 42
1.0000
  0
SEQEND
  8
0
  0
POLYLINE
  8
16
 66
1
 10
0.0000
 20
0.0000
 30
0.0000
 40
0.0000
 41
0.0000
 70
1
  0
VERTEX
  8
16
 10
49.5300
 20
34.2900
 30
0.0000
  0
VERTEX
  8
16
 10
49.5300
 20
8.8900
 30
0.0000
 42
1.0000
  0
VERTEX
  8
16
 10
50.8000
 20
8.8900
 30
0.0000
  0
VERTEX
  8
16
 10
50.8000
 20
34.2900
 30
0.0000
 42
1.0000
  0
SEQEND
  8
0
  0
POLYLINE
  8
16
 66
1
 10
0.0000
 20
0.0000
 30
0.0000
 40
0.0000
 41
0.0000
 70
1
  0
VERTEX
  8
16
 10
49.7160
 20
8.4410
 30
0.0000
  0
VERTEX
  8
16
 10
51.6210
 20
6.5360
 30
0.0000
 42
1.0000
  0
VERTEX
  8
16
 10
52.5190
 20
7.4340
 30
0.0000
  0
VERTEX
  8
16
 10
50.6140
 20
9.3390
 30
0.0000
 42
1.0000
  0
SEQEND
  8
0
  0
POLYLINE
  8
16
 66
1
 10
0.0000
 20
0.0000
 30
0.0000
 40
0.0000
 41
0.0000
 70
1
  0
VERTEX
  8
16
 10
52.0700
 20
6.3500
 30
0.0000
  0
VERTEX
  8
16
 10
59.2478
 20
6.3500
 30
0.0000
 42
1.0000
  0
VERTEX
  8
16
 10
59.2478
 20
7.6200
 30
0.0000
  0
VERTEX
  8
16
 10
52.0700
 20
7.6200
 30
0.0000
 42
1.0000
  0
SEQEND
  8
0
  0
POLYLINE
  8
16
 66
1
 10
0.0000
 20
0.0000
 30
0.0000
 40
0.0000
 41
0.0000
 70
1
  0
VERTEX
  8
16
 10
59.6968
 20
6.5360
 30
0.0000
  0
VERTEX
  8
16
 10
60.1390
 20
6.9782
 30
0.0000
 42
1.0000
  0
VERTEX
  8
16
 10
59.2410
 20
7.8762
 30
0.0000
  0
VERTEX
  8
16
 10
58.7988
 20
7.4340
 30
0.0000
 42
1.0000
  0
SEQEND
  8
0
  0
POLYLINE
  8
16
 66
1
 10
0.0000
 20
0.0000
 30
0.0000
 40
0.0000
 41
0.0000
 70
1
  0
VERTEX
  8
16
 10
48.4460
 20
35.1110
 30
0.0000
  0
VERTEX
  8
16
 10
49.7160
 20
33.8410
 30
0.0000
 42
1.0000
  0
VERTEX
  8
16
 10
50.6140
 20
34.7390
 30
0.0000
  0
VERTEX
  8
16
 10
49.3440
 20
36.0090
 30
0.0000
 42
1.0000
  0
SEQEND
  8
0
  0
POLYLINE
  8
16
 66
1
 10
0.0000
 20
0.0000
 30
0.0000
 40
0.0000
 41
0.0000
 70
1
  0
VERTEX
  8
16
 10
45.7200
 20
37.4650
 30
0.0000
  0
VERTEX
  8
16
 10
50.1650
 20
37.4650
 30
0.0000
 42
1.0000
  0
VERTEX
  8
16
 10
50.1650
 20
38.7350
 30
0.0000
  0
VERTEX
  8
16
 10
45.7200
 20
38.7350
 30
0.0000
 42
1.0000
  0
SEQEND
  8
0
  0
POLYLINE
  8
16
 66
1
 10
0.0000
 20
0.0000
 30
0.0000
 40
0.0000
 41
0.0000
 70
1
  0
VERTEX
  8
16
 10
49.7160
 20
37.6510
 30
0.0000
  0
VERTEX
  8
16
 10
52.8910
 20
34.4760
 30
0.0000
 42
1.0000
  0
VERTEX
  8
16
 10
53.7890
 20
35.3740
 30
0.0000
  0
VERTEX
  8
16
 10
50.6140
 20
38.5490
 30
0.0000
 42
1.0000
  0
SEQEND
  8
0
  0
POLYLINE
  8
16
 66
1
 10
0.0000
 20
0.0000
 30
0.0000
 40
0.0000
 41
0.0000
 70
1
  0
VERTEX
  8
16
 10
52.7050
 20
34.9250
 30
0.0000
  0
VERTEX
  8
16
 10
52.7050
 20
20.3200
 30
0.0000
 42
1.0000
  0
VERTEX
  8
16
 10
53.9750
 20
20.3200
 30
0.0000
  0
VERTEX
  8
16
 10
53.9750
 20
34.9250
 30
0.0000
 42
1.0000
  0
SEQEND
  8
0
  0
POLYLINE
  8
16
 66
1
 10
0.0000
 20
0.0000
 30
0.0000
 40
0.0000
 41
0.0000
 70
1
  0
VERTEX
  8
16
 10
52.8910
 20
19.8710
 30
0.0000
  0
VERTEX
  8
16
 10
54.7960
 20
17.9660
 30
0.0000
 42
1.0000
  0
VERTEX
  8
16
 10
55.6940
 20
18.8640
 30
0.0000
  0
VERTEX
  8
16
 10
53.7890
 20
20.7690
 30
0.0000
 42
1.0000
  0
SEQEND
  8
0
  0
POLYLINE
  8
16
 66
1
 10
0.0000
 20
0.0000
 30
0.0000
 40
0.0000
 41
0.0000
 70
1
  0
VERTEX
  8
16
 10
55.2450
 20
17.7800
 30
0.0000
  0
VERTEX
  8
16
 10
59.2478
 20
17.7800
 30
0.0000
 42
1.0000
  0
VERTEX
  8
16
 10
59.2478
 20
19.0500
 30
0.0000
  0
VERTEX
  8
16
 10
55.2450
 20
19.0500
 30
0.0000
 42
1.0000
  0
SEQEND
  8
0
  0
POLYLINE
  8
16
 66
1
 10
0.0000
 20
0.0000
 30
0.0000
 40
0.0000
 41
0.0000
 70
1
  0
VERTEX
  8
16
 10
59.6968
 20
17.9660
 30
0.0000
  0
VERTEX
  8
16
 10
60.1390
 20
18.4082
 30
0.0000
 42
1.0000
  0
VERTEX
  8
16
 10
59.2410
 20
19.3062
 30
0.0000
  0
VERTEX
  8
16
 10
58.7988
 20
18.8640
 30
0.0000
 42
1.0000
  0
SEQEND
  8
0
  0
POLYLINE
  8
16
 66
1
 10
0.0000
 20
0.0000
 30
0.0000
 40
0.0000
 41
0.0000
 70
1
  0
VERTEX
  8
16
 10
45.7200
 20
40.0050
 30
0.0000
  0
VERTEX
  8
16
 10
51.4350
 20
40.0050
 30
0.0000
 42
1.0000
  0
VERTEX
  8
16
 10
51.4350
 20
41.2750
 30
0.0000
  0
VERTEX
  8
16
 10
45.7200
 20
41.2750
 30
0.0000
 42
1.0000
  0
SEQEND
  8
0
  0
POLYLINE
  8
16
 66
1
 10
0.0000
 20
0.0000
 30
0.0000
 40
0.0000
 41
0.0000
 70
1
  0
VERTEX
  8
16
 10
50.9860
 20
40.1910
 30
0.0000
  0
VERTEX
  8
16
 10
55.4310
 20
35.7460
 30
0.0000
 42
1.0000
  0
VERTEX
  8
16
 10
56.3290
 20
36.6440
 30
0.0000
  0
VERTEX
  8
16
 10
51.8840
 20
41.0890
 30
0.0000
 42
1.0000
  0
SEQEND
  8
0
  0
POLYLINE
  8
16
 66
1
 10
0.0000
 20
0.0000
 30
0.0000
 40
0.0000
 41
0.0000
 70
1
  0
VERTEX
  8
16
 10
55.2450
 20
36.1950
 30
0.0000
  0
VERTEX
  8
16
 10
55.2450
 20
31.7500
 30
0.0000
 42
1.0000
  0
VERTEX
  8
16
 10
56.5150
 20
31.7500
 30
0.0000
  0
VERTEX
  8
16
 10
56.5150
 20
36.1950
 30
0.0000
 42
1.0000
  0
SEQEND
  8
0
  0
POLYLINE
  8
16
 66
1
 10
0.0000
 20
0.0000
 30
0.0000
 40
0.0000
 41
0.0000
 70
1
  0
VERTEX
  8
16
 10
55.4310
 20
31.3010
 30
0.0000
  0
VERTEX
  8
16
 10
56.7010
 20
30.0310
 30
0.0000
 42
1.0000
  0
VERTEX
  8
16
 10
57.5990
 20
30.9290
 30
0.0000
  0
VERTEX
  8
16
 10
56.3290
 20
32.1990
 30
0.0000
 42
1.0000
  0
SEQEND
  8
0
  0
POLYLINE
  8
16
 66
1
 10
0.0000
 20
0.0000
 30
0.0000
 40
0.0000
 41
0.0000
 70
1
  0
VERTEX
  8
16
 10
57.1500
 20
29.8450
 30
0.0000
  0
VERTEX
  8
16
 10
59.4972
 20
29.8450
 30
0.0000
 42
1.0000
  0
VERTEX
  8
16
 10
59.4972
 20
31.1150
 30
0.0000
  0
VERTEX
  8
16
 10
57.1500
 20
31.1150
 30
0.0000
 42
1.0000
  0
SEQEND
  8
0
  0
POLYLINE
  8
16
 66
1
 10
0.0000
 20
0.0000
 30
0.0000
 40
0.0000
 41
0.0000
 70
1
  0
VERTEX
  8
16
 10
59.0482
 20
30.0310
 30
0.0000
  0
VERTEX
  8
16
 10
59.2410
 20
29.8382
 30
0.0000
 42
1.0000
  0
VERTEX
  8
16
 10
60.1390
 20
30.7362
 30
0.0000
  0
VERTEX
  8
16
 10
59.9462
 20
30.9290
 30
0.0000
 42
1.0000
  0
SEQEND
  8
0
  0
POLYLINE
  8
16
 66
1
 10
0.0000
 20
0.0000
 30
0.0000
 40
0.0000
 41
0.0000
 70
1
  0
VERTEX
  8
16
 10
45.7200
 20
45.0850
 30
0.0000
  0
VERTEX
  8
16
 10
50.1650
 20
45.0850
 30
0.0000
 42
1.0000
  0
VERTEX
  8
16
 10
50.1650
 20
46.3550
 30
0.0000
  0
VERTEX
  8
16
 10
45.7200
 20
46.3550
 30
0.0000
 42
1.0000
  0
SEQEND
  8
0
  0
POLYLINE
  8
16
 66
1
 10
0.0000
 20
0.0000
 30
0.0000
 40
0.0000
 41
0.0000
 70
1
  0
VERTEX
  8
16
 10
50.6140
 20
45.2710
 30
0.0000
  0
VERTEX
  8
16
 10
53.1540
 20
47.8110
 30
0.0000
 42
1.0000
  0
VERTEX
  8
16
 10
52.2560
 20
48.7090
 30
0.0000
  0
VERTEX
  8
16
 10
49.7160
 20
46.1690
 30
0.0000
 42
1.0000
  0
SEQEND
  8
0
  0
POLYLINE
  8
16
 66
1
 10
0.0000
 20
0.0000
 30
0.0000
 40
0.0000
 41
0.0000
 70
1
  0
VERTEX
  8
16
 10
53.3400
 20
48.2600
 30
0.0000
  0
VERTEX
  8
16
 10
53.3400
 20
51.4350
 30
0.0000
 42
1.0000
  0
VERTEX
  8
16
 10
52.0700
 20
51.4350
 30
0.0000
  0
VERTEX
  8
16
 10
52.0700
 20
48.2600
 30
0.0000
 42
1.0000
  0
SEQEND
  8
0
  0
POLYLINE
  8
16
 66
1
 10
0.0000
 20
0.0000
 30
0.0000
 40
0.0000
 41
0.0000
 70
1
  0
VERTEX
  8
16
 10
53.1540
 20
50.9860
 30
0.0000
  0
VERTEX
  8
16
 10
55.0590
 20
52.8910
 30
0.0000
 42
1.0000
  0
VERTEX
  8
16
 10
54.1610
 20
53.7890
 30
0.0000
  0
VERTEX
  8
16
 10
52.2560
 20
51.8840
 30
0.0000
 42
1.0000
  0
SEQEND
  8
0
  0
POLYLINE
  8
16
 66
1
 10
0.0000
 20
0.0000
 30
0.0000
 40
0.0000
 41
0.0000
 70
1
  0
VERTEX
  8
16
 10
54.6100
 20
52.7050
 30
0.0000
  0
VERTEX
  8
16
 10
59.4972
 20
52.7050
 30
0.0000
 42
1.0000
  0
VERTEX
  8
16
 10
59.4972
 20
53.9750
 30
0.0000
  0
VERTEX
  8
16
 10
54.6100
 20
53.9750
 30
0.0000
 42
1.0000
  0
SEQEND
  8
0
  0
POLYLINE
  8
16
 66
1
 10
0.0000
 20
0.0000
 30
0.0000
 40
0.0000
 41
0.0000
 70
1
  0
VERTEX
  8
16
 10
59.0482
 20
52.8910
 30
0.0000
  0
VERTEX
  8
16
 10
59.2410
 20
52.6982
 30
0.0000
 42
1.0000
  0
VERTEX
  8
16
 10
60.1390
 20
53.5962
 30
0.0000
  0
VERTEX
  8
16
 10
59.9462
 20
53.7890
 30
0.0000
 42
1.0000
  0
SEQEND
  8
0
  0
POLYLINE
  8
16
 66
1
 10
0.0000
 20
0.0000
 30
0.0000
 40
0.0000
 41
0.0000
 70
1
  0
VERTEX
  8
16
 10
45.7200
 20
47.6250
 30
0.0000
  0
VERTEX
  8
16
 10
48.8950
 20
47.6250
 30
0.0000
 42
1.0000
  0
VERTEX
  8
16
 10
48.8950
 20
48.8950
 30
0.0000
  0
VERTEX
  8
16
 10
45.7200
 20
48.8950
 30
0.0000
 42
1.0000
  0
SEQEND
  8
0
  0
POLYLINE
  8
16
 66
1
 10
0.0000
 20
0.0000
 30
0.0000
 40
0.0000
 41
0.0000
 70
1
  0
VERTEX
  8
16
 10
49.3440
 20
47.8110
 30
0.0000
  0
VERTEX
  8
16
 10
50.6140
 20
49.0810
 30
0.0000
 42
1.0000
  0
VERTEX
  8
16
 10
49.7160
 20
49.9790
 30
0.0000
  0
VERTEX
  8
16
 10
48.4460
 20
48.7090
 30
0.0000
 42
1.0000
  0
SEQEND
  8
0
  0
POLYLINE
  8
16
 66
1
 10
0.0000
 20
0.0000
 30
0.0000
 40
0.0000
 41
0.0000
 70
1
  0
VERTEX
  8
16
 10
50.8000
 20
49.5300
 30
0.0000
  0
VERTEX
  8
16
 10
50.8000
 20
61.5950
 30
0.0000
 42
1.0000
  0
VERTEX
  8
16
 10
49.5300
 20
61.5950
 30
0.0000
  0
VERTEX
  8
16
 10
49.5300
 20
49.5300
 30
0.0000
 42
1.0000
  0
SEQEND
  8
0
  0
POLYLINE
  8
16
 66
1
 10
0.0000
 20
0.0000
 30
0.0000
 40
0.0000
 41
0.0000
 70
1
  0
VERTEX
  8
16
 10
50.6140
 20
61.1460
 30
0.0000
  0
VERTEX
  8
16
 10
53.7890
 20
64.3210
 30
0.0000
 42
1.0000
  0
VERTEX
  8
16
 10
52.8910
 20
65.2190
 30
0.0000
  0
VERTEX
  8
16
 10
49.7160
 20
62.0440
 30
0.0000
 42
1.0000
  0
SEQEND
  8
0
  0
POLYLINE
  8
16
 66
1
 10
0.0000
 20
0.0000
 30
0.0000
 40
0.0000
 41
0.0000
 70
1
  0
VERTEX
  8
16
 10
53.3400
 20
64.1350
 30
0.0000
  0
VERTEX
  8
16
 10
59.4972
 20
64.1350
 30
0.0000
 42
1.0000
  0
VERTEX
  8
16
 10
59.4972
 20
65.4050
 30
0.0000
  0
VERTEX
  8
16
 10
53.3400
 20
65.4050
 30
0.0000
 42
1.0000
  0
SEQEND
  8
0
  0
POLYLINE
  8
16
 66
1
 10
0.0000
 20
0.0000
 30
0.0000
 40
0.0000
 41
0.0000
 70
1
  0
VERTEX
  8
16
 10
59.0482
 20
64.3210
 30
0.0000
  0
VERTEX
  8
16
 10
59.2410
 20
64.1282
 30
0.0000
 42
1.0000
  0
VERTEX
  8
16
 10
60.1390
 20
65.0262
 30
0.0000
  0
VERTEX
  8
16
 10
59.9462
 20
65.2190
 30
0.0000
 42
1.0000
  0
SEQEND
  8
0
  0
ENDSEC
  0
EOF
