  0
SECTION
  2
HEADER
  9
$ACADVER
  1
AC1009
  9
$DWGCODEPAGE
  3
ansi_1252
  9
$INSBASE
 10
0.0
 20
0.0
 30
0.0
  9
$EXTMIN
 10
35.78619123895886
 20
0.0
 30
0.0
  9
$EXTMAX
 10
68.78619123895886
 20
14.91
 30
0.0
  9
$LIMMIN
 10
0.0
 20
0.0
  9
$LIMMAX
 10
12.0
 20
9.0
  9
$ORTHOMODE
 70
     0
  9
$REGENMODE
 70
     1
  9
$FILLMODE
 70
     1
  9
$QTEXTMODE
 70
     0
  9
$MIRRTEXT
 70
     1
  9
$DRAGMODE
 70
     2
  9
$LTSCALE
 40
1.0
  9
$OSMODE
 70
    37
  9
$ATTMODE
 70
     1
  9
$TEXTSIZE
 40
0.2
  9
$TRACEWID
 40
0.05
  9
$TEXTSTYLE
  7
STANDARD
  9
$CLAYER
  8
DEFAULT
  9
$CELTYPE
  6
BYLAYER
  9
$CECOLOR
 62
   256
  9
$DIMSCALE
 40
1.0
  9
$DIMASZ
 40
0.18
  9
$DIMEXO
 40
0.0625
  9
$DIMDLI
 40
0.38
  9
$DIMRND
 40
0.0
  9
$DIMDLE
 40
0.0
  9
$DIMEXE
 40
0.18
  9
$DIMTP
 40
0.0
  9
$DIMTM
 40
0.0
  9
$DIMTXT
 40
0.18
  9
$DIMCEN
 40
0.09
  9
$DIMTSZ
 40
0.0
  9
$DIMTOL
 70
     0
  9
$DIMLIM
 70
     0
  9
$DIMTIH
 70
     1
  9
$DIMTOH
 70
     1
  9
$DIMSE1
 70
     0
  9
$DIMSE2
 70
     0
  9
$DIMTAD
 70
     0
  9
$DIMZIN
 70
     0
  9
$DIMBLK
  1

  9
$DIMASO
 70
     1
  9
$DIMSHO
 70
     1
  9
$DIMPOST
  1

  9
$DIMAPOST
  1

  9
$DIMALT
 70
     0
  9
$DIMALTD
 70
     2
  9
$DIMALTF
 40
25.4
  9
$DIMLFAC
 40
1.0
  9
$DIMTOFL
 70
     0
  9
$DIMTVP
 40
0.0
  9
$DIMTIX
 70
     0
  9
$DIMSOXD
 70
     0
  9
$DIMSAH
 70
     0
  9
$DIMBLK1
  1

  9
$DIMBLK2
  1

  9
$DIMSTYLE
  2
STANDARD
  9
$DIMCLRD
 70
     0
  9
$DIMCLRE
 70
     0
  9
$DIMCLRT
 70
     0
  9
$DIMTFAC
 40
1.0
  9
$DIMGAP
 40
0.09
  9
$LUNITS
 70
     2
  9
$LUPREC
 70
     3
  9
$SKETCHINC
 40
0.1
  9
$FILLETRAD
 40
0.5
  9
$AUNITS
 70
     0
  9
$AUPREC
 70
     0
  9
$MENU
  1
.
  9
$ELEVATION
 40
0.0
  9
$PELEVATION
 40
0.0
  9
$THICKNESS
 40
0.0
  9
$LIMCHECK
 70
     0
  9
$CHAMFERA
 40
0.0
  9
$CHAMFERB
 40
0.0
  9
$SKPOLY
 70
     0
  9
$TDCREATE
 40
2458306.72866103
  9
$TDUPDATE
 40
2458306.728678021
  9
$TDINDWG
 40
0.0000000116
  9
$TDUSRTIMER
 40
0.0000000116
  9
$USRTIMER
 70
     1
  9
$ANGBASE
 50
0.0
  9
$ANGDIR
 70
     0
  9
$PDMODE
 70
     0
  9
$PDSIZE
 40
0.0
  9
$PLINEWID
 40
0.0
  9
$COORDS
 70
     1
  9
$SPLFRAME
 70
     0
  9
$SPLINETYPE
 70
     6
  9
$SPLINESEGS
 70
     8
  9
$ATTDIA
 70
     0
  9
$ATTREQ
 70
     1
  9
$HANDLING
 70
     1
  9
$HANDSEED
  5
FB
  9
$SURFTAB1
 70
     6
  9
$SURFTAB2
 70
     6
  9
$SURFTYPE
 70
     6
  9
$SURFU
 70
     6
  9
$SURFV
 70
     6
  9
$UCSNAME
  2

  9
$UCSORG
 10
0.0
 20
0.0
 30
0.0
  9
$UCSXDIR
 10
1.0
 20
0.0
 30
0.0
  9
$UCSYDIR
 10
0.0
 20
1.0
 30
0.0
  9
$PUCSNAME
  2

  9
$PUCSORG
 10
0.0
 20
0.0
 30
0.0
  9
$PUCSXDIR
 10
1.0
 20
0.0
 30
0.0
  9
$PUCSYDIR
 10
0.0
 20
1.0
 30
0.0
  9
$USERI1
 70
     0
  9
$USERI2
 70
     0
  9
$USERI3
 70
     0
  9
$USERI4
 70
     0
  9
$USERI5
 70
     0
  9
$USERR1
 40
0.0
  9
$USERR2
 40
0.0
  9
$USERR3
 40
0.0
  9
$USERR4
 40
0.0
  9
$USERR5
 40
0.0
  9
$WORLDVIEW
 70
     1
  9
$SHADEDGE
 70
     3
  9
$SHADEDIF
 70
    70
  9
$TILEMODE
 70
     1
  9
$MAXACTVP
 70
    64
  9
$PLIMCHECK
 70
     0
  9
$PEXTMIN
 10
1.000000000000000E+20
 20
1.000000000000000E+20
 30
1.000000000000000E+20
  9
$PEXTMAX
 10
-1.000000000000000E+20
 20
-1.000000000000000E+20
 30
-1.000000000000000E+20
  9
$PLIMMIN
 10
0.0
 20
0.0
  9
$PLIMMAX
 10
12.0
 20
9.0
  9
$UNITMODE
 70
     0
  9
$VISRETAIN
 70
     1
  9
$PLINEGEN
 70
     0
  9
$PSLTSCALE
 70
     1
  0
ENDSEC
  0
SECTION
  2
TABLES
  0
TABLE
  2
VPORT
 70
     1
  0
VPORT
  2
*ACTIVE
 70
     0
 10
0.0
 20
0.0
 11
1.0
 21
1.0
 12
52.28619123895886
 22
7.455
 13
0.0
 23
0.0
 14
0.5
 24
0.5
 15
0.5
 25
0.5
 16
0.0
 26
0.0
 36
1.0
 17
0.0
 27
0.0
 37
0.0
 40
15.2082
 41
2.213279678068411
 42
50.0
 43
0.0
 44
0.0
 50
0.0
 51
0.0
 71
     0
 72
   100
 73
     1
 74
     3
 75
     0
 76
     0
 77
     0
 78
     0
  0
ENDTAB
  0
TABLE
  2
LTYPE
 70
     1
  0
LTYPE
  2
CONTINUOUS
 70
     0
  3
Solid line
 72
    65
 73
     0
 40
0.0
  0
ENDTAB
  0
TABLE
  2
LAYER
 70
     4
  0
LAYER
  2
0
 70
     0
 62
     7
  6
CONTINUOUS
  0
LAYER
  2
DEFAULT
 70
     0
 62
     7
  6
CONTINUOUS
  0
LAYER
  2
20
 70
     0
 62
    30
  6
CONTINUOUS
  0
LAYER
  2
44
 70
     0
 62
     4
  6
CONTINUOUS
  0
ENDTAB
  0
TABLE
  2
STYLE
 70
     1
  0
STYLE
  2
STANDARD
 70
     0
 40
0.0
 41
1.0
 50
0.0
 71
     0
 42
0.2
  3
txt
  4

  0
ENDTAB
  0
TABLE
  2
VIEW
 70
     0
  0
ENDTAB
  0
TABLE
  2
UCS
 70
     0
  0
ENDTAB
  0
TABLE
  2
APPID
 70
     1
  0
APPID
  2
ACAD
 70
     0
  0
ENDTAB
  0
TABLE
  2
DIMSTYLE
 70
     1
  0
DIMSTYLE
  2
STANDARD
 70
     0
  3

  4

  5

  6

  7

 40
1.0
 41
0.18
 42
0.0625
 43
0.38
 44
0.18
 45
0.0
 46
0.0
 47
0.0
 48
0.0
140
0.18
141
0.09
142
0.0
143
25.4
144
1.0
145
0.0
146
1.0
147
0.09
 71
     0
 72
     0
 73
     1
 74
     1
 75
     0
 76
     0
 77
     0
 78
     0
170
     0
171
     2
172
     0
173
     0
174
     0
175
     0
176
     0
177
     0
178
     0
  0
ENDTAB
  0
ENDSEC
  0
SECTION
  2
BLOCKS
  0
BLOCK
  8
0
  2
$MODEL_SPACE
 70
     0
 10
0.0
 20
0.0
 30
0.0
  3
$MODEL_SPACE
  1

  0
ENDBLK
  5
21
  8
0
  0
BLOCK
 67
     1
  8
0
  2
$PAPER_SPACE
 70
     0
 10
0.0
 20
0.0
 30
0.0
  3
$PAPER_SPACE
  1

  0
ENDBLK
  5
1D
 67
     1
  8
0
  0
ENDSEC
  0
SECTION
  2
ENTITIES
  0
POLYLINE
  5
6B
  8
DEFAULT
 66
     1
 10
0.0
 20
0.0
 30
0.0
  0
VERTEX
  5
6C
  8
DEFAULT
 10
57.8085824074513
 20
14.41560883150756
 30
0.0
  0
VERTEX
  5
6D
  8
DEFAULT
 10
58.39721705065963
 20
13.82697418829923
 30
0.0
 42
-3.321040059384781
  0
VERTEX
  5
6E
  8
DEFAULT
 10
57.49921705065965
 20
12.92897418829923
 30
0.0
  0
VERTEX
  5
6F
  8
DEFAULT
 10
57.09319123895887
 20
13.335
 30
0.0
  0
VERTEX
  5
70
  8
DEFAULT
 10
51.26919123895887
 20
13.335
 30
0.0
  0
VERTEX
  5
71
  8
DEFAULT
 10
50.37119123895886
 20
12.437
 30
0.0
  0
VERTEX
  5
72
  8
DEFAULT
 10
50.37119123895886
 20
12.05858829780092
 30
0.0
 42
-0.2515711833716456
  0
VERTEX
  5
73
  8
DEFAULT
 10
50.88619096477747
 20
11.09979980612427
 30
0.0
  0
VERTEX
  5
74
  8
DEFAULT
 10
50.88619123895887
 20
11.09979999999956
 30
0.0
  0
VERTEX
  5
75
  8
DEFAULT
 10
50.88619123895883
 20
9.22020003019017
 30
0.0
 42
-0.2515709225194547
  0
VERTEX
  5
76
  8
DEFAULT
 10
50.37119123895886
 20
8.261411702199077
 30
0.0
  0
VERTEX
  5
77
  8
DEFAULT
 10
50.37119123895887
 20
6.978588297800926
 30
0.0
 42
-0.2515710159538892
  0
VERTEX
  5
78
  8
DEFAULT
 10
50.88619123895886
 20
6.0198
 30
0.0
  0
VERTEX
  5
79
  8
DEFAULT
 10
50.88619123895883
 20
4.140200030189785
 30
0.0
 42
-1.000000026252012
  0
VERTEX
  5
7A
  8
DEFAULT
 10
48.58619123895888
 20
4.140200030189786
 30
0.0
  0
VERTEX
  5
7B
  8
DEFAULT
 10
48.58619123895886
 20
6.0198
 30
0.0
 42
-0.2515710159538977
  0
VERTEX
  5
7C
  8
DEFAULT
 10
49.10119123895885
 20
6.97858829780093
 30
0.0
  0
VERTEX
  5
7D
  8
DEFAULT
 10
49.10119123895886
 20
8.26141170219907
 30
0.0
 42
-0.251570802581939
  0
VERTEX
  5
7E
  8
DEFAULT
 10
48.58619123895889
 20
9.22020003019017
 30
0.0
  0
VERTEX
  5
7F
  8
DEFAULT
 10
48.58619123895885
 20
11.0998
 30
0.0
 42
-0.2515710159538745
  0
VERTEX
  5
80
  8
DEFAULT
 10
49.10119123895887
 20
12.05858829780094
 30
0.0
  0
VERTEX
  5
81
  8
DEFAULT
 10
49.10119123895886
 20
12.7
 30
0.0
 42
-0.2008759065027707
  0
VERTEX
  5
82
  8
DEFAULT
 10
49.29058240746413
 20
13.15239116847882
 30
0.0
  0
VERTEX
  5
83
  8
DEFAULT
 10
50.55719123895886
 20
14.419
 30
0.0
 42
-0.1989026346152384
  0
VERTEX
  5
84
  8
DEFAULT
 10
51.00619123895886
 20
14.60499094475276
 30
0.0
  0
VERTEX
  5
85
  8
DEFAULT
 10
57.37041471992178
 20
14.60484068276627
 30
0.0
  0
VERTEX
  5
86
  8
DEFAULT
 10
57.38475991341363
 20
14.60435702129706
 30
0.0
  0
VERTEX
  5
87
  8
DEFAULT
 10
57.39921724482622
 20
14.60354065536313
 30
0.0
  0
VERTEX
  5
88
  8
DEFAULT
 10
57.41377659324004
 20
14.60238352725119
 30
0.0
  0
VERTEX
  5
89
  8
DEFAULT
 10
57.42842729793989
 20
14.6008779197173
 30
0.0
  0
VERTEX
  5
8A
  8
DEFAULT
 10
57.44315816775737
 20
14.59901649437904
 30
0.0
  0
VERTEX
  5
8B
  8
DEFAULT
 10
57.45795749335278
 20
14.59679233032421
 30
0.0
  0
VERTEX
  5
8C
  8
DEFAULT
 10
57.47281306252984
 20
14.59419896269626
 30
0.0
  0
VERTEX
  5
8D
  8
DEFAULT
 10
57.4877121786572
 20
14.59123042100121
 30
0.0
  0
VERTEX
  5
8E
  8
DEFAULT
 10
57.5026416822476
 20
14.58788126686614
 30
0.0
  0
VERTEX
  5
8F
  8
DEFAULT
 10
57.51758797572094
 20
14.58414663096792
 30
0.0
  0
VERTEX
  5
90
  8
DEFAULT
 10
57.53253705135013
 20
14.58002224884058
 30
0.0
  0
VERTEX
  5
91
  8
DEFAULT
 10
57.5474745223602
 20
14.57550449526319
 30
0.0
  0
VERTEX
  5
92
  8
DEFAULT
 10
57.56238565712096
 20
14.57059041692602
 30
0.0
  0
VERTEX
  5
93
  8
DEFAULT
 10
57.57725541634147
 20
14.5652777630722
 30
0.0
  0
VERTEX
  5
94
  8
DEFAULT
 10
57.59206849314322
 20
14.55956501381506
 30
0.0
  0
VERTEX
  5
95
  8
DEFAULT
 10
57.6068093558555
 20
14.55345140583798
 30
0.0
  0
VERTEX
  5
96
  8
DEFAULT
 10
57.62146229334429
 20
14.54693695519381
 30
0.0
  0
VERTEX
  5
97
  8
DEFAULT
 10
57.63601146265429
 20
14.54002247693596
 30
0.0
  0
VERTEX
  5
98
  8
DEFAULT
 10
57.65044093871222
 20
14.53270960133081
 30
0.0
  0
VERTEX
  5
99
  8
DEFAULT
 10
57.66473476581103
 20
14.52500078642396
 30
0.0
  0
VERTEX
  5
9A
  8
DEFAULT
 10
57.67887701056697
 20
14.5168993267583
 30
0.0
  0
VERTEX
  5
9B
  8
DEFAULT
 10
57.69285181601757
 20
14.50840935807147
 30
0.0
  0
VERTEX
  5
9C
  8
DEFAULT
 10
57.70664345650655
 20
14.49953585783276
 30
0.0
  0
VERTEX
  5
9D
  8
DEFAULT
 10
57.72023639298504
 20
14.49028464151504
 30
0.0
  0
VERTEX
  5
9E
  8
DEFAULT
 10
57.73361532834342
 20
14.4806623545348
 30
0.0
  0
VERTEX
  5
9F
  8
DEFAULT
 10
57.74676526237992
 20
14.47067645983331
 30
0.0
  0
VERTEX
  5
A0
  8
DEFAULT
 10
57.75967154600652
 20
14.4603352211128
 30
0.0
  0
VERTEX
  5
A1
  8
DEFAULT
 10
57.77231993429272
 20
14.44964768178313
 30
0.0
  0
VERTEX
  5
A2
  8
DEFAULT
 10
57.78469663795327
 20
14.43862363971651
 30
0.0
  0
VERTEX
  5
A3
  8
DEFAULT
 10
57.7967883728947
 20
14.42727361794901
 30
0.0
  0
VERTEX
  5
A4
  8
DEFAULT
 10
57.8085824074513
 20
14.41560883150756
 30
0.0
  0
SEQEND
  5
A5
  8
DEFAULT
  0
POLYLINE
  5
A6
  8
DEFAULT
 66
     1
 10
0.0
 20
0.0
 30
0.0
  0
VERTEX
  5
A7
  8
DEFAULT
 10
61.11250484696585
 20
3.384313608006984
 30
0.0
 42
-9.65672357579832
  0
VERTEX
  5
A8
  8
DEFAULT
 10
62.01050484696585
 20
2.486313608006999
 30
0.0
  0
VERTEX
  5
A9
  8
DEFAULT
 10
60.72958240742429
 20
1.205391168518289
 30
0.0
 42
-0.2008759562272034
  0
VERTEX
  5
AA
  8
DEFAULT
 10
60.27719123895886
 20
1.016000000000001
 30
0.0
  0
VERTEX
  5
AB
  8
DEFAULT
 10
53.16519123895886
 20
1.015999999999992
 30
0.0
 42
-0.2008759064793561
  0
VERTEX
  5
AC
  8
DEFAULT
 10
52.71280007046637
 20
1.205391168487653
 30
0.0
 42
0.0000037015593804
  0
VERTEX
  5
AD
  8
DEFAULT
 10
52.27611310910644
 20
1.642071664148033
 30
0.0
 42
-0.0000857712951788
  0
VERTEX
  5
AE
  8
DEFAULT
 10
51.83958240743755
 20
1.205391168505231
 30
0.0
 42
-0.200875956209007
  0
VERTEX
  5
AF
  8
DEFAULT
 10
51.38719123895886
 20
1.016
 30
0.0
  0
VERTEX
  5
B0
  8
DEFAULT
 10
44.27519123895887
 20
1.016000000000003
 30
0.0
 42
-0.2008759562072644
  0
VERTEX
  5
B1
  8
DEFAULT
 10
43.82280007048033
 20
1.205391168504972
 30
0.0
  0
VERTEX
  5
B2
  8
DEFAULT
 10
42.54187763095189
 20
2.486313608006998
 30
0.0
 42
-9.656723575799074
  0
VERTEX
  5
B3
  8
DEFAULT
 10
43.43987763095186
 20
3.384313608006994
 30
0.0
  0
VERTEX
  5
B4
  8
DEFAULT
 10
44.53819123895887
 20
2.286
 30
0.0
  0
VERTEX
  5
B5
  8
DEFAULT
 10
51.12419123895888
 20
2.2859999999999
 30
0.0
 42
-0.0000777725848706
  0
VERTEX
  5
B6
  8
DEFAULT
 10
51.64111490587304
 20
2.802762881959325
 30
0.0
 42
0.0001007966728624
  0
VERTEX
  5
B7
  8
DEFAULT
 10
51.64119123895887
 20
3.181411702199064
 30
0.0
 42
-0.2515708604691261
  0
VERTEX
  5
B8
  8
DEFAULT
 10
51.12619123895889
 20
4.140200030177855
 30
0.0
  0
VERTEX
  5
B9
  8
DEFAULT
 10
51.1261912389589
 20
6.019800193877821
 30
0.0
 42
-0.2515709245598997
  0
VERTEX
  5
BA
  8
DEFAULT
 10
51.64119123895887
 20
6.97858829780093
 30
0.0
  0
VERTEX
  5
BB
  8
DEFAULT
 10
51.64119123895887
 20
8.261411702199073
 30
0.0
 42
-0.2515708604690007
  0
VERTEX
  5
BC
  8
DEFAULT
 10
51.1261912389589
 20
9.220200030190195
 30
0.0
  0
VERTEX
  5
BD
  8
DEFAULT
 10
51.12619123895887
 20
11.09979999992722
 30
0.0
 42
-1.000000203550498
  0
VERTEX
  5
BE
  8
DEFAULT
 10
53.42619096477745
 20
11.0997998060881
 30
0.0
  0
VERTEX
  5
BF
  8
DEFAULT
 10
53.42619123895886
 20
11.09979999992722
 30
0.0
  0
VERTEX
  5
C0
  8
DEFAULT
 10
53.42619123895883
 20
9.220200030190195
 30
0.0
 42
-0.2515708604690064
  0
VERTEX
  5
C1
  8
DEFAULT
 10
52.91119123895887
 20
8.261411702199071
 30
0.0
  0
VERTEX
  5
C2
  8
DEFAULT
 10
52.91119123895886
 20
6.978588297800928
 30
0.0
 42
-0.2515708604690277
  0
VERTEX
  5
C3
  8
DEFAULT
 10
53.42619123895884
 20
6.01979996981204
 30
0.0
  0
VERTEX
  5
C4
  8
DEFAULT
 10
53.42619123895883
 20
4.140200030177855
 30
0.0
 42
-0.251570922519557
  0
VERTEX
  5
C5
  8
DEFAULT
 10
52.91119123895886
 20
3.18141170219907
 30
0.0
  0
VERTEX
  5
C6
  8
DEFAULT
 10
52.91119123895886
 20
2.803
 30
0.0
  0
VERTEX
  5
C7
  8
DEFAULT
 10
53.42819123895887
 20
2.286
 30
0.0
  0
VERTEX
  5
C8
  8
DEFAULT
 10
60.01419123895886
 20
2.286
 30
0.0
  0
VERTEX
  5
C9
  8
DEFAULT
 10
61.11250484696585
 20
3.384313608006984
 30
0.0
  0
SEQEND
  5
CA
  8
DEFAULT
  0
POLYLINE
  5
CB
  8
DEFAULT
 66
     1
 10
0.0
 20
0.0
 30
0.0
  0
VERTEX
  5
CC
  8
DEFAULT
 10
55.96619123895886
 20
5.715
 30
0.0
  0
VERTEX
  5
CD
  8
DEFAULT
 10
57.66740294115794
 20
5.714999999999999
 30
0.0
 42
-3.320926453229821
  0
VERTEX
  5
CE
  8
DEFAULT
 10
57.66740294115795
 20
4.445000000000007
 30
0.0
  0
VERTEX
  5
CF
  8
DEFAULT
 10
55.96619123895886
 20
4.445
 30
0.0
  0
VERTEX
  5
D0
  8
DEFAULT
 10
55.96619123895883
 20
4.14020003018326
 30
0.0
 42
-1.000000026246345
  0
VERTEX
  5
D1
  8
DEFAULT
 10
53.66619123895887
 20
4.14020003018326
 30
0.0
  0
VERTEX
  5
D2
  8
DEFAULT
 10
53.6661912389589
 20
6.019800193926372
 30
0.0
 42
-0.2515708625099223
  0
VERTEX
  5
D3
  8
DEFAULT
 10
54.18119123895885
 20
6.978588297800931
 30
0.0
  0
VERTEX
  5
D4
  8
DEFAULT
 10
54.18119123895886
 20
8.261411702199071
 30
0.0
 42
-0.2515710159538909
  0
VERTEX
  5
D5
  8
DEFAULT
 10
53.66619123895885
 20
9.2202
 30
0.0
  0
VERTEX
  5
D6
  8
DEFAULT
 10
53.66619123895887
 20
11.09979999997996
 30
0.0
 42
-1.000000203516106
  0
VERTEX
  5
D7
  8
DEFAULT
 10
55.96619096477747
 20
11.09979980611447
 30
0.0
  0
VERTEX
  5
D8
  8
DEFAULT
 10
55.96619123895886
 20
11.09979999997996
 30
0.0
  0
VERTEX
  5
D9
  8
DEFAULT
 10
55.96619123895886
 20
9.2202
 30
0.0
 42
-0.2515710159539059
  0
VERTEX
  5
DA
  8
DEFAULT
 10
55.45119123895886
 20
8.261411702199071
 30
0.0
  0
VERTEX
  5
DB
  8
DEFAULT
 10
55.45119123895886
 20
6.978588297800933
 30
0.0
 42
-0.2515709225199218
  0
VERTEX
  5
DC
  8
DEFAULT
 10
55.96619123895884
 20
6.019799969860592
 30
0.0
  0
VERTEX
  5
DD
  8
DEFAULT
 10
55.96619123895886
 20
5.715
 30
0.0
  0
SEQEND
  5
DE
  8
DEFAULT
  0
POLYLINE
  5
E0
  8
20
 66
     1
 10
0.0
 20
0.0
 30
0.0
  0
VERTEX
  5
E1
  8
20
 10
68.78619123895886
 20
0.0
 30
0.0
  0
VERTEX
  5
E2
  8
20
 10
35.78619123895886
 20
0.0
 30
0.0
  0
VERTEX
  5
E3
  8
20
 10
35.78619123895886
 20
14.91
 30
0.0
  0
VERTEX
  5
E4
  8
20
 10
68.78619123895886
 20
14.91
 30
0.0
  0
VERTEX
  5
E5
  8
20
 10
68.78619123895886
 20
0.0
 30
0.0
  0
SEQEND
  5
E6
  8
20
  0
CIRCLE
  5
E8
  8
44
 10
-54.81619123895887
 20
5.08
 30
0.0
 40
0.5588
210
0.0
220
0.0
230
-1.0
  0
CIRCLE
  5
E9
  8
44
 10
-52.27619123895886
 20
5.08
 30
0.0
 40
0.5588
210
0.0
220
0.0
230
-1.0
  0
CIRCLE
  5
EA
  8
44
 10
-49.73619123895887
 20
5.08
 30
0.0
 40
0.5588
210
0.0
220
0.0
230
-1.0
  0
CIRCLE
  5
EB
  8
44
 10
-49.73619123895887
 20
10.16
 30
0.0
 40
0.5588
210
0.0
220
0.0
230
-1.0
  0
CIRCLE
  5
EC
  8
44
 10
-52.27619123895886
 20
10.16
 30
0.0
 40
0.5588
210
0.0
220
0.0
230
-1.0
  0
CIRCLE
  5
ED
  8
44
 10
-54.81619123895887
 20
10.16
 30
0.0
 40
0.5588
210
0.0
220
0.0
230
-1.0
  0
CIRCLE
  5
EE
  8
44
 10
-40.84619123895887
 20
5.08
 30
0.0
 40
2.0955
210
0.0
220
0.0
230
-1.0
  0
CIRCLE
  5
EF
  8
44
 10
-63.70619123895887
 20
5.08
 30
0.0
 40
2.0955
210
0.0
220
0.0
230
-1.0
  0
CIRCLE
  5
F0
  8
44
 10
-58.62619123895887
 20
5.08
 30
0.0
 40
0.4064
210
0.0
220
0.0
230
-1.0
  0
CIRCLE
  5
F1
  8
44
 10
-58.62619123895887
 20
12.7
 30
0.0
 40
0.4064
210
0.0
220
0.0
230
-1.0
  0
ENDSEC
  0
EOF
