  0
SECTION
  2
HEADER
  9
$ACADVER
  1
AC1009
  9
$DWGCODEPAGE
  3
ansi_1252
  9
$INSBASE
 10
0.0
 20
0.0
 30
0.0
  9
$EXTMIN
 10
78.79316810669498
 20
2.54
 30
0.0
  9
$EXTMAX
 10
134.343168106695
 20
76.19
 30
0.0
  9
$LIMMIN
 10
0.0
 20
0.0
  9
$LIMMAX
 10
12.0
 20
9.0
  9
$ORTHOMODE
 70
     0
  9
$REGENMODE
 70
     1
  9
$FILLMODE
 70
     1
  9
$QTEXTMODE
 70
     0
  9
$MIRRTEXT
 70
     1
  9
$DRAGMODE
 70
     2
  9
$LTSCALE
 40
1.0
  9
$OSMODE
 70
    37
  9
$ATTMODE
 70
     1
  9
$TEXTSIZE
 40
0.2
  9
$TRACEWID
 40
0.05
  9
$TEXTSTYLE
  7
STANDARD
  9
$CLAYER
  8
DEFAULT
  9
$CELTYPE
  6
BYLAYER
  9
$CECOLOR
 62
   256
  9
$DIMSCALE
 40
1.0
  9
$DIMASZ
 40
0.18
  9
$DIMEXO
 40
0.0625
  9
$DIMDLI
 40
0.38
  9
$DIMRND
 40
0.0
  9
$DIMDLE
 40
0.0
  9
$DIMEXE
 40
0.18
  9
$DIMTP
 40
0.0
  9
$DIMTM
 40
0.0
  9
$DIMTXT
 40
0.18
  9
$DIMCEN
 40
0.09
  9
$DIMTSZ
 40
0.0
  9
$DIMTOL
 70
     0
  9
$DIMLIM
 70
     0
  9
$DIMTIH
 70
     1
  9
$DIMTOH
 70
     1
  9
$DIMSE1
 70
     0
  9
$DIMSE2
 70
     0
  9
$DIMTAD
 70
     0
  9
$DIMZIN
 70
     0
  9
$DIMBLK
  1

  9
$DIMASO
 70
     1
  9
$DIMSHO
 70
     1
  9
$DIMPOST
  1

  9
$DIMAPOST
  1

  9
$DIMALT
 70
     0
  9
$DIMALTD
 70
     2
  9
$DIMALTF
 40
25.4
  9
$DIMLFAC
 40
1.0
  9
$DIMTOFL
 70
     0
  9
$DIMTVP
 40
0.0
  9
$DIMTIX
 70
     0
  9
$DIMSOXD
 70
     0
  9
$DIMSAH
 70
     0
  9
$DIMBLK1
  1

  9
$DIMBLK2
  1

  9
$DIMSTYLE
  2
STANDARD
  9
$DIMCLRD
 70
     0
  9
$DIMCLRE
 70
     0
  9
$DIMCLRT
 70
     0
  9
$DIMTFAC
 40
1.0
  9
$DIMGAP
 40
0.09
  9
$LUNITS
 70
     2
  9
$LUPREC
 70
     3
  9
$SKETCHINC
 40
0.1
  9
$FILLETRAD
 40
0.5
  9
$AUNITS
 70
     0
  9
$AUPREC
 70
     0
  9
$MENU
  1
.
  9
$ELEVATION
 40
0.0
  9
$PELEVATION
 40
0.0
  9
$THICKNESS
 40
0.0
  9
$LIMCHECK
 70
     0
  9
$CHAMFERA
 40
0.0
  9
$CHAMFERB
 40
0.0
  9
$SKPOLY
 70
     0
  9
$TDCREATE
 40
2458080.776372743
  9
$TDUPDATE
 40
2458080.776391632
  9
$TDINDWG
 40
0.0000000116
  9
$TDUSRTIMER
 40
0.0000000116
  9
$USRTIMER
 70
     1
  9
$ANGBASE
 50
0.0
  9
$ANGDIR
 70
     0
  9
$PDMODE
 70
     0
  9
$PDSIZE
 40
0.0
  9
$PLINEWID
 40
0.0
  9
$COORDS
 70
     1
  9
$SPLFRAME
 70
     0
  9
$SPLINETYPE
 70
     6
  9
$SPLINESEGS
 70
     8
  9
$ATTDIA
 70
     0
  9
$ATTREQ
 70
     1
  9
$HANDLING
 70
     1
  9
$HANDSEED
  5
3C8
  9
$SURFTAB1
 70
     6
  9
$SURFTAB2
 70
     6
  9
$SURFTYPE
 70
     6
  9
$SURFU
 70
     6
  9
$SURFV
 70
     6
  9
$UCSNAME
  2

  9
$UCSORG
 10
0.0
 20
0.0
 30
0.0
  9
$UCSXDIR
 10
1.0
 20
0.0
 30
0.0
  9
$UCSYDIR
 10
0.0
 20
1.0
 30
0.0
  9
$PUCSNAME
  2

  9
$PUCSORG
 10
0.0
 20
0.0
 30
0.0
  9
$PUCSXDIR
 10
1.0
 20
0.0
 30
0.0
  9
$PUCSYDIR
 10
0.0
 20
1.0
 30
0.0
  9
$USERI1
 70
     0
  9
$USERI2
 70
     0
  9
$USERI3
 70
     0
  9
$USERI4
 70
     0
  9
$USERI5
 70
     0
  9
$USERR1
 40
0.0
  9
$USERR2
 40
0.0
  9
$USERR3
 40
0.0
  9
$USERR4
 40
0.0
  9
$USERR5
 40
0.0
  9
$WORLDVIEW
 70
     1
  9
$SHADEDGE
 70
     3
  9
$SHADEDIF
 70
    70
  9
$TILEMODE
 70
     1
  9
$MAXACTVP
 70
    64
  9
$PLIMCHECK
 70
     0
  9
$PEXTMIN
 10
1.000000000000000E+20
 20
1.000000000000000E+20
 30
1.000000000000000E+20
  9
$PEXTMAX
 10
-1.000000000000000E+20
 20
-1.000000000000000E+20
 30
-1.000000000000000E+20
  9
$PLIMMIN
 10
0.0
 20
0.0
  9
$PLIMMAX
 10
12.0
 20
9.0
  9
$UNITMODE
 70
     0
  9
$VISRETAIN
 70
     1
  9
$PLINEGEN
 70
     0
  9
$PSLTSCALE
 70
     1
  0
ENDSEC
  0
SECTION
  2
TABLES
  0
TABLE
  2
VPORT
 70
     1
  0
VPORT
  2
*ACTIVE
 70
     0
 10
0.0
 20
0.0
 11
1.0
 21
1.0
 12
106.568168106695
 22
39.365
 13
0.0
 23
0.0
 14
0.5
 24
0.5
 15
0.5
 25
0.5
 16
0.0
 26
0.0
 36
1.0
 17
0.0
 27
0.0
 37
0.0
 40
75.123
 41
0.7542430414120843
 42
50.0
 43
0.0
 44
0.0
 50
0.0
 51
0.0
 71
     0
 72
   100
 73
     1
 74
     3
 75
     0
 76
     0
 77
     0
 78
     0
  0
ENDTAB
  0
TABLE
  2
LTYPE
 70
     1
  0
LTYPE
  2
CONTINUOUS
 70
     0
  3
Solid line
 72
    65
 73
     0
 40
0.0
  0
ENDTAB
  0
TABLE
  2
LAYER
 70
     4
  0
LAYER
  2
0
 70
     0
 62
     7
  6
CONTINUOUS
  0
LAYER
  2
44
 70
     0
 62
     9
  6
CONTINUOUS
  0
LAYER
  2
20
 70
     0
 62
    20
  6
CONTINUOUS
  0
LAYER
  2
DEFAULT
 70
     0
 62
     7
  6
CONTINUOUS
  0
ENDTAB
  0
TABLE
  2
STYLE
 70
     1
  0
STYLE
  2
STANDARD
 70
     0
 40
0.0
 41
1.0
 50
0.0
 71
     0
 42
0.2
  3
txt
  4

  0
ENDTAB
  0
TABLE
  2
VIEW
 70
     0
  0
ENDTAB
  0
TABLE
  2
UCS
 70
     0
  0
ENDTAB
  0
TABLE
  2
APPID
 70
     1
  0
APPID
  2
ACAD
 70
     0
  0
ENDTAB
  0
TABLE
  2
DIMSTYLE
 70
     1
  0
DIMSTYLE
  2
STANDARD
 70
     0
  3

  4

  5

  6

  7

 40
1.0
 41
0.18
 42
0.0625
 43
0.38
 44
0.18
 45
0.0
 46
0.0
 47
0.0
 48
0.0
140
0.18
141
0.09
142
0.0
143
25.4
144
1.0
145
0.0
146
1.0
147
0.09
 71
     0
 72
     0
 73
     1
 74
     1
 75
     0
 76
     0
 77
     0
 78
     0
170
     0
171
     2
172
     0
173
     0
174
     0
175
     0
176
     0
177
     0
178
     0
  0
ENDTAB
  0
ENDSEC
  0
SECTION
  2
BLOCKS
  0
BLOCK
  8
0
  2
$MODEL_SPACE
 70
     0
 10
0.0
 20
0.0
 30
0.0
  3
$MODEL_SPACE
  1

  0
ENDBLK
  5
21
  8
0
  0
BLOCK
 67
     1
  8
0
  2
$PAPER_SPACE
 70
     0
 10
0.0
 20
0.0
 30
0.0
  3
$PAPER_SPACE
  1

  0
ENDBLK
  5
1D
 67
     1
  8
0
  0
ENDSEC
  0
SECTION
  2
ENTITIES
  0
CIRCLE
  5
6B
  8
44
 10
100.053168106695
 20
27.94
 30
0.0
 40
0.4
  0
CIRCLE
  5
6C
  8
44
 10
100.053168106695
 20
30.48
 30
0.0
 40
0.4
  0
CIRCLE
  5
6D
  8
44
 10
100.053168106695
 20
33.02
 30
0.0
 40
0.4
  0
CIRCLE
  5
6E
  8
44
 10
100.053168106695
 20
35.56
 30
0.0
 40
0.4
  0
CIRCLE
  5
6F
  8
44
 10
100.053168106695
 20
38.1
 30
0.0
 40
0.4
  0
CIRCLE
  5
70
  8
44
 10
100.053168106695
 20
40.64
 30
0.0
 40
0.4
  0
CIRCLE
  5
71
  8
44
 10
100.053168106695
 20
43.18
 30
0.0
 40
0.4
  0
CIRCLE
  5
72
  8
44
 10
100.053168106695
 20
45.72
 30
0.0
 40
0.4
  0
CIRCLE
  5
73
  8
44
 10
100.053168106695
 20
48.26
 30
0.0
 40
0.4
  0
CIRCLE
  5
74
  8
44
 10
100.053168106695
 20
50.8
 30
0.0
 40
0.4
  0
CIRCLE
  5
75
  8
44
 10
100.053168106695
 20
53.34
 30
0.0
 40
0.4
  0
CIRCLE
  5
76
  8
44
 10
100.053168106695
 20
55.88
 30
0.0
 40
0.4
  0
CIRCLE
  5
77
  8
44
 10
100.053168106695
 20
58.42
 30
0.0
 40
0.4
  0
CIRCLE
  5
78
  8
44
 10
100.053168106695
 20
60.96
 30
0.0
 40
0.4
  0
CIRCLE
  5
79
  8
44
 10
100.053168106695
 20
63.5
 30
0.0
 40
0.4
  0
CIRCLE
  5
7A
  8
44
 10
115.293168106695
 20
63.5
 30
0.0
 40
0.4
  0
CIRCLE
  5
7B
  8
44
 10
115.293168106695
 20
60.96
 30
0.0
 40
0.4
  0
CIRCLE
  5
7C
  8
44
 10
115.293168106695
 20
58.42
 30
0.0
 40
0.4
  0
CIRCLE
  5
7D
  8
44
 10
115.293168106695
 20
55.88
 30
0.0
 40
0.4
  0
CIRCLE
  5
7E
  8
44
 10
115.293168106695
 20
53.34
 30
0.0
 40
0.4
  0
CIRCLE
  5
7F
  8
44
 10
115.293168106695
 20
50.8
 30
0.0
 40
0.4
  0
CIRCLE
  5
80
  8
44
 10
115.293168106695
 20
48.26
 30
0.0
 40
0.4
  0
CIRCLE
  5
81
  8
44
 10
115.293168106695
 20
45.72
 30
0.0
 40
0.4
  0
CIRCLE
  5
82
  8
44
 10
115.293168106695
 20
43.18
 30
0.0
 40
0.4
  0
CIRCLE
  5
83
  8
44
 10
115.293168106695
 20
40.64
 30
0.0
 40
0.4
  0
CIRCLE
  5
84
  8
44
 10
115.293168106695
 20
38.1
 30
0.0
 40
0.4
  0
CIRCLE
  5
85
  8
44
 10
115.293168106695
 20
35.56
 30
0.0
 40
0.4
  0
CIRCLE
  5
86
  8
44
 10
115.293168106695
 20
33.02
 30
0.0
 40
0.4
  0
CIRCLE
  5
87
  8
44
 10
115.293168106695
 20
30.48
 30
0.0
 40
0.4
  0
CIRCLE
  5
88
  8
44
 10
115.293168106695
 20
27.94
 30
0.0
 40
0.4
  0
CIRCLE
  5
89
  8
44
 10
129.440968106695
 20
69.85
 30
0.0
 40
0.6
  0
CIRCLE
  5
8A
  8
44
 10
125.585368106695
 20
69.85
 30
0.0
 40
0.6
  0
CIRCLE
  5
8B
  8
44
 10
127.993168106695
 20
7.62
 30
0.0
 40
0.6
  0
CIRCLE
  5
8C
  8
44
 10
127.993168106695
 20
11.12
 30
0.0
 40
0.6
  0
CIRCLE
  5
8D
  8
44
 10
127.993168106695
 20
14.62
 30
0.0
 40
0.6
  0
CIRCLE
  5
8E
  8
44
 10
127.993168106695
 20
18.12
 30
0.0
 40
0.6
  0
CIRCLE
  5
8F
  8
44
 10
127.993168106695
 20
22.86
 30
0.0
 40
0.6
  0
CIRCLE
  5
90
  8
44
 10
127.993168106695
 20
26.36
 30
0.0
 40
0.6
  0
CIRCLE
  5
91
  8
44
 10
127.993168106695
 20
29.86
 30
0.0
 40
0.6
  0
CIRCLE
  5
92
  8
44
 10
127.993168106695
 20
33.36
 30
0.0
 40
0.6
  0
CIRCLE
  5
93
  8
44
 10
127.993168106695
 20
38.1
 30
0.0
 40
0.6
  0
CIRCLE
  5
94
  8
44
 10
127.993168106695
 20
41.6
 30
0.0
 40
0.6
  0
CIRCLE
  5
95
  8
44
 10
127.993168106695
 20
45.1
 30
0.0
 40
0.6
  0
CIRCLE
  5
96
  8
44
 10
127.993168106695
 20
48.6
 30
0.0
 40
0.6
  0
CIRCLE
  5
97
  8
44
 10
127.993168106695
 20
53.34
 30
0.0
 40
0.6
  0
CIRCLE
  5
98
  8
44
 10
127.993168106695
 20
56.84
 30
0.0
 40
0.6
  0
CIRCLE
  5
99
  8
44
 10
127.993168106695
 20
60.34
 30
0.0
 40
0.6
  0
CIRCLE
  5
9A
  8
44
 10
127.993168106695
 20
63.84
 30
0.0
 40
0.6
  0
CIRCLE
  5
9B
  8
44
 10
86.08316810669498
 20
71.9328
 30
0.0
 40
0.6
  0
CIRCLE
  5
9C
  8
44
 10
86.08316810669498
 20
68.255
 30
0.0
 40
0.6
  0
CIRCLE
  5
9D
  8
44
 10
86.08316810669498
 20
64.5772
 30
0.0
 40
0.6
  0
CIRCLE
  5
9E
  8
44
 10
86.08316810669498
 20
60.5028
 30
0.0
 40
0.6
  0
CIRCLE
  5
9F
  8
44
 10
86.08316810669498
 20
56.825
 30
0.0
 40
0.6
  0
CIRCLE
  5
A0
  8
44
 10
86.08316810669498
 20
53.1472
 30
0.0
 40
0.6
  0
CIRCLE
  5
A1
  8
44
 10
86.08316810669498
 20
49.0728
 30
0.0
 40
0.6
  0
CIRCLE
  5
A2
  8
44
 10
86.08316810669498
 20
45.395
 30
0.0
 40
0.6
  0
CIRCLE
  5
A3
  8
44
 10
86.08316810669498
 20
41.7172
 30
0.0
 40
0.6
  0
CIRCLE
  5
A4
  8
44
 10
86.08316810669498
 20
37.6428
 30
0.0
 40
0.6
  0
CIRCLE
  5
A5
  8
44
 10
86.08316810669498
 20
33.965
 30
0.0
 40
0.6
  0
CIRCLE
  5
A6
  8
44
 10
86.08316810669498
 20
30.2872
 30
0.0
 40
0.6
  0
CIRCLE
  5
A7
  8
44
 10
86.08316810669498
 20
26.2128
 30
0.0
 40
0.6
  0
CIRCLE
  5
A8
  8
44
 10
86.08316810669498
 20
22.535
 30
0.0
 40
0.6
  0
CIRCLE
  5
A9
  8
44
 10
86.08316810669498
 20
18.8572
 30
0.0
 40
0.6
  0
CIRCLE
  5
AA
  8
44
 10
86.08316810669498
 20
14.7828
 30
0.0
 40
0.6
  0
CIRCLE
  5
AB
  8
44
 10
86.08316810669498
 20
11.105
 30
0.0
 40
0.6
  0
CIRCLE
  5
AC
  8
44
 10
86.08316810669498
 20
7.4272
 30
0.0
 40
0.6
  0
POLYLINE
  5
AE
  8
20
 66
     1
 10
0.0
 20
0.0
 30
0.0
  0
VERTEX
  5
AF
  8
20
 10
134.343168106695
 20
76.19
 30
0.0
  0
VERTEX
  5
B0
  8
20
 10
134.343168106695
 20
2.54
 30
0.0
  0
VERTEX
  5
B1
  8
20
 10
78.79316810669498
 20
2.54
 30
0.0
  0
VERTEX
  5
B2
  8
20
 10
78.79316810669498
 20
76.19
 30
0.0
  0
VERTEX
  5
B3
  8
20
 10
134.343168106695
 20
76.19
 30
0.0
  0
SEQEND
  5
B4
  8
20
  0
POLYLINE
  5
B6
  8
DEFAULT
 66
     1
 10
0.0
 20
0.0
 30
0.0
  0
VERTEX
  5
B7
  8
DEFAULT
 10
114.1431681869946
 20
64.65000000003158
 30
0.0
  0
VERTEX
  5
B8
  8
DEFAULT
 10
116.4431680264449
 20
64.6500000000608
 30
0.0
 42
-1.000000069769985
  0
VERTEX
  5
B9
  8
DEFAULT
 10
116.4431680264449
 20
62.35000000003163
 30
0.0
  0
VERTEX
  5
BA
  8
DEFAULT
 10
114.1431679128132
 20
62.3500000000024
 30
0.0
 42
-0.999999866325425
  0
VERTEX
  5
BB
  8
DEFAULT
 10
114.1431681869945
 20
64.65000000003158
 30
0.0
  0
SEQEND
  5
BC
  8
DEFAULT
  0
POLYLINE
  5
BD
  8
DEFAULT
 66
     1
 10
0.0
 20
0.0
 30
0.0
  0
VERTEX
  5
BE
  8
DEFAULT
 10
114.1431681869912
 20
62.11000000000065
 30
0.0
  0
VERTEX
  5
BF
  8
DEFAULT
 10
116.4431680264133
 20
62.11000000002187
 30
0.0
 42
-1.000000069819442
  0
VERTEX
  5
C0
  8
DEFAULT
 10
116.4431680264133
 20
59.81000000004313
 30
0.0
  0
VERTEX
  5
C1
  8
DEFAULT
 10
114.1431681869912
 20
59.81000000002194
 30
0.0
 42
-0.9999998663462963
  0
VERTEX
  5
C2
  8
DEFAULT
 10
114.1431681869912
 20
62.11000000000067
 30
0.0
  0
SEQEND
  5
C3
  8
DEFAULT
  0
POLYLINE
  5
C4
  8
DEFAULT
 66
     1
 10
0.0
 20
0.0
 30
0.0
  0
VERTEX
  5
C5
  8
DEFAULT
 10
114.1431681067841
 20
59.57000000003539
 30
0.0
  0
VERTEX
  5
C6
  8
DEFAULT
 10
116.4431680264983
 20
59.57000000003536
 30
0.0
 42
-1.000000069728894
  0
VERTEX
  5
C7
  8
DEFAULT
 10
116.4431680264983
 20
57.27000000001857
 30
0.0
  0
VERTEX
  5
C8
  8
DEFAULT
 10
114.1431683006151
 20
57.27000000000166
 30
0.0
 42
-1.000000084313021
  0
VERTEX
  5
C9
  8
DEFAULT
 10
114.1431683006151
 20
59.56999972583708
 30
0.0
  0
VERTEX
  5
CA
  8
DEFAULT
 10
114.1431681067841
 20
59.57000000003539
 30
0.0
  0
SEQEND
  5
CB
  8
DEFAULT
  0
POLYLINE
  5
CC
  8
DEFAULT
 66
     1
 10
0.0
 20
0.0
 30
0.0
  0
VERTEX
  5
CD
  8
DEFAULT
 10
98.90316818693148
 20
59.57000000001261
 30
0.0
  0
VERTEX
  5
CE
  8
DEFAULT
 10
101.2031679127873
 20
59.56999999999996
 30
0.0
 42
-1.000000168620903
  0
VERTEX
  5
CF
  8
DEFAULT
 10
101.2031679127873
 20
57.27000000001265
 30
0.0
  0
VERTEX
  5
D0
  8
DEFAULT
 10
98.90316810655628
 20
57.27000000002531
 30
0.0
  0
VERTEX
  5
D1
  8
DEFAULT
 10
98.90316791275012
 20
57.27000027420672
 30
0.0
 42
-1.000000154094806
  0
VERTEX
  5
D2
  8
DEFAULT
 10
98.90316818693148
 20
59.57000000001261
 30
0.0
  0
SEQEND
  5
D3
  8
DEFAULT
  0
POLYLINE
  5
D4
  8
DEFAULT
 66
     1
 10
0.0
 20
0.0
 30
0.0
  0
VERTEX
  5
D5
  8
DEFAULT
 10
98.90316810674683
 20
44.33000000002653
 30
0.0
  0
VERTEX
  5
D6
  8
DEFAULT
 10
101.2031680264002
 20
44.33000000001253
 30
0.0
 42
-1.000000069815531
  0
VERTEX
  5
D7
  8
DEFAULT
 10
101.2031680264002
 20
42.02999999999864
 30
0.0
  0
VERTEX
  5
D8
  8
DEFAULT
 10
98.90316810674683
 20
42.02999999999859
 30
0.0
  0
VERTEX
  5
D9
  8
DEFAULT
 10
98.90316830059642
 20
42.03000027419397
 30
0.0
 42
-0.2515711254701112
  0
VERTEX
  5
DA
  8
DEFAULT
 10
97.9443798089116
 20
42.545
 30
0.0
  0
VERTEX
  5
DB
  8
DEFAULT
 10
92.69616810669498
 20
42.545
 30
0.0
  0
VERTEX
  5
DC
  8
DEFAULT
 10
91.61555927518769
 20
41.46439116849273
 30
0.0
 42
-0.2008759561910837
  0
VERTEX
  5
DD
  8
DEFAULT
 10
91.16316810669498
 20
41.27499999999999
 30
0.0
  0
VERTEX
  5
DE
  8
DEFAULT
 10
88.29475143362286
 20
41.27499999999998
 30
0.0
 42
-0.302803465305316
  0
VERTEX
  5
DF
  8
DEFAULT
 10
87.23316791279963
 20
40.56720027415066
 30
0.0
  0
VERTEX
  5
E0
  8
DEFAULT
 10
87.23316810665528
 20
40.56719999995124
 30
0.0
  0
VERTEX
  5
E1
  8
DEFAULT
 10
84.93316830061048
 20
40.56719999995127
 30
0.0
 42
-1.000000084311084
  0
VERTEX
  5
E2
  8
DEFAULT
 10
84.93316830061046
 20
42.86719972578786
 30
0.0
  0
VERTEX
  5
E3
  8
DEFAULT
 10
84.9331681067749
 20
42.86719999998729
 30
0.0
  0
VERTEX
  5
E4
  8
DEFAULT
 10
87.23316791279962
 20
42.86719999998724
 30
0.0
 42
-0.1941986713949791
  0
VERTEX
  5
E5
  8
DEFAULT
 10
88.03144572756557
 20
42.54499999999765
 30
0.0
  0
VERTEX
  5
E6
  8
DEFAULT
 10
90.90016810669499
 20
42.545
 30
0.0
  0
VERTEX
  5
E7
  8
DEFAULT
 10
91.98416810669498
 20
43.629
 30
0.0
 42
-0.2119529673897859
  0
VERTEX
  5
E8
  8
DEFAULT
 10
92.46602335070723
 20
43.81456566076498
 30
0.0
 42
-0.0000396413719196
  0
VERTEX
  5
E9
  8
DEFAULT
 10
97.94437980887646
 20
43.81500000000234
 30
0.0
 42
-0.2515712609627956
  0
VERTEX
  5
EA
  8
DEFAULT
 10
98.90316830059642
 20
44.32999972584512
 30
0.0
  0
VERTEX
  5
EB
  8
DEFAULT
 10
98.90316810674683
 20
44.33000000002653
 30
0.0
  0
SEQEND
  5
EC
  8
DEFAULT
  0
POLYLINE
  5
ED
  8
DEFAULT
 66
     1
 10
0.0
 20
0.0
 30
0.0
  0
VERTEX
  5
EE
  8
DEFAULT
 10
98.90316791268651
 20
57.03000000009033
 30
0.0
  0
VERTEX
  5
EF
  8
DEFAULT
 10
101.2031679128195
 20
57.03000000004262
 30
0.0
  0
VERTEX
  5
F0
  8
DEFAULT
 10
101.203168106695
 20
57.02999999999497
 30
0.0
 42
-1.000000203503012
  0
VERTEX
  5
F1
  8
DEFAULT
 10
101.2031679128195
 20
54.73000027417638
 30
0.0
  0
VERTEX
  5
F2
  8
DEFAULT
 10
101.203168106695
 20
54.72999999999497
 30
0.0
  0
VERTEX
  5
F3
  8
DEFAULT
 10
98.90316791268651
 20
54.73000000004269
 30
0.0
 42
-0.9999997470110809
  0
VERTEX
  5
F4
  8
DEFAULT
 10
98.90316791268648
 20
57.03000000009034
 30
0.0
  0
SEQEND
  5
F5
  8
DEFAULT
  0
POLYLINE
  5
F6
  8
DEFAULT
 66
     1
 10
0.0
 20
0.0
 30
0.0
  0
VERTEX
  5
F7
  8
DEFAULT
 10
114.1431681870008
 20
54.49000000008301
 30
0.0
  0
VERTEX
  5
F8
  8
DEFAULT
 10
116.4431680264752
 20
54.49000000016606
 30
0.0
 42
-0.9999999505109778
  0
VERTEX
  5
F9
  8
DEFAULT
 10
116.4431683006565
 20
52.19000000008308
 30
0.0
  0
VERTEX
  5
FA
  8
DEFAULT
 10
114.1431679128195
 20
52.19000000000003
 30
0.0
 42
-0.9999998663281529
  0
VERTEX
  5
FB
  8
DEFAULT
 10
114.1431681870008
 20
54.49000000008302
 30
0.0
  0
SEQEND
  5
FC
  8
DEFAULT
  0
POLYLINE
  5
FD
  8
DEFAULT
 66
     1
 10
0.0
 20
0.0
 30
0.0
  0
VERTEX
  5
FE
  8
DEFAULT
 10
98.90316830058123
 20
54.49000000002675
 30
0.0
  0
VERTEX
  5
FF
  8
DEFAULT
 10
101.203167912757
 20
54.48999999999899
 30
0.0
 42
-1.00000016865382
  0
VERTEX
  5
100
  8
DEFAULT
 10
101.203167912757
 20
52.1900000000268
 30
0.0
  0
VERTEX
  5
101
  8
DEFAULT
 10
98.90316830058123
 20
52.19000000005457
 30
0.0
 42
-1.000000084298333
  0
VERTEX
  5
102
  8
DEFAULT
 10
98.90316830058123
 20
54.49000000002675
 30
0.0
  0
SEQEND
  5
103
  8
DEFAULT
  0
POLYLINE
  5
104
  8
DEFAULT
 66
     1
 10
0.0
 20
0.0
 30
0.0
  0
VERTEX
  5
105
  8
DEFAULT
 10
98.90316818696343
 20
51.94999999999425
 30
0.0
  0
VERTEX
  5
106
  8
DEFAULT
 10
101.203168026431
 20
51.94999999999969
 30
0.0
 42
-1.000000069792448
  0
VERTEX
  5
107
  8
DEFAULT
 10
101.203168026431
 20
49.64999999999434
 30
0.0
  0
VERTEX
  5
108
  8
DEFAULT
 10
98.90316791278207
 20
49.64999999998886
 30
0.0
 42
-0.9999998663119092
  0
VERTEX
  5
109
  8
DEFAULT
 10
98.90316818696343
 20
51.94999999999426
 30
0.0
  0
SEQEND
  5
10A
  8
DEFAULT
  0
POLYLINE
  5
10B
  8
DEFAULT
 66
     1
 10
0.0
 20
0.0
 30
0.0
  0
VERTEX
  5
10C
  8
DEFAULT
 10
98.90316818699773
 20
34.17000000012182
 30
0.0
  0
VERTEX
  5
10D
  8
DEFAULT
 10
101.2031680264181
 20
34.17000000005967
 30
0.0
 42
-1.000000069779003
  0
VERTEX
  5
10E
  8
DEFAULT
 10
101.2031680264181
 20
31.8699999999976
 30
0.0
  0
VERTEX
  5
10F
  8
DEFAULT
 10
98.90316810668878
 20
31.86999999999757
 30
0.0
  0
VERTEX
  5
110
  8
DEFAULT
 10
98.90316791281636
 20
31.87000027424109
 30
0.0
 42
-1.000000154058386
  0
VERTEX
  5
111
  8
DEFAULT
 10
98.90316818699773
 20
34.17000000012182
 30
0.0
  0
SEQEND
  5
112
  8
DEFAULT
  0
POLYLINE
  5
113
  8
DEFAULT
 66
     1
 10
0.0
 20
0.0
 30
0.0
  0
VERTEX
  5
114
  8
DEFAULT
 10
98.90316791281947
 20
31.63000000005217
 30
0.0
  0
VERTEX
  5
115
  8
DEFAULT
 10
101.2031679127632
 20
31.63000000007804
 30
0.0
 42
-1.00000028783444
  0
VERTEX
  5
116
  8
DEFAULT
 10
101.2031679127632
 20
29.3300002742336
 30
0.0
  0
VERTEX
  5
117
  8
DEFAULT
 10
101.2031681065824
 20
29.33000000002633
 30
0.0
  0
VERTEX
  5
118
  8
DEFAULT
 10
98.90316818700083
 20
29.33000000002637
 30
0.0
 42
-0.9999997471189644
  0
VERTEX
  5
119
  8
DEFAULT
 10
98.90316791281947
 20
31.63000000005218
 30
0.0
  0
SEQEND
  5
11A
  8
DEFAULT
  0
POLYLINE
  5
11B
  8
DEFAULT
 66
     1
 10
0.0
 20
0.0
 30
0.0
  0
VERTEX
  5
11C
  8
DEFAULT
 10
126.8431681869566
 20
8.7699999999998
 30
0.0
  0
VERTEX
  5
11D
  8
DEFAULT
 10
129.1431683005705
 20
8.770000000000014
 30
0.0
 42
-0.9999999157063909
  0
VERTEX
  5
11E
  8
DEFAULT
 10
129.143168106695
 20
6.470000000000206
 30
0.0
  0
VERTEX
  5
11F
  8
DEFAULT
 10
126.8431681869566
 20
6.470000000000065
 30
0.0
 42
-0.2515708600131793
  0
VERTEX
  5
120
  8
DEFAULT
 10
125.8843798088939
 20
6.985000000000002
 30
0.0
  0
VERTEX
  5
121
  8
DEFAULT
 10
120.373168106695
 20
6.985000000000004
 30
0.0
 42
-0.2008759562273437
  0
VERTEX
  5
122
  8
DEFAULT
 10
119.9207769382294
 20
7.174391168518505
 30
0.0
  0
VERTEX
  5
123
  8
DEFAULT
 10
118.654168106695
 20
8.441
 30
0.0
 42
-0.2119529673843564
  0
VERTEX
  5
124
  8
DEFAULT
 10
118.4686024459063
 20
8.922855244012268
 30
0.0
 42
-0.0000124209469329
  0
VERTEX
  5
125
  8
DEFAULT
 10
118.4681681066286
 20
26.407
 30
0.0
  0
VERTEX
  5
126
  8
DEFAULT
 10
117.570168106695
 20
27.305
 30
0.0
  0
VERTEX
  5
127
  8
DEFAULT
 10
117.4019564044427
 20
27.305
 30
0.0
 42
-0.2515711833493655
  0
VERTEX
  5
128
  8
DEFAULT
 10
116.4431679128195
 20
26.79000027426171
 30
0.0
  0
VERTEX
  5
129
  8
DEFAULT
 10
116.443168106695
 20
26.79000000008032
 30
0.0
  0
VERTEX
  5
12A
  8
DEFAULT
 10
114.1431681870007
 20
26.79000000003753
 30
0.0
 42
-0.999999866373104
  0
VERTEX
  5
12B
  8
DEFAULT
 10
114.1431681870007
 20
29.08999999999463
 30
0.0
  0
VERTEX
  5
12C
  8
DEFAULT
 10
116.4431679128194
 20
29.09000000003747
 30
0.0
 42
-0.2515710608312156
  0
VERTEX
  5
12D
  8
DEFAULT
 10
117.4019564045491
 20
28.57499999999949
 30
0.0
 42
-0.0000104997708432
  0
VERTEX
  5
12E
  8
DEFAULT
 10
117.833168213748
 20
28.57499094475317
 30
0.0
 42
-0.1989026328088409
  0
VERTEX
  5
12F
  8
DEFAULT
 10
118.282168106695
 20
28.38899999999999
 30
0.0
  0
VERTEX
  5
130
  8
DEFAULT
 10
119.552168106695
 20
27.119
 30
0.0
 42
-0.198902634615151
  0
VERTEX
  5
131
  8
DEFAULT
 10
119.7381590514477
 20
26.67000000000001
 30
0.0
  0
VERTEX
  5
132
  8
DEFAULT
 10
119.738168106695
 20
9.153000000000002
 30
0.0
  0
VERTEX
  5
133
  8
DEFAULT
 10
120.636168106695
 20
8.255
 30
0.0
  0
VERTEX
  5
134
  8
DEFAULT
 10
125.8843798088942
 20
8.254999999999999
 30
0.0
 42
-0.251570922063414
  0
VERTEX
  5
135
  8
DEFAULT
 10
126.8431681869566
 20
8.769999999999799
 30
0.0
  0
SEQEND
  5
136
  8
DEFAULT
  0
POLYLINE
  5
137
  8
DEFAULT
 66
     1
 10
0.0
 20
0.0
 30
0.0
  0
VERTEX
  5
138
  8
DEFAULT
 10
98.90316810674577
 20
29.09000000004333
 30
0.0
  0
VERTEX
  5
139
  8
DEFAULT
 10
101.2031680263911
 20
29.09000000002054
 30
0.0
 42
-1.000000069819606
  0
VERTEX
  5
13A
  8
DEFAULT
 10
101.2031680263911
 20
26.78999999999785
 30
0.0
  0
VERTEX
  5
13B
  8
DEFAULT
 10
98.90316810674577
 20
26.78999999999781
 30
0.0
  0
VERTEX
  5
13C
  8
DEFAULT
 10
98.9031683005959
 20
26.79000027420197
 30
0.0
 42
-1.000000372077535
  0
VERTEX
  5
13D
  8
DEFAULT
 10
98.90316830059588
 20
29.08999972586193
 30
0.0
  0
VERTEX
  5
13E
  8
DEFAULT
 10
98.90316810674577
 20
29.09000000004333
 30
0.0
  0
SEQEND
  5
13F
  8
DEFAULT
  0
POLYLINE
  5
140
  8
DEFAULT
 66
     1
 10
0.0
 20
0.0
 30
0.0
  0
VERTEX
  5
141
  8
DEFAULT
 10
114.1431681869992
 20
51.95000000000216
 30
0.0
  0
VERTEX
  5
142
  8
DEFAULT
 10
116.4431680264122
 20
51.95000000004426
 30
0.0
 42
-1.000000069829501
  0
VERTEX
  5
143
  8
DEFAULT
 10
116.4431680264122
 20
49.65000000008644
 30
0.0
  0
VERTEX
  5
144
  8
DEFAULT
 10
114.1431681869992
 20
49.65000000004432
 30
0.0
 42
-0.9999998663716967
  0
VERTEX
  5
145
  8
DEFAULT
 10
114.1431681869991
 20
51.95000000000217
 30
0.0
  0
SEQEND
  5
146
  8
DEFAULT
  0
POLYLINE
  5
147
  8
DEFAULT
 66
     1
 10
0.0
 20
0.0
 30
0.0
  0
VERTEX
  5
148
  8
DEFAULT
 10
114.1431681870004
 20
49.40999999997513
 30
0.0
  0
VERTEX
  5
149
  8
DEFAULT
 10
116.4431680264735
 20
49.40999999994394
 30
0.0
 42
-1.000000069771428
  0
VERTEX
  5
14A
  8
DEFAULT
 10
116.4431680264735
 20
47.10999999997518
 30
0.0
  0
VERTEX
  5
14B
  8
DEFAULT
 10
114.143167912819
 20
47.11000000000639
 30
0.0
 42
-0.9999998663279799
  0
VERTEX
  5
14C
  8
DEFAULT
 10
114.1431681870004
 20
49.40999999997513
 30
0.0
  0
SEQEND
  5
14D
  8
DEFAULT
  0
POLYLINE
  5
14E
  8
DEFAULT
 66
     1
 10
0.0
 20
0.0
 30
0.0
  0
VERTEX
  5
14F
  8
DEFAULT
 10
126.8431681870004
 20
24.01000000000174
 30
0.0
  0
VERTEX
  5
150
  8
DEFAULT
 10
129.1431680263893
 20
24.0100000000015
 30
0.0
 42
-1.000000069831152
  0
VERTEX
  5
151
  8
DEFAULT
 10
129.1431680263894
 20
21.71000000000182
 30
0.0
  0
VERTEX
  5
152
  8
DEFAULT
 10
126.843167912819
 20
21.71000000000204
 30
0.0
 42
-0.2515708625089022
  0
VERTEX
  5
153
  8
DEFAULT
 10
125.8843798088954
 20
22.22500000000001
 30
0.0
  0
VERTEX
  5
154
  8
DEFAULT
 10
124.183168106695
 20
22.22499999999999
 30
0.0
 42
-0.2008759562271299
  0
VERTEX
  5
155
  8
DEFAULT
 10
123.7307769382297
 20
22.41439116851817
 30
0.0
  0
VERTEX
  5
156
  8
DEFAULT
 10
122.464168106695
 20
23.681
 30
0.0
 42
-0.2119529673931957
  0
VERTEX
  5
157
  8
DEFAULT
 10
122.2786024459335
 20
24.16285524401228
 30
0.0
 42
-0.0000617987102498
  0
VERTEX
  5
158
  8
DEFAULT
 10
122.2781681066954
 20
27.677
 30
0.0
  0
VERTEX
  5
159
  8
DEFAULT
 10
117.570168106695
 20
32.38499999999999
 30
0.0
  0
VERTEX
  5
15A
  8
DEFAULT
 10
117.4019564043919
 20
32.385
 30
0.0
 42
-0.2515708020824236
  0
VERTEX
  5
15B
  8
DEFAULT
 10
116.443168026434
 20
31.8700000001571
 30
0.0
  0
VERTEX
  5
15C
  8
DEFAULT
 10
114.1431679127229
 20
31.87000000007906
 30
0.0
 42
-0.9999998663681271
  0
VERTEX
  5
15D
  8
DEFAULT
 10
114.1431681869043
 20
34.17000000000093
 30
0.0
  0
VERTEX
  5
15E
  8
DEFAULT
 10
116.443168026434
 20
34.17000000007899
 30
0.0
 42
-0.251570860094556
  0
VERTEX
  5
15F
  8
DEFAULT
 10
117.4019564045999
 20
33.65500000000004
 30
0.0
 42
-0.0000104997732688
  0
VERTEX
  5
160
  8
DEFAULT
 10
117.833168213748
 20
33.65499094475309
 30
0.0
 42
-0.1989026328089314
  0
VERTEX
  5
161
  8
DEFAULT
 10
118.282168106695
 20
33.46899999999999
 30
0.0
  0
VERTEX
  5
162
  8
DEFAULT
 10
123.362168106695
 20
28.38899999999999
 30
0.0
 42
-0.1989026914725894
  0
VERTEX
  5
163
  8
DEFAULT
 10
123.5481590515211
 20
27.93999954581261
 30
0.0
  0
VERTEX
  5
164
  8
DEFAULT
 10
123.5481681067031
 20
24.393
 30
0.0
  0
VERTEX
  5
165
  8
DEFAULT
 10
124.446168106695
 20
23.495
 30
0.0
  0
VERTEX
  5
166
  8
DEFAULT
 10
125.8843798088927
 20
23.495
 30
0.0
 42
-0.2515709220637504
  0
VERTEX
  5
167
  8
DEFAULT
 10
126.8431681870004
 20
24.01000000000173
 30
0.0
  0
SEQEND
  5
168
  8
DEFAULT
  0
POLYLINE
  5
169
  8
DEFAULT
 66
     1
 10
0.0
 20
0.0
 30
0.0
  0
VERTEX
  5
16A
  8
DEFAULT
 10
126.8431681870003
 20
27.5100000000008
 30
0.0
  0
VERTEX
  5
16B
  8
DEFAULT
 10
129.143168106695
 20
27.51000000000106
 30
0.0
 42
-1.000000000000012
  0
VERTEX
  5
16C
  8
DEFAULT
 10
129.143168106695
 20
25.21000000000106
 30
0.0
  0
VERTEX
  5
16D
  8
DEFAULT
 10
126.8431679128189
 20
25.21000000000064
 30
0.0
 42
-0.2515709245597545
  0
VERTEX
  5
16E
  8
DEFAULT
 10
125.8843798088945
 20
25.72499999999991
 30
0.0
 42
-0.0000373530250723
  0
VERTEX
  5
16F
  8
DEFAULT
 10
125.7631683725317
 20
25.72500905524726
 30
0.0
 42
-0.1989026390997045
  0
VERTEX
  5
170
  8
DEFAULT
 10
125.314168106695
 20
25.911
 30
0.0
  0
VERTEX
  5
171
  8
DEFAULT
 10
124.369168106695
 20
26.856
 30
0.0
 42
-0.1989026838316984
  0
VERTEX
  5
172
  8
DEFAULT
 10
124.1831771619478
 20
27.305
 30
0.0
 42
-0.0000044961423197
  0
VERTEX
  5
173
  8
DEFAULT
 10
124.1831681066978
 20
28.31200000000001
 30
0.0
  0
VERTEX
  5
174
  8
DEFAULT
 10
117.570168106695
 20
34.925
 30
0.0
  0
VERTEX
  5
175
  8
DEFAULT
 10
117.4019564043998
 20
34.92499999999999
 30
0.0
 42
-0.2515709873350019
  0
VERTEX
  5
176
  8
DEFAULT
 10
116.4431679128195
 20
34.41000000007327
 30
0.0
  0
VERTEX
  5
177
  8
DEFAULT
 10
114.1431679128175
 20
34.41000000000143
 30
0.0
 42
-0.9999998663274021
  0
VERTEX
  5
178
  8
DEFAULT
 10
114.1431681869989
 20
36.71000000007317
 30
0.0
  0
VERTEX
  5
179
  8
DEFAULT
 10
116.443168106695
 20
36.71000000014507
 30
0.0
 42
-0.2515710159940871
  0
VERTEX
  5
17A
  8
DEFAULT
 10
117.401956404592
 20
36.195
 30
0.0
  0
VERTEX
  5
17B
  8
DEFAULT
 10
117.833168106695
 20
36.19499999999999
 30
0.0
 42
-0.2008759562275909
  0
VERTEX
  5
17C
  8
DEFAULT
 10
118.285559275161
 20
36.00560883148107
 30
0.0
  0
VERTEX
  5
17D
  8
DEFAULT
 10
125.267168106695
 20
29.024
 30
0.0
 42
-0.2119529673917288
  0
VERTEX
  5
17E
  8
DEFAULT
 10
125.4527337674582
 20
28.54214475598775
 30
0.0
 42
-0.0002229335772725
  0
VERTEX
  5
17F
  8
DEFAULT
 10
125.4531681066951
 20
27.568
 30
0.0
  0
VERTEX
  5
180
  8
DEFAULT
 10
125.9441031340595
 20
27.07706497263551
 30
0.0
 42
-0.2282282566211253
  0
VERTEX
  5
181
  8
DEFAULT
 10
126.8431681870003
 20
27.51000000000079
 30
0.0
  0
SEQEND
  5
182
  8
DEFAULT
  0
POLYLINE
  5
183
  8
DEFAULT
 66
     1
 10
0.0
 20
0.0
 30
0.0
  0
VERTEX
  5
184
  8
DEFAULT
 10
98.90316791269886
 20
39.25000000003119
 30
0.0
  0
VERTEX
  5
185
  8
DEFAULT
 10
101.203167912819
 20
39.25000000005068
 30
0.0
 42
-1.00000028780567
  0
VERTEX
  5
186
  8
DEFAULT
 10
101.203167912819
 20
36.95000027425158
 30
0.0
  0
VERTEX
  5
187
  8
DEFAULT
 10
101.203168106694
 20
36.9500000000702
 30
0.0
  0
VERTEX
  5
188
  8
DEFAULT
 10
98.90316818688021
 20
36.95000000005076
 30
0.0
 42
-0.2515709220650286
  0
VERTEX
  5
189
  8
DEFAULT
 10
97.94437980891473
 20
37.46500000000001
 30
0.0
  0
VERTEX
  5
18A
  8
DEFAULT
 10
95.87116810669498
 20
37.465
 30
0.0
  0
VERTEX
  5
18B
  8
DEFAULT
 10
93.06816810669498
 20
34.66200000000001
 30
0.0
  0
VERTEX
  5
18C
  8
DEFAULT
 10
93.06816810669498
 20
20.32
 30
0.0
 42
-0.2008759562284728
  0
VERTEX
  5
18D
  8
DEFAULT
 10
92.87877693817444
 20
19.86760883153237
 30
0.0
  0
VERTEX
  5
18E
  8
DEFAULT
 10
90.97716810669498
 20
17.96600000000001
 30
0.0
 42
-0.1989025853669851
  0
VERTEX
  5
18F
  8
DEFAULT
 10
90.52816810669499
 20
17.78000905519687
 30
0.0
  0
VERTEX
  5
190
  8
DEFAULT
 10
87.63583442016107
 20
17.77999999996973
 30
0.0
 42
-0.089670604205626
  0
VERTEX
  5
191
  8
DEFAULT
 10
87.23316791281903
 20
17.70720000000001
 30
0.0
  0
VERTEX
  5
192
  8
DEFAULT
 10
84.93316810669208
 20
17.70719999999998
 30
0.0
  0
VERTEX
  5
193
  8
DEFAULT
 10
84.93316791281802
 20
17.70720027421984
 30
0.0
 42
-1.000000154083953
  0
VERTEX
  5
194
  8
DEFAULT
 10
84.93316818699938
 20
20.00720000007685
 30
0.0
  0
VERTEX
  5
195
  8
DEFAULT
 10
87.23316791281903
 20
20.0072000000384
 30
0.0
 42
-0.3656940921729807
  0
VERTEX
  5
196
  8
DEFAULT
 10
88.3668912475014
 20
19.05
 30
0.0
  0
VERTEX
  5
197
  8
DEFAULT
 10
90.26516810669497
 20
19.05
 30
0.0
  0
VERTEX
  5
198
  8
DEFAULT
 10
91.79816810669497
 20
20.58299999999999
 30
0.0
  0
VERTEX
  5
199
  8
DEFAULT
 10
91.79817716194222
 20
34.925
 30
0.0
  0
VERTEX
  5
19A
  8
DEFAULT
 10
91.79839046933817
 20
34.94143587804765
 30
0.0
  0
VERTEX
  5
19B
  8
DEFAULT
 10
91.79902883178553
 20
34.95785524401226
 30
0.0
  0
VERTEX
  5
19C
  8
DEFAULT
 10
91.80009096849555
 20
34.97424164106005
 30
0.0
  0
VERTEX
  5
19D
  8
DEFAULT
 10
91.80157475233321
 20
34.99057872246784
 30
0.0
  0
VERTEX
  5
19E
  8
DEFAULT
 10
91.80347722044584
 20
35.0068503057138
 30
0.0
  0
VERTEX
  5
19F
  8
DEFAULT
 10
91.80579458900375
 20
35.0230404254232
 30
0.0
  0
VERTEX
  5
1A0
  8
DEFAULT
 10
91.8085222719163
 20
35.03913338480938
 30
0.0
  0
VERTEX
  5
1A1
  8
DEFAULT
 10
91.8116549033518
 20
35.05511380526725
 30
0.0
  0
VERTEX
  5
1A2
  8
DEFAULT
 10
91.81518636385587
 20
35.07096667379856
 30
0.0
  0
VERTEX
  5
1A3
  8
DEFAULT
 10
91.81910980983456
 20
35.0866773879733
 30
0.0
  0
VERTEX
  5
1A4
  8
DEFAULT
 10
91.8234177061398
 20
35.1022317981595
 30
0.0
  0
VERTEX
  5
1A5
  8
DEFAULT
 10
91.82810186147343
 20
35.11761624678442
 30
0.0
  0
VERTEX
  5
1A6
  8
DEFAULT
 10
91.83315346630646
 20
35.13281760442291
 30
0.0
  0
VERTEX
  5
1A7
  8
DEFAULT
 10
91.83856313299495
 20
35.14782330254264
 30
0.0
  0
VERTEX
  5
1A8
  8
DEFAULT
 10
91.84432093776363
 20
35.16262136277091
 30
0.0
  0
VERTEX
  5
1A9
  8
DEFAULT
 10
91.85041646422133
 20
35.17720042258375
 30
0.0
  0
VERTEX
  5
1AA
  8
DEFAULT
 10
91.85683884806963
 20
35.19154975735234
 30
0.0
  0
VERTEX
  5
1AB
  8
DEFAULT
 10
91.86357682266852
 20
35.20565929871776
 30
0.0
  0
VERTEX
  5
1AC
  8
DEFAULT
 10
91.87061876512648
 20
35.21951964929755
 30
0.0
  0
VERTEX
  5
1AD
  8
DEFAULT
 10
91.87795274259246
 20
35.23312209376041
 30
0.0
  0
VERTEX
  5
1AE
  8
DEFAULT
 10
91.88556655843871
 20
35.24645860633503
 30
0.0
  0
VERTEX
  5
1AF
  8
DEFAULT
 10
91.89344779803794
 20
35.2595218548477
 30
0.0
  0
VERTEX
  5
1B0
  8
DEFAULT
 10
91.90158387385631
 20
35.27230520140809
 30
0.0
  0
VERTEX
  5
1B1
  8
DEFAULT
 10
91.90996206960251
 20
35.28480269988599
 30
0.0
  0
VERTEX
  5
1B2
  8
DEFAULT
 10
91.91856958319497
 20
35.29700909034144
 30
0.0
  0
VERTEX
  5
1B3
  8
DEFAULT
 10
91.92739356833171
 20
35.30891979058818
 30
0.0
  0
VERTEX
  5
1B4
  8
DEFAULT
 10
91.93642117447042
 20
35.32053088508366
 30
0.0
  0
VERTEX
  5
1B5
  8
DEFAULT
 10
91.94563958505147
 20
35.33183911135111
 30
0.0
  0
VERTEX
  5
1B6
  8
DEFAULT
 10
91.95503605381941
 20
35.34284184414635
 30
0.0
  0
VERTEX
  5
1B7
  8
DEFAULT
 10
91.96459793912437
 20
35.3535370775881
 30
0.0
  0
VERTEX
  5
1B8
  8
DEFAULT
 10
91.974312736107
 20
35.36392340547344
 30
0.0
  0
VERTEX
  5
1B9
  8
DEFAULT
 10
95.13622960378517
 20
38.5254728436039
 30
0.0
 42
-0.2119717003954585
  0
VERTEX
  5
1BA
  8
DEFAULT
 10
95.60816810669499
 20
38.735
 30
0.0
  0
VERTEX
  5
1BB
  8
DEFAULT
 10
97.94437980887334
 20
38.73500000000001
 30
0.0
 42
-0.2515708625191686
  0
VERTEX
  5
1BC
  8
DEFAULT
 10
98.90316791269886
 20
39.25000000003117
 30
0.0
  0
SEQEND
  5
1BD
  8
DEFAULT
  0
POLYLINE
  5
1BE
  8
DEFAULT
 66
     1
 10
0.0
 20
0.0
 30
0.0
  0
VERTEX
  5
1BF
  8
DEFAULT
 10
98.90316818699885
 20
36.71000000001158
 30
0.0
  0
VERTEX
  5
1C0
  8
DEFAULT
 10
101.2031679127409
 20
36.70999999999969
 30
0.0
 42
-1.000000168660947
  0
VERTEX
  5
1C1
  8
DEFAULT
 10
101.2031679127409
 20
34.41000000001163
 30
0.0
  0
VERTEX
  5
1C2
  8
DEFAULT
 10
98.90316818699885
 20
34.41000000002354
 30
0.0
 42
-0.2515708600061521
  0
VERTEX
  5
1C3
  8
DEFAULT
 10
97.94437980890963
 20
34.925
 30
0.0
  0
VERTEX
  5
1C4
  8
DEFAULT
 10
97.14116810669498
 20
34.925
 30
0.0
  0
VERTEX
  5
1C5
  8
DEFAULT
 10
96.24316810669498
 20
34.02699999999999
 30
0.0
  0
VERTEX
  5
1C6
  8
DEFAULT
 10
96.24316810669498
 20
8.89
 30
0.0
 42
-0.200875956207163
  0
VERTEX
  5
1C7
  8
DEFAULT
 10
96.05377693819024
 20
8.4376088315217
 30
0.0
  0
VERTEX
  5
1C8
  8
DEFAULT
 10
94.15216810669497
 20
6.536000000000001
 30
0.0
 42
-0.1989026347171428
  0
VERTEX
  5
1C9
  8
DEFAULT
 10
93.70316810669499
 20
6.350009055343048
 30
0.0
  0
VERTEX
  5
1CA
  8
DEFAULT
 10
87.6358344198337
 20
6.350000000093131
 30
0.0
 42
-0.0896705617927778
  0
VERTEX
  5
1CB
  8
DEFAULT
 10
87.23316810669499
 20
6.277200000122353
 30
0.0
  0
VERTEX
  5
1CC
  8
DEFAULT
 10
84.93316810669498
 20
6.277199999892476
 30
0.0
 42
-1.000000000000007
  0
VERTEX
  5
1CD
  8
DEFAULT
 10
84.93316810669498
 20
8.577199999892471
 30
0.0
  0
VERTEX
  5
1CE
  8
DEFAULT
 10
87.23316810669499
 20
8.577200000122364
 30
0.0
 42
-0.3656940444465907
  0
VERTEX
  5
1CF
  8
DEFAULT
 10
88.36689124752222
 20
7.620000000000005
 30
0.0
  0
VERTEX
  5
1D0
  8
DEFAULT
 10
93.44016810669498
 20
7.619999999999999
 30
0.0
  0
VERTEX
  5
1D1
  8
DEFAULT
 10
94.97316810669498
 20
9.153000000000002
 30
0.0
  0
VERTEX
  5
1D2
  8
DEFAULT
 10
94.97316810669498
 20
34.29
 30
0.0
 42
-0.2008759562085414
  0
VERTEX
  5
1D3
  8
DEFAULT
 10
95.16255927519944
 20
34.74239116847839
 30
0.0
 42
-0.0001183578977603
  0
VERTEX
  5
1D4
  8
DEFAULT
 10
96.40622960498831
 20
35.98547284480719
 30
0.0
 42
-0.2119716473513729
  0
VERTEX
  5
1D5
  8
DEFAULT
 10
96.87816810669497
 20
36.19499999999999
 30
0.0
  0
VERTEX
  5
1D6
  8
DEFAULT
 10
97.94437980887851
 20
36.19500000000001
 30
0.0
 42
-0.2515709220754102
  0
VERTEX
  5
1D7
  8
DEFAULT
 10
98.90316818699884
 20
36.71000000001159
 30
0.0
  0
SEQEND
  5
1D8
  8
DEFAULT
  0
POLYLINE
  5
1D9
  8
DEFAULT
 66
     1
 10
0.0
 20
0.0
 30
0.0
  0
VERTEX
  5
1DA
  8
DEFAULT
 10
126.8431679128138
 20
57.9899999999916
 30
0.0
  0
VERTEX
  5
1DB
  8
DEFAULT
 10
129.143168106695
 20
57.99000000000699
 30
0.0
 42
-0.9999999156962703
  0
VERTEX
  5
1DC
  8
DEFAULT
 10
129.1431683005935
 20
55.69000000000706
 30
0.0
  0
VERTEX
  5
1DD
  8
DEFAULT
 10
126.8431683006341
 20
55.68999999999163
 30
0.0
 42
-0.3325783126896155
  0
VERTEX
  5
1DE
  8
DEFAULT
 10
125.740047533047
 20
56.51500000000001
 30
0.0
  0
VERTEX
  5
1DF
  8
DEFAULT
 10
120.636168106695
 20
56.515
 30
0.0
  0
VERTEX
  5
1E0
  8
DEFAULT
 10
119.738168106695
 20
55.617
 30
0.0
  0
VERTEX
  5
1E1
  8
DEFAULT
 10
119.738168106695
 20
46.99
 30
0.0
 42
-0.2008759562265144
  0
VERTEX
  5
1E2
  8
DEFAULT
 10
119.5487769381779
 20
46.53760883153576
 30
0.0
  0
VERTEX
  5
1E3
  8
DEFAULT
 10
118.282168106695
 20
45.27100000000001
 30
0.0
 42
-0.2119529673918129
  0
VERTEX
  5
1E4
  8
DEFAULT
 10
117.8003128626827
 20
45.08543433923676
 30
0.0
 42
-0.0005451633974301
  0
VERTEX
  5
1E5
  8
DEFAULT
 10
117.4019564044476
 20
45.08500000000002
 30
0.0
 42
-0.2515709220431724
  0
VERTEX
  5
1E6
  8
DEFAULT
 10
116.4431680264229
 20
44.57000000007292
 30
0.0
  0
VERTEX
  5
1E7
  8
DEFAULT
 10
114.1431681869821
 20
44.57000000003695
 30
0.0
 42
-0.9999998663578473
  0
VERTEX
  5
1E8
  8
DEFAULT
 10
114.1431681869821
 20
46.87000000000086
 30
0.0
  0
VERTEX
  5
1E9
  8
DEFAULT
 10
116.4431680264229
 20
46.87000000003687
 30
0.0
 42
-0.2515709221011875
  0
VERTEX
  5
1EA
  8
DEFAULT
 10
117.4019564045442
 20
46.35499999999999
 30
0.0
  0
VERTEX
  5
1EB
  8
DEFAULT
 10
117.570168106695
 20
46.35499999999999
 30
0.0
  0
VERTEX
  5
1EC
  8
DEFAULT
 10
118.468168106695
 20
47.253
 30
0.0
  0
VERTEX
  5
1ED
  8
DEFAULT
 10
118.4681771619422
 20
55.87999894022941
 30
0.0
 42
-0.1989026524923397
  0
VERTEX
  5
1EE
  8
DEFAULT
 10
118.654168106695
 20
56.32899999999999
 30
0.0
  0
VERTEX
  5
1EF
  8
DEFAULT
 10
119.9207769382034
 20
57.59560883150841
 30
0.0
 42
-0.2008759561903233
  0
VERTEX
  5
1F0
  8
DEFAULT
 10
120.373168106695
 20
57.785
 30
0.0
  0
VERTEX
  5
1F1
  8
DEFAULT
 10
126.187824685236
 20
57.78499999998449
 30
0.0
 42
-0.1527567259490825
  0
VERTEX
  5
1F2
  8
DEFAULT
 10
126.8431679128139
 20
57.9899999999916
 30
0.0
  0
SEQEND
  5
1F3
  8
DEFAULT
  0
POLYLINE
  5
1F4
  8
DEFAULT
 66
     1
 10
0.0
 20
0.0
 30
0.0
  0
VERTEX
  5
1F5
  8
DEFAULT
 10
126.8431683006447
 20
54.49000000000264
 30
0.0
  0
VERTEX
  5
1F6
  8
DEFAULT
 10
129.143168106695
 20
54.49000000000165
 30
0.0
 42
-1.000000084294197
  0
VERTEX
  5
1F7
  8
DEFAULT
 10
129.1431679128195
 20
52.19000000000274
 30
0.0
  0
VERTEX
  5
1F8
  8
DEFAULT
 10
126.8431683006447
 20
52.19000000000373
 30
0.0
 42
-0.2515709874085579
  0
VERTEX
  5
1F9
  8
DEFAULT
 10
125.8843798088965
 20
52.70500000000002
 30
0.0
  0
VERTEX
  5
1FA
  8
DEFAULT
 10
122.541168106695
 20
52.705
 30
0.0
  0
VERTEX
  5
1FB
  8
DEFAULT
 10
121.643168106695
 20
51.80699999999999
 30
0.0
  0
VERTEX
  5
1FC
  8
DEFAULT
 10
121.6431590514477
 20
46.35499989294699
 30
0.0
 42
-0.1989025835911309
  0
VERTEX
  5
1FD
  8
DEFAULT
 10
121.457168106695
 20
45.90600000000001
 30
0.0
  0
VERTEX
  5
1FE
  8
DEFAULT
 10
118.282168106695
 20
42.73100000000001
 30
0.0
 42
-0.1989025835915755
  0
VERTEX
  5
1FF
  8
DEFAULT
 10
117.833168213748
 20
42.54500905524834
 30
0.0
 42
-0.00001049976683
  0
VERTEX
  5
200
  8
DEFAULT
 10
117.4019564043776
 20
42.54500000000007
 30
0.0
 42
-0.2515710159043854
  0
VERTEX
  5
201
  8
DEFAULT
 10
116.443168106695
 20
42.03000000017866
 30
0.0
  0
VERTEX
  5
202
  8
DEFAULT
 10
114.143168300576
 20
42.03000000000042
 30
0.0
 42
-1.000000084296079
  0
VERTEX
  5
203
  8
DEFAULT
 10
114.143168300576
 20
44.32999972590813
 30
0.0
  0
VERTEX
  5
204
  8
DEFAULT
 10
114.143168106706
 20
44.33000000017866
 30
0.0
  0
VERTEX
  5
205
  8
DEFAULT
 10
116.443168106695
 20
44.33000000017865
 30
0.0
 42
-0.2515710160034153
  0
VERTEX
  5
206
  8
DEFAULT
 10
117.4019564046142
 20
43.815
 30
0.0
  0
VERTEX
  5
207
  8
DEFAULT
 10
117.570168106695
 20
43.815
 30
0.0
  0
VERTEX
  5
208
  8
DEFAULT
 10
120.373168106695
 20
46.618
 30
0.0
  0
VERTEX
  5
209
  8
DEFAULT
 10
120.373168106695
 20
52.07
 30
0.0
 42
-0.2008759562277805
  0
VERTEX
  5
20A
  8
DEFAULT
 10
120.5625592752142
 20
52.52239116846635
 30
0.0
  0
VERTEX
  5
20B
  8
DEFAULT
 10
121.829168106695
 20
53.789
 30
0.0
 42
-0.2119530198191952
  0
VERTEX
  5
20C
  8
DEFAULT
 10
122.3110233507072
 20
53.97456566076358
 30
0.0
 42
-0.0000607746710759
  0
VERTEX
  5
20D
  8
DEFAULT
 10
125.8843798088916
 20
53.97500000000036
 30
0.0
 42
-0.2515710607871409
  0
VERTEX
  5
20E
  8
DEFAULT
 10
126.8431683006447
 20
54.49000000000264
 30
0.0
  0
SEQEND
  5
20F
  8
DEFAULT
  0
POLYLINE
  5
210
  8
DEFAULT
 66
     1
 10
0.0
 20
0.0
 30
0.0
  0
VERTEX
  5
211
  8
DEFAULT
 10
98.90316818698383
 20
49.41000000005398
 30
0.0
  0
VERTEX
  5
212
  8
DEFAULT
 10
101.203168106695
 20
49.41000000005401
 30
0.0
 42
-0.9999999999999939
  0
VERTEX
  5
213
  8
DEFAULT
 10
101.203168106695
 20
47.10999999999918
 30
0.0
  0
VERTEX
  5
214
  8
DEFAULT
 10
98.90316810666098
 20
47.10999999999918
 30
0.0
  0
VERTEX
  5
215
  8
DEFAULT
 10
98.90316791280246
 20
47.11000027420801
 30
0.0
 42
-0.2515709963921075
  0
VERTEX
  5
216
  8
DEFAULT
 10
97.94437980892981
 20
47.625
 30
0.0
  0
VERTEX
  5
217
  8
DEFAULT
 10
96.87816810669497
 20
47.62499999999999
 30
0.0
 42
-0.200875906503237
  0
VERTEX
  5
218
  8
DEFAULT
 10
96.42577693821545
 20
47.81439116850596
 30
0.0
  0
VERTEX
  5
219
  8
DEFAULT
 10
95.15916810669498
 20
49.081
 30
0.0
 42
-0.1989026838333497
  0
VERTEX
  5
21A
  8
DEFAULT
 10
94.9731771619422
 20
49.53
 30
0.0
  0
VERTEX
  5
21B
  8
DEFAULT
 10
94.97316810669498
 20
61.33200000000001
 30
0.0
  0
VERTEX
  5
21C
  8
DEFAULT
 10
92.17016810669494
 20
64.13500000000002
 30
0.0
  0
VERTEX
  5
21D
  8
DEFAULT
 10
88.29475143361795
 20
64.13500000000002
 30
0.0
 42
-0.3028034652974202
  0
VERTEX
  5
21E
  8
DEFAULT
 10
87.23316791278641
 20
63.42720027415112
 30
0.0
  0
VERTEX
  5
21F
  8
DEFAULT
 10
87.23316810662887
 20
63.42719999994044
 30
0.0
  0
VERTEX
  5
220
  8
DEFAULT
 10
84.93316791281812
 20
63.42719999994048
 30
0.0
 42
-0.9999998663276399
  0
VERTEX
  5
221
  8
DEFAULT
 10
84.93316818699948
 20
65.72719999996967
 30
0.0
  0
VERTEX
  5
222
  8
DEFAULT
 10
87.23316791278641
 20
65.72719999999892
 30
0.0
 42
-0.1941986713931795
  0
VERTEX
  5
223
  8
DEFAULT
 10
88.03144572757827
 20
65.40500000002363
 30
0.0
  0
VERTEX
  5
224
  8
DEFAULT
 10
92.43316810669498
 20
65.40499094477855
 30
0.0
  0
VERTEX
  5
225
  8
DEFAULT
 10
92.44960399225354
 20
65.40477763109232
 30
0.0
  0
VERTEX
  5
226
  8
DEFAULT
 10
92.46602336507989
 20
65.4041392627727
 30
0.0
  0
VERTEX
  5
227
  8
DEFAULT
 10
92.48240976835046
 20
65.40307712061893
 30
0.0
  0
VERTEX
  5
228
  8
DEFAULT
 10
92.49874685535391
 20
65.40159333177486
 30
0.0
  0
VERTEX
  5
229
  8
DEFAULT
 10
92.51501844358145
 20
65.39969085910019
 30
0.0
  0
VERTEX
  5
22A
  8
DEFAULT
 10
92.53120856767278
 20
65.39737348642984
 30
0.0
  0
VERTEX
  5
22B
  8
DEFAULT
 10
92.54730153085681
 20
65.39464579985788
 30
0.0
  0
VERTEX
  5
22C
  8
DEFAULT
 10
92.56328195454505
 20
65.39151316521775
 30
0.0
  0
VERTEX
  5
22D
  8
DEFAULT
 10
92.5791348257568
 20
65.3879817019636
 30
0.0
  0
VERTEX
  5
22E
  8
DEFAULT
 10
92.59484554208034
 20
65.38405825368757
 30
0.0
  0
VERTEX
  5
22F
  8
DEFAULT
 10
92.61039995390273
 20
65.37975035553423
 30
0.0
  0
VERTEX
  5
230
  8
DEFAULT
 10
92.62578440367079
 20
65.3750661987965
 30
0.0
  0
VERTEX
  5
231
  8
DEFAULT
 10
92.64098576197934
 20
65.37001459299668
 30
0.0
  0
VERTEX
  5
232
  8
DEFAULT
 10
92.65599146031633
 20
65.36460492577045
 30
0.0
  0
VERTEX
  5
233
  8
DEFAULT
 10
92.6707895203296
 20
65.3588471208834
 30
0.0
  0
VERTEX
  5
234
  8
DEFAULT
 10
92.68536857951575
 20
65.35275159471581
 30
0.0
  0
VERTEX
  5
235
  8
DEFAULT
 10
92.69971791326651
 20
65.34632921155382
 30
0.0
  0
VERTEX
  5
236
  8
DEFAULT
 10
92.71382745324343
 20
65.33959123802417
 30
0.0
  0
VERTEX
  5
237
  8
DEFAULT
 10
92.7276878020843
 20
65.33254929700406
 30
0.0
  0
VERTEX
  5
238
  8
DEFAULT
 10
92.74129024447777
 20
65.32521532132934
 30
0.0
  0
VERTEX
  5
239
  8
DEFAULT
 10
92.75462675467209
 20
65.31760150761174
 30
0.0
  0
VERTEX
  5
23A
  8
DEFAULT
 10
92.76769000051273
 20
65.30972027046184
 30
0.0
  0
VERTEX
  5
23B
  8
DEFAULT
 10
92.78047334412801
 20
65.30158419739627
 30
0.0
  0
VERTEX
  5
23C
  8
DEFAULT
 10
92.79297083940575
 20
65.2932060046886
 30
0.0
  0
VERTEX
  5
23D
  8
DEFAULT
 10
92.80517722642351
 20
65.28459849440237
 30
0.0
  0
VERTEX
  5
23E
  8
DEFAULT
 10
92.81708792301188
 20
65.27577451282134
 30
0.0
  0
VERTEX
  5
23F
  8
DEFAULT
 10
92.82869901364448
 20
65.26674691046928
 30
0.0
  0
VERTEX
  5
240
  8
DEFAULT
 10
92.84000723586
 20
65.25752850388741
 30
0.0
  0
VERTEX
  5
241
  8
DEFAULT
 10
92.85100996442901
 20
65.24813203931276
 30
0.0
  0
VERTEX
  5
242
  8
DEFAULT
 10
92.86170519348428
 20
65.23857015837692
 30
0.0
  0
VERTEX
  5
243
  8
DEFAULT
 10
92.87209151683624
 20
65.22885536592115
 30
0.0
  0
VERTEX
  5
244
  8
DEFAULT
 10
96.03364095150215
 20
62.06693850170651
 30
0.0
 42
-0.2119716997841899
  0
VERTEX
  5
245
  8
DEFAULT
 10
96.24316810669498
 20
61.595
 30
0.0
  0
VERTEX
  5
246
  8
DEFAULT
 10
96.24316810669498
 20
49.793
 30
0.0
  0
VERTEX
  5
247
  8
DEFAULT
 10
97.14116810669498
 20
48.89500000000001
 30
0.0
  0
VERTEX
  5
248
  8
DEFAULT
 10
97.94437980885829
 20
48.89500000000002
 30
0.0
 42
-0.2515709220781946
  0
VERTEX
  5
249
  8
DEFAULT
 10
98.90316818698383
 20
49.41000000005399
 30
0.0
  0
SEQEND
  5
24A
  8
DEFAULT
  0
POLYLINE
  5
24B
  8
DEFAULT
 66
     1
 10
0.0
 20
0.0
 30
0.0
  0
VERTEX
  5
24C
  8
DEFAULT
 10
126.8431683005982
 20
42.75000000000325
 30
0.0
  0
VERTEX
  5
24D
  8
DEFAULT
 10
129.143168106695
 20
42.74999999999883
 30
0.0
 42
-0.9999999157082694
  0
VERTEX
  5
24E
  8
DEFAULT
 10
129.1431683005705
 20
40.45000000000328
 30
0.0
  0
VERTEX
  5
24F
  8
DEFAULT
 10
126.8431681067504
 20
40.45000000000774
 30
0.0
  0
VERTEX
  5
250
  8
DEFAULT
 10
126.8431683005982
 20
40.45000027418914
 30
0.0
 42
-0.251571183369233
  0
VERTEX
  5
251
  8
DEFAULT
 10
125.8843798088992
 20
40.965
 30
0.0
  0
VERTEX
  5
252
  8
DEFAULT
 10
119.691168106695
 20
40.965
 30
0.0
  0
VERTEX
  5
253
  8
DEFAULT
 10
118.9205592751874
 20
40.19439116849242
 30
0.0
 42
-0.2008759561908058
  0
VERTEX
  5
254
  8
DEFAULT
 10
118.468168106695
 20
40.005
 30
0.0
  0
VERTEX
  5
255
  8
DEFAULT
 10
117.4019564044756
 20
40.00500000000002
 30
0.0
 42
-0.251570802109639
  0
VERTEX
  5
256
  8
DEFAULT
 10
116.4431680263956
 20
39.49000000001535
 30
0.0
  0
VERTEX
  5
257
  8
DEFAULT
 10
114.1431681869173
 20
39.49000000000003
 30
0.0
 42
-0.9999998662919212
  0
VERTEX
  5
258
  8
DEFAULT
 10
114.1431681869173
 20
41.79000000001529
 30
0.0
  0
VERTEX
  5
259
  8
DEFAULT
 10
116.4431680263957
 20
41.79000000003062
 30
0.0
 42
-0.2515708600211614
  0
VERTEX
  5
25A
  8
DEFAULT
 10
117.4019564045162
 20
41.27500000000001
 30
0.0
  0
VERTEX
  5
25B
  8
DEFAULT
 10
118.205168106695
 20
41.27500000000001
 30
0.0
  0
VERTEX
  5
25C
  8
DEFAULT
 10
118.979168106695
 20
42.049
 30
0.0
 42
-0.2119529672286053
  0
VERTEX
  5
25D
  8
DEFAULT
 10
119.4610233502576
 20
42.23456566076501
 30
0.0
 42
-0.0000338093637489
  0
VERTEX
  5
25E
  8
DEFAULT
 10
125.8843798088889
 20
42.23500000000785
 30
0.0
 42
-0.2515710607775837
  0
VERTEX
  5
25F
  8
DEFAULT
 10
126.8431683005982
 20
42.75000000000325
 30
0.0
  0
SEQEND
  5
260
  8
DEFAULT
  0
POLYLINE
  5
261
  8
DEFAULT
 66
     1
 10
0.0
 20
0.0
 30
0.0
  0
VERTEX
  5
262
  8
DEFAULT
 10
126.8431681868961
 20
12.27000000000155
 30
0.0
  0
VERTEX
  5
263
  8
DEFAULT
 10
129.1431680264044
 20
12.27000000000216
 30
0.0
 42
-1.000000069817685
  0
VERTEX
  5
264
  8
DEFAULT
 10
129.1431680264044
 20
9.970000000001612
 30
0.0
  0
VERTEX
  5
265
  8
DEFAULT
 10
126.8431681064855
 20
9.97000000000096
 30
0.0
  0
VERTEX
  5
266
  8
DEFAULT
 10
126.8431679127147
 20
9.97000027418237
 30
0.0
 42
-0.1468059326250352
  0
VERTEX
  5
267
  8
DEFAULT
 10
126.2100014619653
 20
10.16000000000001
 30
0.0
  0
VERTEX
  5
268
  8
DEFAULT
 10
122.278168106695
 20
10.16
 30
0.0
 42
-0.2008759562278501
  0
VERTEX
  5
269
  8
DEFAULT
 10
121.8257769382285
 20
10.34939116851942
 30
0.0
  0
VERTEX
  5
26A
  8
DEFAULT
 10
120.559168106695
 20
11.616
 30
0.0
 42
-0.2119529673818046
  0
VERTEX
  5
26B
  8
DEFAULT
 10
120.373602445921
 20
12.09785524401227
 30
0.0
 42
-0.0000145320840671
  0
VERTEX
  5
26C
  8
DEFAULT
 10
120.3731681066856
 20
27.04200000000001
 30
0.0
  0
VERTEX
  5
26D
  8
DEFAULT
 10
117.570168106695
 20
29.845
 30
0.0
  0
VERTEX
  5
26E
  8
DEFAULT
 10
117.4019564043936
 20
29.84500000000001
 30
0.0
 42
-0.251570802047929
  0
VERTEX
  5
26F
  8
DEFAULT
 10
116.4431680264324
 20
29.33000000008243
 30
0.0
  0
VERTEX
  5
270
  8
DEFAULT
 10
114.1431683005764
 20
29.33000000001033
 30
0.0
 42
-1.000000084296221
  0
VERTEX
  5
271
  8
DEFAULT
 10
114.1431683005764
 20
31.62999972590099
 30
0.0
  0
VERTEX
  5
272
  8
DEFAULT
 10
114.1431681067068
 20
31.63000000015449
 30
0.0
  0
VERTEX
  5
273
  8
DEFAULT
 10
116.4431680264324
 20
31.63000000015446
 30
0.0
 42
-0.2515709221063674
  0
VERTEX
  5
274
  8
DEFAULT
 10
117.4019564045982
 20
31.11499999999917
 30
0.0
 42
-0.0000104997732687
  0
VERTEX
  5
275
  8
DEFAULT
 10
117.833168213748
 20
31.11499094475221
 30
0.0
 42
-0.1989025835917089
  0
VERTEX
  5
276
  8
DEFAULT
 10
118.282168106695
 20
30.92899999999999
 30
0.0
  0
VERTEX
  5
277
  8
DEFAULT
 10
121.4537769381767
 20
27.75739116846542
 30
0.0
 42
-0.200875956227216
  0
VERTEX
  5
278
  8
DEFAULT
 10
121.643168106695
 20
27.305
 30
0.0
  0
VERTEX
  5
279
  8
DEFAULT
 10
121.643168106695
 20
12.328
 30
0.0
  0
VERTEX
  5
27A
  8
DEFAULT
 10
122.541168106695
 20
11.43
 30
0.0
  0
VERTEX
  5
27B
  8
DEFAULT
 10
125.7357386507021
 20
11.43
 30
0.0
 42
-0.3363505846048784
  0
VERTEX
  5
27C
  8
DEFAULT
 10
126.8431681868961
 20
12.27000000000156
 30
0.0
  0
SEQEND
  5
27D
  8
DEFAULT
  0
POLYLINE
  5
27E
  8
DEFAULT
 66
     1
 10
0.0
 20
0.0
 30
0.0
  0
VERTEX
  5
27F
  8
DEFAULT
 10
98.90316818700057
 20
46.86999999999664
 30
0.0
  0
VERTEX
  5
280
  8
DEFAULT
 10
101.2031680264137
 20
46.86999999999998
 30
0.0
 42
-1.000000069808373
  0
VERTEX
  5
281
  8
DEFAULT
 10
101.2031680264137
 20
44.5699999999967
 30
0.0
  0
VERTEX
  5
282
  8
DEFAULT
 10
98.90316791281921
 20
44.56999999999337
 30
0.0
 42
-0.2515708625113182
  0
VERTEX
  5
283
  8
DEFAULT
 10
97.94437980888965
 20
45.085
 30
0.0
  0
VERTEX
  5
284
  8
DEFAULT
 10
95.60816810669499
 20
45.08499999999999
 30
0.0
 42
-0.2008759065029828
  0
VERTEX
  5
285
  8
DEFAULT
 10
95.15577693821577
 20
45.27439116850566
 30
0.0
  0
VERTEX
  5
286
  8
DEFAULT
 10
92.61916810669499
 20
47.811
 30
0.0
 42
-0.198902683808316
  0
VERTEX
  5
287
  8
DEFAULT
 10
92.43317716191869
 20
48.26
 30
0.0
  0
VERTEX
  5
288
  8
DEFAULT
 10
92.4331681066542
 20
51.172
 30
0.0
  0
VERTEX
  5
289
  8
DEFAULT
 10
90.90016810669499
 20
52.705
 30
0.0
  0
VERTEX
  5
28A
  8
DEFAULT
 10
88.29475143358458
 20
52.705
 30
0.0
 42
-0.3028033910936476
  0
VERTEX
  5
28B
  8
DEFAULT
 10
87.23316791281042
 20
51.99720027414779
 30
0.0
  0
VERTEX
  5
28C
  8
DEFAULT
 10
87.23316810667686
 20
51.99719999985355
 30
0.0
  0
VERTEX
  5
28D
  8
DEFAULT
 10
84.93316791281947
 20
51.99719999985358
 30
0.0
 42
-0.9999998314126378
  0
VERTEX
  5
28E
  8
DEFAULT
 10
84.93316810669502
 20
54.29719999985356
 30
0.0
  0
VERTEX
  5
28F
  8
DEFAULT
 10
87.23316791281042
 20
54.29720000007916
 30
0.0
 42
-0.1941986714281327
  0
VERTEX
  5
290
  8
DEFAULT
 10
88.03144572766145
 20
53.97499999997996
 30
0.0
  0
VERTEX
  5
291
  8
DEFAULT
 10
91.16316810669498
 20
53.97499094472732
 30
0.0
  0
VERTEX
  5
292
  8
DEFAULT
 10
91.17960399225356
 20
53.97477763104425
 30
0.0
  0
VERTEX
  5
293
  8
DEFAULT
 10
91.19602336507991
 20
53.97413926272771
 30
0.0
  0
VERTEX
  5
294
  8
DEFAULT
 10
91.21240976835048
 20
53.97307712057693
 30
0.0
  0
VERTEX
  5
295
  8
DEFAULT
 10
91.22874685535392
 20
53.97159333173575
 30
0.0
  0
VERTEX
  5
296
  8
DEFAULT
 10
91.24501844358144
 20
53.96969085906387
 30
0.0
  0
VERTEX
  5
297
  8
DEFAULT
 10
91.26120856767278
 20
53.96737348639623
 30
0.0
  0
VERTEX
  5
298
  8
DEFAULT
 10
91.27730153085682
 20
53.96464579982688
 30
0.0
  0
VERTEX
  5
299
  8
DEFAULT
 10
91.29328195454505
 20
53.96151316518924
 30
0.0
  0
VERTEX
  5
29A
  8
DEFAULT
 10
91.30913482575679
 20
53.95798170193749
 30
0.0
  0
VERTEX
  5
29B
  8
DEFAULT
 10
91.32484554208035
 20
53.95405825366377
 30
0.0
  0
VERTEX
  5
29C
  8
DEFAULT
 10
91.34039995390273
 20
53.94975035551261
 30
0.0
  0
VERTEX
  5
29D
  8
DEFAULT
 10
91.35578440367075
 20
53.94506619877696
 30
0.0
  0
VERTEX
  5
29E
  8
DEFAULT
 10
91.37098576197933
 20
53.94001459297913
 30
0.0
  0
VERTEX
  5
29F
  8
DEFAULT
 10
91.38599146031632
 20
53.93460492575475
 30
0.0
  0
VERTEX
  5
2A0
  8
DEFAULT
 10
91.40078952032961
 20
53.92884712086947
 30
0.0
  0
VERTEX
  5
2A1
  8
DEFAULT
 10
91.41536857951574
 20
53.92275159470353
 30
0.0
  0
VERTEX
  5
2A2
  8
DEFAULT
 10
91.4297179132665
 20
53.91632921154309
 30
0.0
  0
VERTEX
  5
2A3
  8
DEFAULT
 10
91.44382745324343
 20
53.90959123801487
 30
0.0
  0
VERTEX
  5
2A4
  8
DEFAULT
 10
91.45768780208431
 20
53.90254929699609
 30
0.0
  0
VERTEX
  5
2A5
  8
DEFAULT
 10
91.47129024447776
 20
53.89521532132258
 30
0.0
  0
VERTEX
  5
2A6
  8
DEFAULT
 10
91.48462675467208
 20
53.88760150760609
 30
0.0
  0
VERTEX
  5
2A7
  8
DEFAULT
 10
91.49769000051275
 20
53.87972027045722
 30
0.0
  0
VERTEX
  5
2A8
  8
DEFAULT
 10
91.510473344128
 20
53.87158419739254
 30
0.0
  0
VERTEX
  5
2A9
  8
DEFAULT
 10
91.52297083940576
 20
53.8632060046857
 30
0.0
  0
VERTEX
  5
2AA
  8
DEFAULT
 10
91.53517722642353
 20
53.85459849440019
 30
0.0
  0
VERTEX
  5
2AB
  8
DEFAULT
 10
91.54708792301187
 20
53.84577451281973
 30
0.0
  0
VERTEX
  5
2AC
  8
DEFAULT
 10
91.55869901364449
 20
53.83674691046817
 30
0.0
  0
VERTEX
  5
2AD
  8
DEFAULT
 10
91.57000723586002
 20
53.82752850388673
 30
0.0
  0
VERTEX
  5
2AE
  8
DEFAULT
 10
91.58100996442901
 20
53.81813203931237
 30
0.0
  0
VERTEX
  5
2AF
  8
DEFAULT
 10
91.5917051934843
 20
53.80857015837676
 30
0.0
  0
VERTEX
  5
2B0
  8
DEFAULT
 10
91.60209151683623
 20
53.79885536592111
 30
0.0
  0
VERTEX
  5
2B1
  8
DEFAULT
 10
93.49364095150216
 20
51.90693850170651
 30
0.0
 42
-0.2119716997831702
  0
VERTEX
  5
2B2
  8
DEFAULT
 10
93.70316810669499
 20
51.435
 30
0.0
  0
VERTEX
  5
2B3
  8
DEFAULT
 10
93.70316810669499
 20
48.523
 30
0.0
  0
VERTEX
  5
2B4
  8
DEFAULT
 10
95.87116810669498
 20
46.355
 30
0.0
  0
VERTEX
  5
2B5
  8
DEFAULT
 10
97.94437980889846
 20
46.35500000000001
 30
0.0
 42
-0.2515709220595947
  0
VERTEX
  5
2B6
  8
DEFAULT
 10
98.90316818700057
 20
46.86999999999664
 30
0.0
  0
SEQEND
  5
2B7
  8
DEFAULT
  0
POLYLINE
  5
2B8
  8
DEFAULT
 66
     1
 10
0.0
 20
0.0
 30
0.0
  0
VERTEX
  5
2B9
  8
DEFAULT
 10
98.90316818695075
 20
41.79000000004584
 30
0.0
  0
VERTEX
  5
2BA
  8
DEFAULT
 10
101.2031680264003
 20
41.7899999999966
 30
0.0
 42
-1.000000069842921
  0
VERTEX
  5
2BB
  8
DEFAULT
 10
101.2031680264003
 20
39.49000000004588
 30
0.0
  0
VERTEX
  5
2BC
  8
DEFAULT
 10
98.90316810659483
 20
39.4900000000951
 30
0.0
  0
VERTEX
  5
2BD
  8
DEFAULT
 10
98.90316791276939
 20
39.49000027427651
 30
0.0
 42
-0.2515709963943775
  0
VERTEX
  5
2BE
  8
DEFAULT
 10
97.94437980895704
 20
40.00500000000002
 30
0.0
  0
VERTEX
  5
2BF
  8
DEFAULT
 10
94.60116810669498
 20
40.005
 30
0.0
  0
VERTEX
  5
2C0
  8
DEFAULT
 10
90.52816810669499
 20
35.93200000000001
 30
0.0
  0
VERTEX
  5
2C1
  8
DEFAULT
 10
90.52816810669498
 20
31.75
 30
0.0
 42
-0.2008759562267315
  0
VERTEX
  5
2C2
  8
DEFAULT
 10
90.33877693817746
 20
31.29760883153534
 30
0.0
  0
VERTEX
  5
2C3
  8
DEFAULT
 10
89.072168106695
 20
30.031
 30
0.0
 42
-0.1989025853967014
  0
VERTEX
  5
2C4
  8
DEFAULT
 10
88.623168106695
 20
29.84500905524667
 30
0.0
 42
-0.00001378621849
  0
VERTEX
  5
2C5
  8
DEFAULT
 10
88.29475143361756
 20
29.84500000000025
 30
0.0
 42
-0.3028032290455223
  0
VERTEX
  5
2C6
  8
DEFAULT
 10
87.23316802642748
 20
29.13719999995792
 30
0.0
  0
VERTEX
  5
2C7
  8
DEFAULT
 10
84.9331683006059
 20
29.13719999991584
 30
0.0
 42
-1.000000084309048
  0
VERTEX
  5
2C8
  8
DEFAULT
 10
84.93316830060589
 20
31.43719972577649
 30
0.0
  0
VERTEX
  5
2C9
  8
DEFAULT
 10
84.93316810676576
 20
31.43719999999996
 30
0.0
  0
VERTEX
  5
2CA
  8
DEFAULT
 10
87.23316802642748
 20
31.43719999999992
 30
0.0
 42
-0.1941984432623087
  0
VERTEX
  5
2CB
  8
DEFAULT
 10
88.0314457275793
 20
31.11499999999882
 30
0.0
  0
VERTEX
  5
2CC
  8
DEFAULT
 10
88.36016810669499
 20
31.11499999999999
 30
0.0
  0
VERTEX
  5
2CD
  8
DEFAULT
 10
89.25816810657037
 20
32.01300000000001
 30
0.0
  0
VERTEX
  5
2CE
  8
DEFAULT
 10
89.25817716191523
 20
36.19499947011469
 30
0.0
  0
VERTEX
  5
2CF
  8
DEFAULT
 10
89.25839046931287
 20
36.21143538084603
 30
0.0
  0
VERTEX
  5
2D0
  8
DEFAULT
 10
89.25902883176184
 20
36.22785477860469
 30
0.0
  0
VERTEX
  5
2D1
  8
DEFAULT
 10
89.26009096847343
 20
36.24424120652631
 30
0.0
  0
VERTEX
  5
2D2
  8
DEFAULT
 10
89.26157475231263
 20
36.2605783178591
 30
0.0
  0
VERTEX
  5
2D3
  8
DEFAULT
 10
89.26347722042674
 20
36.27684993005457
 30
0.0
  0
VERTEX
  5
2D4
  8
DEFAULT
 10
89.26579458898604
 20
36.29304007771345
 30
0.0
  0
VERTEX
  5
2D5
  8
DEFAULT
 10
89.26852227189998
 20
36.3091330640267
 30
0.0
  0
VERTEX
  5
2D6
  8
DEFAULT
 10
89.27165490333675
 20
36.32511351036904
 30
0.0
  0
VERTEX
  5
2D7
  8
DEFAULT
 10
89.2751863638421
 20
36.34096640372434
 30
0.0
  0
VERTEX
  5
2D8
  8
DEFAULT
 10
89.279109809822
 20
36.35667714164693
 30
0.0
  0
VERTEX
  5
2D9
  8
DEFAULT
 10
89.2834177061284
 20
36.37223157449153
 30
0.0
  0
VERTEX
  5
2DA
  8
DEFAULT
 10
89.28810186146313
 20
36.38761604467436
 30
0.0
  0
VERTEX
  5
2DB
  8
DEFAULT
 10
89.29315346629721
 20
36.40281742276161
 30
0.0
  0
VERTEX
  5
2DC
  8
DEFAULT
 10
89.29856313298669
 20
36.41782314021449
 30
0.0
  0
VERTEX
  5
2DD
  8
DEFAULT
 10
89.30432093775632
 20
36.43262121865622
 30
0.0
  0
VERTEX
  5
2DE
  8
DEFAULT
 10
89.31041646421487
 20
36.44720029556085
 30
0.0
  0
VERTEX
  5
2DF
  8
DEFAULT
 10
89.31683884806397
 20
36.46154964629988
 30
0.0
  0
VERTEX
  5
2E0
  8
DEFAULT
 10
89.32357682266363
 20
36.47565920251682
 30
0.0
  0
VERTEX
  5
2E1
  8
DEFAULT
 10
89.3306187651223
 20
36.48951956683371
 30
0.0
  0
VERTEX
  5
2E2
  8
DEFAULT
 10
89.33795274258893
 20
36.50312202392566
 30
0.0
  0
VERTEX
  5
2E3
  8
DEFAULT
 10
89.34556655843578
 20
36.51645854802982
 30
0.0
  0
VERTEX
  5
2E4
  8
DEFAULT
 10
89.35344779803553
 20
36.5295218069827
 30
0.0
  0
VERTEX
  5
2E5
  8
DEFAULT
 10
89.36158387385436
 20
36.54230516290597
 30
0.0
  0
VERTEX
  5
2E6
  8
DEFAULT
 10
89.36996206960099
 20
36.55480266968303
 30
0.0
  0
VERTEX
  5
2E7
  8
DEFAULT
 10
89.37856958319381
 20
36.56700906738916
 30
0.0
  0
VERTEX
  5
2E8
  8
DEFAULT
 10
89.38739356833086
 20
36.57891977385471
 30
0.0
  0
VERTEX
  5
2E9
  8
DEFAULT
 10
89.39642117446985
 20
36.59053087355515
 30
0.0
  0
VERTEX
  5
2EA
  8
DEFAULT
 10
89.4056395850511
 20
36.60183910403296
 30
0.0
  0
VERTEX
  5
2EB
  8
DEFAULT
 10
89.41503605381922
 20
36.61284184006434
 30
0.0
  0
VERTEX
  5
2EC
  8
DEFAULT
 10
89.42459793912427
 20
36.62353707578945
 30
0.0
  0
VERTEX
  5
2ED
  8
DEFAULT
 10
89.43431273610697
 20
36.63392340502775
 30
0.0
  0
VERTEX
  5
2EE
  8
DEFAULT
 10
93.86622960430542
 20
41.06547284412413
 30
0.0
 42
-0.2119716476982001
  0
VERTEX
  5
2EF
  8
DEFAULT
 10
94.33816810669498
 20
41.27500000000001
 30
0.0
  0
VERTEX
  5
2F0
  8
DEFAULT
 10
97.94437980883107
 20
41.27499999999998
 30
0.0
 42
-0.2515707442894249
  0
VERTEX
  5
2F1
  8
DEFAULT
 10
98.90316818695075
 20
41.79000000004585
 30
0.0
  0
SEQEND
  5
2F2
  8
DEFAULT
  0
POLYLINE
  5
2F3
  8
DEFAULT
 66
     1
 10
0.0
 20
0.0
 30
0.0
  0
VERTEX
  5
2F4
  8
DEFAULT
 10
126.8431681870002
 20
39.25000000000041
 30
0.0
  0
VERTEX
  5
2F5
  8
DEFAULT
 10
129.143168106695
 20
39.25000000000088
 30
0.0
 42
-1.000000000000015
  0
VERTEX
  5
2F6
  8
DEFAULT
 10
129.143168106695
 20
36.95000000000088
 30
0.0
  0
VERTEX
  5
2F7
  8
DEFAULT
 10
126.8431681870002
 20
36.95000000000004
 30
0.0
 42
-0.2515709220630535
  0
VERTEX
  5
2F8
  8
DEFAULT
 10
125.8843798088941
 20
37.465
 30
0.0
  0
VERTEX
  5
2F9
  8
DEFAULT
 10
117.401956404446
 20
37.465
 30
0.0
 42
-0.2515711833504917
  0
VERTEX
  5
2FA
  8
DEFAULT
 10
116.443167912793
 20
36.95000027425675
 30
0.0
  0
VERTEX
  5
2FB
  8
DEFAULT
 10
116.4431681066421
 20
36.95000000007538
 30
0.0
  0
VERTEX
  5
2FC
  8
DEFAULT
 10
114.1431683006098
 20
36.95000000003867
 30
0.0
 42
-1.000000084349351
  0
VERTEX
  5
2FD
  8
DEFAULT
 10
114.1431683006098
 20
39.2499997258205
 30
0.0
  0
VERTEX
  5
2FE
  8
DEFAULT
 10
114.1431681067736
 20
39.2500000000019
 30
0.0
  0
VERTEX
  5
2FF
  8
DEFAULT
 10
116.443167912793
 20
39.25000000003861
 30
0.0
 42
-0.2515710608302756
  0
VERTEX
  5
300
  8
DEFAULT
 10
117.4019564045458
 20
38.73499999999999
 30
0.0
  0
VERTEX
  5
301
  8
DEFAULT
 10
125.8843798088941
 20
38.73499999999999
 30
0.0
 42
-0.2515709220628687
  0
VERTEX
  5
302
  8
DEFAULT
 10
126.8431681870002
 20
39.25000000000041
 30
0.0
  0
SEQEND
  5
303
  8
DEFAULT
  0
POLYLINE
  5
304
  8
DEFAULT
 66
     1
 10
0.0
 20
0.0
 30
0.0
  0
VERTEX
  5
305
  8
DEFAULT
 10
131.8031590514451
 20
17.78
 30
0.0
  0
VERTEX
  5
306
  8
DEFAULT
 10
131.8027337674582
 20
17.74714475598773
 30
0.0
 42
-0.0001160004351906
  0
VERTEX
  5
307
  8
DEFAULT
 10
131.8031681066945
 20
15.875
 30
0.0
 42
-0.2008759065032285
  0
VERTEX
  5
308
  8
DEFAULT
 10
131.6137769381897
 20
15.42260883152114
 30
0.0
  0
VERTEX
  5
309
  8
DEFAULT
 10
130.362168106695
 20
14.171
 30
0.0
 42
-0.111732327437369
  0
VERTEX
  5
30A
  8
DEFAULT
 10
130.1251148599409
 20
14.02143457016923
 30
0.0
 42
-0.2615745312417577
  0
VERTEX
  5
30B
  8
DEFAULT
 10
129.1431680264148
 20
13.47000000000639
 30
0.0
  0
VERTEX
  5
30C
  8
DEFAULT
 10
126.843168106695
 20
13.47000000001174
 30
0.0
 42
-0.9999999999999992
  0
VERTEX
  5
30D
  8
DEFAULT
 10
126.843168106695
 20
15.77000000001174
 30
0.0
  0
VERTEX
  5
30E
  8
DEFAULT
 10
129.1431680264148
 20
15.77000000000095
 30
0.0
 42
-0.1785138616494544
  0
VERTEX
  5
30F
  8
DEFAULT
 10
129.8898184628911
 20
15.49465035619609
 30
0.0
  0
VERTEX
  5
310
  8
DEFAULT
 10
130.533168106695
 20
16.13800000000001
 30
0.0
  0
VERTEX
  5
311
  8
DEFAULT
 10
130.533168106695
 20
17.485
 30
0.0
  0
VERTEX
  5
312
  8
DEFAULT
 10
130.1019564044955
 20
17.485
 30
0.0
 42
-0.2515711213208096
  0
VERTEX
  5
313
  8
DEFAULT
 10
129.1431679128192
 20
16.97000027418171
 30
0.0
  0
VERTEX
  5
314
  8
DEFAULT
 10
129.1431681066943
 20
16.97
 30
0.0
  0
VERTEX
  5
315
  8
DEFAULT
 10
126.8431681870006
 20
16.96999999999389
 30
0.0
 42
-0.9999998663352427
  0
VERTEX
  5
316
  8
DEFAULT
 10
126.8431681870006
 20
19.26999999998704
 30
0.0
  0
VERTEX
  5
317
  8
DEFAULT
 10
129.1431679128191
 20
19.27000000000061
 30
0.0
 42
-0.2515710607683742
  0
VERTEX
  5
318
  8
DEFAULT
 10
130.1019564044963
 20
18.755
 30
0.0
  0
VERTEX
  5
319
  8
DEFAULT
 10
130.533168106695
 20
18.755
 30
0.0
  0
VERTEX
  5
31A
  8
DEFAULT
 10
130.533168106695
 20
29.225
 30
0.0
  0
VERTEX
  5
31B
  8
DEFAULT
 10
130.1019564044959
 20
29.22500000000002
 30
0.0
 42
-0.2515710159538894
  0
VERTEX
  5
31C
  8
DEFAULT
 10
129.143168106695
 20
28.71000000000001
 30
0.0
  0
VERTEX
  5
31D
  8
DEFAULT
 10
126.8431683006048
 20
28.71000000000003
 30
0.0
 42
-1.000000084308577
  0
VERTEX
  5
31E
  8
DEFAULT
 10
126.8431683006048
 20
31.00999972581862
 30
0.0
  0
VERTEX
  5
31F
  8
DEFAULT
 10
126.8431681067635
 20
31.01
 30
0.0
  0
VERTEX
  5
320
  8
DEFAULT
 10
129.143168106695
 20
31.00999999999999
 30
0.0
 42
-0.2515710159538853
  0
VERTEX
  5
321
  8
DEFAULT
 10
130.1019564044959
 20
30.495
 30
0.0
  0
VERTEX
  5
322
  8
DEFAULT
 10
130.533168106695
 20
30.495
 30
0.0
  0
VERTEX
  5
323
  8
DEFAULT
 10
130.533168106695
 20
32.725
 30
0.0
  0
VERTEX
  5
324
  8
DEFAULT
 10
130.101956404496
 20
32.72499999999999
 30
0.0
 42
-0.2515709220634134
  0
VERTEX
  5
325
  8
DEFAULT
 10
129.1431680264227
 20
32.20999999999981
 30
0.0
  0
VERTEX
  5
326
  8
DEFAULT
 10
126.843168106695
 20
32.20999999999975
 30
0.0
 42
-1.000000000000003
  0
VERTEX
  5
327
  8
DEFAULT
 10
126.843168106695
 20
34.50999999999975
 30
0.0
  0
VERTEX
  5
328
  8
DEFAULT
 10
129.1431680264227
 20
34.50999999999976
 30
0.0
 42
-0.2515709220633399
  0
VERTEX
  5
329
  8
DEFAULT
 10
130.1019564044958
 20
33.99499999999999
 30
0.0
  0
VERTEX
  5
32A
  8
DEFAULT
 10
130.533168106695
 20
33.995
 30
0.0
  0
VERTEX
  5
32B
  8
DEFAULT
 10
130.533168106695
 20
44.465
 30
0.0
  0
VERTEX
  5
32C
  8
DEFAULT
 10
130.1019564044955
 20
44.46500000000001
 30
0.0
 42
-0.251570860012408
  0
VERTEX
  5
32D
  8
DEFAULT
 10
129.1431680263917
 20
43.95000000000056
 30
0.0
  0
VERTEX
  5
32E
  8
DEFAULT
 10
126.8431679128194
 20
43.95000000000047
 30
0.0
 42
-0.9999998663281837
  0
VERTEX
  5
32F
  8
DEFAULT
 10
126.8431681870007
 20
46.25000000000048
 30
0.0
  0
VERTEX
  5
330
  8
DEFAULT
 10
129.1431680263917
 20
46.25000000000056
 30
0.0
 42
-0.251570860012767
  0
VERTEX
  5
331
  8
DEFAULT
 10
130.1019564044963
 20
45.735
 30
0.0
  0
VERTEX
  5
332
  8
DEFAULT
 10
130.533168106695
 20
45.735
 30
0.0
  0
VERTEX
  5
333
  8
DEFAULT
 10
130.533168106695
 20
47.965
 30
0.0
  0
VERTEX
  5
334
  8
DEFAULT
 10
130.1019564044948
 20
47.96500000000001
 30
0.0
 42
-0.2515711213203033
  0
VERTEX
  5
335
  8
DEFAULT
 10
129.1431679128106
 20
47.45000027418256
 30
0.0
  0
VERTEX
  5
336
  8
DEFAULT
 10
129.1431681066772
 20
47.45000000000061
 30
0.0
  0
VERTEX
  5
337
  8
DEFAULT
 10
126.843168106695
 20
47.45000000000061
 30
0.0
 42
-1.000000000000009
  0
VERTEX
  5
338
  8
DEFAULT
 10
126.843168106695
 20
49.75000000000062
 30
0.0
  0
VERTEX
  5
339
  8
DEFAULT
 10
129.1431679128106
 20
49.75000000000166
 30
0.0
 42
-0.2515710607706691
  0
VERTEX
  5
33A
  8
DEFAULT
 10
130.101956404497
 20
49.23500000000001
 30
0.0
  0
VERTEX
  5
33B
  8
DEFAULT
 10
130.533168106695
 20
49.235
 30
0.0
  0
VERTEX
  5
33C
  8
DEFAULT
 10
130.533168106695
 20
59.705
 30
0.0
  0
VERTEX
  5
33D
  8
DEFAULT
 10
130.1019564044931
 20
59.705
 30
0.0
 42
-0.2515710494595915
  0
VERTEX
  5
33E
  8
DEFAULT
 10
129.1431679128195
 20
59.19000000000432
 30
0.0
  0
VERTEX
  5
33F
  8
DEFAULT
 10
126.8431683005725
 20
59.19000000000152
 30
0.0
 42
-0.9999999999999999
  0
VERTEX
  5
340
  8
DEFAULT
 10
126.843168106695
 20
61.49000000000149
 30
0.0
  0
VERTEX
  5
341
  8
DEFAULT
 10
129.1431683005854
 20
61.49000000000425
 30
0.0
 42
-0.251570924561216
  0
VERTEX
  5
342
  8
DEFAULT
 10
130.1019564044988
 20
60.97499999999999
 30
0.0
  0
VERTEX
  5
343
  8
DEFAULT
 10
130.533168106695
 20
60.97500000000001
 30
0.0
  0
VERTEX
  5
344
  8
DEFAULT
 10
130.533168106695
 20
61.967
 30
0.0
  0
VERTEX
  5
345
  8
DEFAULT
 10
129.6781523306168
 20
62.82201577607872
 30
0.0
 42
-0.1215596700755163
  0
VERTEX
  5
346
  8
DEFAULT
 10
129.143168106695
 20
62.69000000000108
 30
0.0
  0
VERTEX
  5
347
  8
DEFAULT
 10
126.8431683006074
 20
62.69000000000098
 30
0.0
 42
-1.000000084318216
  0
VERTEX
  5
348
  8
DEFAULT
 10
126.8431683006269
 20
64.9900000000009
 30
0.0
  0
VERTEX
  5
349
  8
DEFAULT
 10
127.3581681067242
 20
64.99000000000098
 30
0.0
  0
VERTEX
  5
34A
  8
DEFAULT
 10
127.3581771618919
 20
68.40219945614336
 30
0.0
 42
-0.1989026929553529
  0
VERTEX
  5
34B
  8
DEFAULT
 10
127.544168106695
 20
68.8512
 30
0.0
  0
VERTEX
  5
34C
  8
DEFAULT
 10
127.6136163779991
 20
68.92064827130419
 30
0.0
 42
-0.7259680705785373
  0
VERTEX
  5
34D
  8
DEFAULT
 10
128.2909679127743
 20
71.00000000000144
 30
0.0
  0
VERTEX
  5
34E
  8
DEFAULT
 10
128.805968106695
 20
71.0000000000091
 30
0.0
  0
VERTEX
  5
34F
  8
DEFAULT
 10
128.805968106695
 20
71.3142
 30
0.0
  0
VERTEX
  5
350
  8
DEFAULT
 10
128.365168106695
 20
71.755
 30
0.0
  0
VERTEX
  5
351
  8
DEFAULT
 10
101.586168106695
 20
71.755
 30
0.0
  0
VERTEX
  5
352
  8
DEFAULT
 10
98.14816810669498
 20
68.31700000000001
 30
0.0
  0
VERTEX
  5
353
  8
DEFAULT
 10
98.14816810669498
 20
65.2509
 30
0.0
  0
VERTEX
  5
354
  8
DEFAULT
 10
98.75823724869348
 20
64.6408308580015
 30
0.0
  0
VERTEX
  5
355
  8
DEFAULT
 10
98.90316818696891
 20
64.65000000007423
 30
0.0
  0
VERTEX
  5
356
  8
DEFAULT
 10
101.2031679128189
 20
64.65000000004858
 30
0.0
  0
VERTEX
  5
357
  8
DEFAULT
 10
101.203168106695
 20
64.65000000002298
 30
0.0
 42
-1.000000203503294
  0
VERTEX
  5
358
  8
DEFAULT
 10
101.2031679128189
 20
62.35000027420443
 30
0.0
  0
VERTEX
  5
359
  8
DEFAULT
 10
101.2031681066938
 20
62.35000000002297
 30
0.0
  0
VERTEX
  5
35A
  8
DEFAULT
 10
98.90316810663111
 20
62.35000000002297
 30
0.0
  0
VERTEX
  5
35B
  8
DEFAULT
 10
98.90316791278754
 20
62.35000027423001
 30
0.0
 42
-0.4960258076260966
  0
VERTEX
  5
35C
  8
DEFAULT
 10
97.79515624506482
 20
63.80791186163015
 30
0.0
  0
VERTEX
  5
35D
  8
DEFAULT
 10
97.06755927521257
 20
64.53550883153525
 30
0.0
 42
-0.2008759562268097
  0
VERTEX
  5
35E
  8
DEFAULT
 10
96.87816810669497
 20
64.9879
 30
0.0
  0
VERTEX
  5
35F
  8
DEFAULT
 10
96.87816810669499
 20
68.31700000000001
 30
0.0
  0
VERTEX
  5
360
  8
DEFAULT
 10
94.07516810669497
 20
71.12
 30
0.0
  0
VERTEX
  5
361
  8
DEFAULT
 10
88.04671353254184
 20
71.12
 30
0.0
 42
-0.1990313485983547
  0
VERTEX
  5
362
  8
DEFAULT
 10
87.23316802640505
 20
70.7828000000515
 30
0.0
  0
VERTEX
  5
363
  8
DEFAULT
 10
84.93316830066374
 20
70.78279999994892
 30
0.0
 42
-0.1990315337483043
  0
VERTEX
  5
364
  8
DEFAULT
 10
84.11962268064316
 20
71.12
 30
0.0
  0
VERTEX
  5
365
  8
DEFAULT
 10
83.17116810669499
 20
71.12
 30
0.0
  0
VERTEX
  5
366
  8
DEFAULT
 10
82.27316810669498
 20
70.22200000000001
 30
0.0
  0
VERTEX
  5
367
  8
DEFAULT
 10
82.27316810669498
 20
61.13779999999999
 30
0.0
  0
VERTEX
  5
368
  8
DEFAULT
 10
83.97437980890098
 20
61.13779999999999
 30
0.0
 42
-0.2515708600100842
  0
VERTEX
  5
369
  8
DEFAULT
 10
84.93316818695921
 20
61.65279999998952
 30
0.0
  0
VERTEX
  5
36A
  8
DEFAULT
 10
87.23316802640618
 20
61.65279999999476
 30
0.0
 42
-1.000000069818648
  0
VERTEX
  5
36B
  8
DEFAULT
 10
87.23316802640619
 20
59.35280000000004
 30
0.0
  0
VERTEX
  5
36C
  8
DEFAULT
 10
84.9331681869592
 20
59.3527999999948
 30
0.0
 42
-0.2515709220688905
  0
VERTEX
  5
36D
  8
DEFAULT
 10
83.97437980888716
 20
59.86779999999999
 30
0.0
  0
VERTEX
  5
36E
  8
DEFAULT
 10
82.27316810669498
 20
59.8678
 30
0.0
  0
VERTEX
  5
36F
  8
DEFAULT
 10
82.27316810669505
 20
49.68238113487881
 30
0.0
  0
VERTEX
  5
370
  8
DEFAULT
 10
82.48382335017703
 20
49.707365660763
 30
0.0
 42
-0.0001456969620482
  0
VERTEX
  5
371
  8
DEFAULT
 10
83.97437980899228
 20
49.70780000000012
 30
0.0
 42
-0.2515709220226445
  0
VERTEX
  5
372
  8
DEFAULT
 10
84.93316818691444
 20
50.22279999985161
 30
0.0
  0
VERTEX
  5
373
  8
DEFAULT
 10
87.23316791281945
 20
50.22279999992546
 30
0.0
 42
-1.000000287828896
  0
VERTEX
  5
374
  8
DEFAULT
 10
87.23316791281944
 20
47.92280027418074
 30
0.0
  0
VERTEX
  5
375
  8
DEFAULT
 10
87.23316810669496
 20
47.92279999999935
 30
0.0
  0
VERTEX
  5
376
  8
DEFAULT
 10
84.93316818691443
 20
47.92279999992552
 30
0.0
 42
-0.2515709221410259
  0
VERTEX
  5
377
  8
DEFAULT
 10
83.97437980879582
 20
48.43780000000002
 30
0.0
  0
VERTEX
  5
378
  8
DEFAULT
 10
82.71396810669498
 20
48.4378
 30
0.0
  0
VERTEX
  5
379
  8
DEFAULT
 10
82.27316810669498
 20
47.997
 30
0.0
  0
VERTEX
  5
37A
  8
DEFAULT
 10
82.27316810669498
 20
38.2778
 30
0.0
  0
VERTEX
  5
37B
  8
DEFAULT
 10
83.97437980895297
 20
38.27779999999998
 30
0.0
 42
-0.2515709220390224
  0
VERTEX
  5
37C
  8
DEFAULT
 10
84.93316818693499
 20
38.79279999991102
 30
0.0
  0
VERTEX
  5
37D
  8
DEFAULT
 10
87.23316802641475
 20
38.79279999996874
 30
0.0
 42
-1.000000069834033
  0
VERTEX
  5
37E
  8
DEFAULT
 10
87.23316802641477
 20
36.49280000002653
 30
0.0
  0
VERTEX
  5
37F
  8
DEFAULT
 10
84.93316818693499
 20
36.49279999996881
 30
0.0
 42
-0.2515709221165022
  0
VERTEX
  5
380
  8
DEFAULT
 10
83.97437980883514
 20
37.0078
 30
0.0
  0
VERTEX
  5
381
  8
DEFAULT
 10
82.27316810669498
 20
37.0078
 30
0.0
  0
VERTEX
  5
382
  8
DEFAULT
 10
82.27316810669498
 20
26.8478
 30
0.0
  0
VERTEX
  5
383
  8
DEFAULT
 10
83.9743798089049
 20
26.84779999999999
 30
0.0
 42
-0.2515710607638731
  0
VERTEX
  5
384
  8
DEFAULT
 10
84.93316830057165
 20
27.36279999998359
 30
0.0
  0
VERTEX
  5
385
  8
DEFAULT
 10
87.23316802638978
 20
27.36279999999149
 30
0.0
 42
-1.000000069834045
  0
VERTEX
  5
386
  8
DEFAULT
 10
87.23316802638979
 20
25.06279999999943
 30
0.0
  0
VERTEX
  5
387
  8
DEFAULT
 10
84.93316830057165
 20
25.06279999999156
 30
0.0
 42
-0.2515709874186933
  0
VERTEX
  5
388
  8
DEFAULT
 10
83.97437980888323
 20
25.57780000000001
 30
0.0
  0
VERTEX
  5
389
  8
DEFAULT
 10
82.27316810669498
 20
25.5778
 30
0.0
  0
VERTEX
  5
38A
  8
DEFAULT
 10
82.27316810669498
 20
16.13799999999999
 30
0.0
  0
VERTEX
  5
38B
  8
DEFAULT
 10
82.99336810669499
 20
15.4178
 30
0.0
  0
VERTEX
  5
38C
  8
DEFAULT
 10
83.9743798089423
 20
15.41779999999999
 30
0.0
 42
-0.2515708599933797
  0
VERTEX
  5
38D
  8
DEFAULT
 10
84.93316818689543
 20
15.93279999992713
 30
0.0
  0
VERTEX
  5
38E
  8
DEFAULT
 10
87.23316802639285
 20
15.9327999999631
 30
0.0
 42
-1.000000069843604
  0
VERTEX
  5
38F
  8
DEFAULT
 10
87.23316802639286
 20
13.63279999999913
 30
0.0
  0
VERTEX
  5
390
  8
DEFAULT
 10
84.93316818689541
 20
13.63279999996317
 30
0.0
 42
-0.2515709221035223
  0
VERTEX
  5
391
  8
DEFAULT
 10
83.97437980884584
 20
14.14780000000049
 30
0.0
 42
-0.0000036395260137
  0
VERTEX
  5
392
  8
DEFAULT
 10
82.73036850637989
 20
14.1478090552555
 30
0.0
 42
-0.1989026413667255
  0
VERTEX
  5
393
  8
DEFAULT
 10
82.28136810669498
 20
14.3338
 30
0.0
  0
VERTEX
  5
394
  8
DEFAULT
 10
81.19255927521219
 20
15.42260883153567
 30
0.0
 42
-0.2008759562265878
  0
VERTEX
  5
395
  8
DEFAULT
 10
81.003168106695
 20
15.875
 30
0.0
  0
VERTEX
  5
396
  8
DEFAULT
 10
81.00316810669499
 20
60.325
 30
0.0
  0
VERTEX
  5
397
  8
DEFAULT
 10
81.00317716194223
 20
70.485000107053
 30
0.0
 42
-0.1989026328093405
  0
VERTEX
  5
398
  8
DEFAULT
 10
81.18916810669496
 20
70.934
 30
0.0
  0
VERTEX
  5
399
  8
DEFAULT
 10
82.45577693823013
 20
72.2006088314823
 30
0.0
 42
-0.2008759562268317
  0
VERTEX
  5
39A
  8
DEFAULT
 10
82.90816810669499
 20
72.38999999999999
 30
0.0
  0
VERTEX
  5
39B
  8
DEFAULT
 10
83.87795809922751
 20
72.38999999999999
 30
0.0
 42
-0.2989397549201429
  0
VERTEX
  5
39C
  8
DEFAULT
 10
84.93316830066372
 20
73.0827997256649
 30
0.0
  0
VERTEX
  5
39D
  8
DEFAULT
 10
84.93316810688142
 20
73.08279999984632
 30
0.0
  0
VERTEX
  5
39E
  8
DEFAULT
 10
87.23316802640505
 20
73.08279999994886
 30
0.0
 42
-0.298939388863129
  0
VERTEX
  5
39F
  8
DEFAULT
 10
88.28837811425136
 20
72.38999999999999
 30
0.0
  0
VERTEX
  5
3A0
  8
DEFAULT
 10
94.33816810669498
 20
72.39
 30
0.0
 42
-0.2008759561928569
  0
VERTEX
  5
3A1
  8
DEFAULT
 10
94.79055927519131
 20
72.2006088315028
 30
0.0
  0
VERTEX
  5
3A2
  8
DEFAULT
 10
97.51333718456115
 20
69.47784372826676
 30
0.0
 42
-0.0000242003569346
  0
VERTEX
  5
3A3
  8
DEFAULT
 10
100.8741681066967
 20
72.83900000000722
 30
0.0
 42
-0.2119529712083311
  0
VERTEX
  5
3A4
  8
DEFAULT
 10
101.3560233507072
 20
73.0245656607365
 30
0.0
 42
-0.0000079630560183
  0
VERTEX
  5
3A5
  8
DEFAULT
 10
128.628168106695
 20
73.02500000002331
 30
0.0
 42
-0.2008759562054747
  0
VERTEX
  5
3A6
  8
DEFAULT
 10
129.0805592751624
 20
72.83560883147972
 30
0.0
  0
VERTEX
  5
3A7
  8
DEFAULT
 10
129.889968106695
 20
72.02620000000002
 30
0.0
 42
-0.2119530198204005
  0
VERTEX
  5
3A8
  8
DEFAULT
 10
130.0755337674581
 20
71.54434475598777
 30
0.0
 42
-0.000398955767788
  0
VERTEX
  5
3A9
  8
DEFAULT
 10
130.0759681066949
 20
71.00000000002785
 30
0.0
  0
VERTEX
  5
3AA
  8
DEFAULT
 10
130.5909683005774
 20
71.00000000003541
 30
0.0
 42
-0.9999999999999939
  0
VERTEX
  5
3AB
  8
DEFAULT
 10
130.5909679128126
 20
68.70000000003543
 30
0.0
  0
VERTEX
  5
3AC
  8
DEFAULT
 10
129.1889681067097
 20
68.70000000001474
 30
0.0
  0
VERTEX
  5
3AD
  8
DEFAULT
 10
128.628168106695
 20
68.13919999999999
 30
0.0
  0
VERTEX
  5
3AE
  8
DEFAULT
 10
128.628168106695
 20
64.99000000000103
 30
0.0
  0
VERTEX
  5
3AF
  8
DEFAULT
 10
129.1431679127956
 20
64.99000000000105
 30
0.0
 42
-0.3722476655486774
  0
VERTEX
  5
3B0
  8
DEFAULT
 10
130.2810375794583
 20
64.00659250569457
 30
0.0
 42
-0.0364572541149436
  0
VERTEX
  5
3B1
  8
DEFAULT
 10
130.3505592751612
 20
63.94560883148087
 30
0.0
  0
VERTEX
  5
3B2
  8
DEFAULT
 10
131.617168106695
 20
62.67900000000001
 30
0.0
 42
-0.2119530198203548
  0
VERTEX
  5
3B3
  8
DEFAULT
 10
131.8027337674583
 20
62.19714475598775
 30
0.0
 42
-0.0001184188511376
  0
VERTEX
  5
3B4
  8
DEFAULT
 10
131.8031590514474
 20
60.325
 30
0.0
  0
VERTEX
  5
3B5
  8
DEFAULT
 10
131.8031590514478
 20
48.26
 30
0.0
  0
VERTEX
  5
3B6
  8
DEFAULT
 10
131.8027337674592
 20
48.22714475598774
 30
0.0
 42
-0.00007055600136
  0
VERTEX
  5
3B7
  8
DEFAULT
 10
131.8031590514493
 20
45.084999892947
 30
0.0
  0
VERTEX
  5
3B8
  8
DEFAULT
 10
131.8027337674643
 20
45.05214475598774
 30
0.0
 42
-0.0000184254090362
  0
VERTEX
  5
3B9
  8
DEFAULT
 10
131.8031590514875
 20
33.019999892947
 30
0.0
  0
VERTEX
  5
3BA
  8
DEFAULT
 10
131.8027337674574
 20
32.98714475598774
 30
0.0
 42
-0.0000705560078371
  0
VERTEX
  5
3BB
  8
DEFAULT
 10
131.8031590514456
 20
29.845
 30
0.0
  0
VERTEX
  5
3BC
  8
DEFAULT
 10
131.8027337674893
 20
29.81214475598773
 30
0.0
 42
-0.0000184254135964
  0
VERTEX
  5
3BD
  8
DEFAULT
 10
131.8031590514584
 20
17.78
 30
0.0
  0
SEQEND
  5
3BE
  8
DEFAULT
  0
ENDSEC
  0
EOF
